<svg width="17" height="23" viewBox="0 0 17 23" fill="none" xmlns="http://www.w3.org/2000/svg">
<path fill-rule="evenodd" clip-rule="evenodd" d="M11.1597 7.74287C11.1597 7.45657 11.1597 7.17057 10.9681 6.97867C10.9681 6.88427 10.8706 6.50107 10.7762 6.40637L10.6818 6.31307C10.5845 6.21477 10.2985 5.83517 10.2038 5.83517L10.0122 5.64357C10.0122 5.54887 9.63272 5.35727 9.53832 5.35727C9.34642 5.16567 8.96602 5.16567 8.77402 5.16567H8.20172C7.91572 5.16567 7.53222 5.16567 7.43782 5.35727C7.15262 5.35727 6.29432 6.12037 6.29432 6.40637H6.19992C6.10242 6.59827 5.91082 6.78707 5.91082 6.97867C5.81642 7.17057 5.81642 7.45657 5.72202 7.74287L5.81642 8.31517C5.81642 8.50687 5.91082 8.79287 6.00802 8.98077C6.00802 9.07807 6.10242 9.26707 6.19992 9.36437L6.38872 9.65037C6.38872 9.74497 6.77222 9.93667 6.86662 10.1255L7.15262 10.2227C7.15262 10.3171 7.34432 10.4106 7.43782 10.4106C7.53222 10.509 7.91572 10.509 8.10452 10.6025H8.77402C8.96602 10.6025 9.34642 10.509 9.53832 10.4106C9.63272 10.4106 9.72622 10.3171 9.82432 10.2227C9.91782 10.2227 10.1106 10.1255 10.1106 10.0311C10.2038 10.0311 10.4901 9.74497 10.5845 9.65037C10.6818 9.55307 10.6818 9.45867 10.7762 9.36437C10.7762 9.36437 10.9681 9.07807 10.9681 8.98077C11.0625 8.79287 11.1597 8.50687 11.1597 8.31517V7.74287ZM9.44082 0.30307C9.63272 0.30307 9.72622 0.397469 9.91782 0.397469C10.0122 0.397469 10.4901 0.490772 10.6818 0.589073L11.9199 1.06707L12.4923 1.25497C12.4923 1.35307 12.5903 1.35307 12.6839 1.35307C12.6839 1.44657 13.1618 1.82727 13.3506 1.92447C13.5422 2.01887 13.8285 2.39957 14.0201 2.49687L14.5924 3.16357L15.0695 3.83307C15.0695 3.92667 15.1639 4.02097 15.1639 4.11827L15.4499 4.49897C15.4499 4.59337 15.6418 4.97657 15.6418 4.97657C15.7362 5.16567 15.8306 5.54887 15.9278 5.64357L16.0222 6.40637L16.1195 7.07307C16.1195 7.74287 16.1195 8.22057 16.1195 8.98077C16.0222 9.17267 16.0222 9.36437 16.0222 9.55307L15.6418 10.8885L15.4499 11.4609L14.8776 12.7027L14.3064 13.9409L13.5422 15.2771C13.4478 15.3744 13.3506 15.4688 13.3506 15.5623C13.2562 15.6607 13.1618 15.8483 13.1618 15.9467C13.0646 15.9467 12.7783 16.4206 12.7783 16.5181L12.6839 16.7069C12.5903 16.8042 12.3979 17.0905 12.3979 17.1849C12.1127 17.2792 12.018 17.5644 11.9199 17.6628L11.8264 17.8544C11.732 17.9488 11.3485 18.4267 11.3485 18.5203C11.2541 18.6147 10.9681 18.9979 10.8706 19.0923L10.6818 19.3786L10.3957 19.7593L10.1106 20.1425C10.0122 20.2361 9.91782 20.3344 9.82432 20.4288L8.86872 21.6667L8.77402 21.7642L8.48802 22.0502L8.20172 21.7642L8.10452 21.6667L7.05822 20.4288C7.05822 20.3344 6.96102 20.2361 6.86662 20.1425L6.58032 19.7593L6.29432 19.3786H6.19992L6.10242 19.0923C6.00802 18.9979 5.91082 18.9007 5.81642 18.8063C5.81642 18.7119 5.81642 18.7119 5.72202 18.6147C5.62482 18.6147 5.72202 18.5203 5.62482 18.5203C5.62482 18.4267 5.24412 17.9488 5.15052 17.8544L5.05242 17.6628C4.95782 17.5644 4.76612 17.2792 4.67262 17.1849C4.67262 17.0905 4.48102 17.0905 4.38662 16.9929C4.38662 16.8986 4.29222 16.8042 4.29222 16.7069L4.19502 16.5181C4.19502 16.4206 3.90872 15.9467 3.81432 15.9467C3.71702 15.7539 3.71702 15.6607 3.62262 15.5623C3.62262 15.4688 3.52832 15.3744 3.43072 15.2771L2.67052 13.9409L2.09852 12.7027L1.52612 11.4609L1.33422 10.8885L0.951022 9.55307L0.856322 8.98077C0.761922 8.31517 0.761922 7.74287 0.856322 7.07307V6.50107L1.04822 5.64357L1.23702 5.07127C1.33422 4.97657 1.52612 4.59337 1.52612 4.49897L1.71492 4.11827C1.81222 4.02097 1.90662 3.92667 1.90662 3.83307C2.00092 3.73467 2.28612 3.26077 2.38452 3.16357C2.57242 2.97077 2.85842 2.68557 2.95592 2.49687C3.05032 2.39957 3.43072 2.01887 3.62262 1.92447C3.71702 1.82727 4.19502 1.44657 4.29222 1.35307C4.38662 1.35307 4.48102 1.35307 4.48102 1.25497L5.05242 1.06707L6.19992 0.589073L7.05822 0.397469C7.24622 0.397469 7.34432 0.30307 7.53222 0.30307H8.10452H8.77402H9.44082Z" fill="white"/>
</svg>
