<svg width="25" height="24" viewBox="0 0 25 24" fill="none" xmlns="http://www.w3.org/2000/svg">
<path fill-rule="evenodd" clip-rule="evenodd" d="M5.92102 11.0814C5.92102 9.14419 6.42652 7.62878 6.51232 5.94418L3.22562 4.59488C1.96302 5.52208 0.78302 8.80799 0.78302 11.0814H5.92102ZM21.8427 19.2529C22.4306 17.7352 24.1161 16.3023 24.1988 12.7661H19.0613C19.0613 14.621 18.5559 16.2198 18.4726 17.9044C18.7254 18.0736 21.5901 19.167 21.8427 19.2529ZM3.05632 19.2529C3.30922 19.167 6.25982 17.9878 6.51232 17.9044C6.42652 16.2198 5.92102 14.621 5.92102 12.7661H0.78302C0.78302 14.0297 1.11912 15.2089 1.54092 16.389C1.96302 17.5682 2.80382 18.4098 3.05632 19.2529ZM18.4726 5.94418C18.5559 7.62878 19.0613 9.14419 19.0613 11.0814H24.1988C24.1161 7.54209 22.5142 6.11338 21.926 4.59488C21.6734 4.59488 18.7254 5.77408 18.4726 5.94418ZM7.43642 12.7661C7.43642 14.621 7.77522 15.9669 8.02772 17.5682L11.6499 17.2298V12.7661H7.43642ZM16.8713 17.5682C17.1241 15.9669 17.4626 14.621 17.4626 12.7661H13.2486V17.1461L16.8713 17.5682ZM8.02772 6.27948C7.68932 7.88168 7.43642 9.22759 7.43642 11.0814H11.6499V6.61798L8.02772 6.27948ZM13.3353 11.165L17.6287 11.0814C17.5459 9.22759 17.2934 7.96419 17.0408 6.36539L13.3353 6.70128V11.165ZM4.40592 20.4298C4.99382 21.1912 4.91022 21.357 6.59572 22.3678C7.35312 22.7891 8.53322 23.3812 9.46072 23.5471C9.29032 23.0416 9.03862 23.0416 8.78572 22.6198L7.01782 19.589L6.93102 19.5057L4.40592 20.4298ZM15.5254 23.4637C17.0408 23.2945 20.0713 21.357 20.5767 20.347L17.8813 19.5057C17.4626 20.0111 17.21 20.9383 16.8713 21.6099L15.5254 23.4637ZM7.01782 4.34209C7.35312 3.92339 7.52232 2.99619 8.11112 2.15199C8.28062 1.81609 8.53322 1.48078 8.70242 1.14198C9.03862 0.720182 9.20782 0.72019 9.46072 0.30069C7.77522 0.553289 4.82772 2.32118 4.40592 3.41458L7.01782 4.34209ZM17.8813 4.34209L20.5767 3.41458C20.0713 2.32118 17.1241 0.553289 15.5254 0.30069C15.6912 0.72019 16.6187 1.48078 17.3767 3.16278L17.8813 4.34209ZM13.2486 22.8758C14.0925 22.6198 14.7671 21.9483 15.1866 21.2737C15.6087 20.6858 16.2825 19.6724 16.1966 19.0011L13.2486 18.8311V22.8758ZM8.78572 19.0011C8.70242 19.5057 9.46072 20.8516 9.79572 21.2737C10.2178 21.9483 10.8924 22.7066 11.7332 22.8758V18.7483L8.78572 19.0011ZM13.2486 5.01669L16.1966 4.76408C16.2825 4.17538 15.6087 3.07949 15.1866 2.49069C14.7671 1.89939 14.0925 1.14198 13.2486 0.972778V5.01669ZM11.7332 0.972778C10.8924 1.14198 10.2178 1.89939 9.79572 2.49069C9.37392 3.07949 8.78572 4.17538 8.78572 4.76408L11.7332 5.01669V0.972778Z" fill="white"/>
</svg>
