<svg width="21" height="23" viewBox="0 0 21 23" fill="none" xmlns="http://www.w3.org/2000/svg">
<path fill-rule="evenodd" clip-rule="evenodd" d="M4.4334 1.21097L4.42831 1.29736L4.16431 1.28207L4.15921 1.36906L3.9826 1.35918L3.97731 1.44957L3.80321 1.43967L3.79811 1.52586L3.70831 1.52077L3.70341 1.60777L3.61641 1.60297L3.61101 1.69257L3.52141 1.68747L3.34711 1.67747L3.342 1.76457L3.25241 1.75948L3.2473 1.84647L3.16031 1.84137L3.1552 1.93117L2.97831 1.92097L2.97321 2.00838L2.88621 2.00317L2.88111 2.09027L2.79491 2.08546L2.78981 2.17497L2.78471 2.26227L2.69401 2.25687L2.68921 2.34427L2.60191 2.33917L2.59681 2.42867L2.5106 2.42387L2.41991 2.41878L2.41001 2.59286L2.3238 2.58797L2.31871 2.67757L2.23141 2.67278L2.22661 2.75977L2.13671 2.75467L2.1265 2.93156L2.03951 2.92647L2.02931 3.10336L1.94231 3.09827L1.93721 3.18558L1.84731 3.18018L1.83741 3.35707L1.7501 3.35226L1.74021 3.52547L1.6531 3.52057L1.64771 3.61107L1.55821 3.60597L1.54831 3.77937L1.46091 3.77428L1.4558 3.86388L1.36631 3.85876L1.35101 4.12297L1.26391 4.11787L1.25371 4.29187L1.16671 4.28706L1.14631 4.64087L1.05671 4.63547L1.04141 4.89967L0.940207 6.65938L0.920105 7.01038L1.01001 7.01578L0.989805 7.36577L1.07691 7.37086L1.06151 7.63817L1.14861 7.64326L1.1335 7.90717L1.22311 7.91237L1.21321 8.08577L1.30051 8.09067L1.28521 8.35477L1.3751 8.35986L1.36971 8.44946L1.45701 8.45457L1.45191 8.54156L1.53891 8.54668L1.5239 8.81067L1.61341 8.81596L1.60351 8.99257L1.59331 9.16698L1.6806 9.17207L1.67521 9.26157L1.76261 9.26668L1.75261 9.43987L1.84221 9.44527L1.83201 9.62308L1.91901 9.62787L1.90911 9.80476L1.99531 9.80988L1.98511 9.98666L2.07581 9.99178L2.07071 10.078L2.15691 10.0831L2.14661 10.2609L2.234 10.2657L2.22891 10.3521L2.3196 10.3572L2.30431 10.6211L2.29431 10.798L2.38051 10.8031L2.37541 10.8901L2.46241 10.8952L2.45761 10.9823L2.5472 10.9874L2.53701 11.1643L2.62431 11.1694L2.61921 11.2564L2.70621 11.2615L2.69631 11.4384L2.78591 11.4435L2.77081 11.7074L2.85791 11.7125L2.85281 11.7987L2.94011 11.8035L2.93471 11.8942L3.02451 11.8993L3.01431 12.0762L3.0092 12.1635L3.09651 12.1683L3.08631 12.3452L3.17621 12.3503L3.17111 12.4367L3.25811 12.4415L3.25331 12.5289L3.34031 12.5337L3.3301 12.7106L3.42001 12.7157L3.41491 12.803L3.50191 12.8078L3.49201 12.9847L3.57901 12.9898L3.57391 13.0768L3.66371 13.0819L3.65351 13.2588L3.74061 13.2639L3.73571 13.3509L3.73041 13.4408L3.81771 13.4456L3.8126 13.5329L3.9024 13.538L3.89731 13.625L3.98431 13.6301L3.97411 13.807L4.06061 13.8118L4.05551 13.8991L4.14621 13.9042L4.13601 14.0811L4.22221 14.0859L4.30921 14.091L4.29901 14.2679L4.38971 14.273L4.3849 14.3595L4.47111 14.3643L4.46091 14.542L4.5479 14.5471L4.53771 14.724L4.62751 14.7291L4.61761 14.9023L4.70461 14.9074L4.79171 14.9125L4.78661 15.0029L4.87641 15.0083L4.87131 15.0945L4.95831 15.0993L4.95351 15.1866L5.04051 15.1914L5.03541 15.2813L5.12531 15.2864L5.11511 15.4607L5.20241 15.4655L5.19701 15.5554L5.28691 15.5605L5.27691 15.7348L5.45101 15.7448L5.44081 15.9216L5.53061 15.9267L5.52551 16.0141L5.61291 16.0189L5.60751 16.1087L5.69481 16.1138L5.6897 16.2009L5.7795 16.206L5.77441 16.293L5.86141 16.2981L5.85121 16.475L5.93771 16.4798L6.0281 16.4852L6.02331 16.5713L6.01821 16.6621L6.10521 16.6669L6.10011 16.7533L6.18661 16.7581L6.17611 16.9359L6.35301 16.9461L6.34821 17.0323L6.43521 17.0374L6.425 17.2142L6.51571 17.2193L6.5106 17.3064L6.59701 17.3115L6.6841 17.3166L6.67901 17.4061L6.76851 17.4112L6.76371 17.4986L6.75861 17.5856L6.84561 17.5907L6.84051 17.6803L6.92761 17.6854L6.92271 17.7724L7.01231 17.7775L7.00241 17.9544L7.08941 17.9595L7.0843 18.0465L7.17131 18.0516L7.16651 18.1386L7.25611 18.1437L7.3434 18.1488L7.33831 18.2387L7.42791 18.2438L7.42281 18.3308L7.51011 18.3359L7.505 18.4229L7.49991 18.5128L7.58691 18.5176L7.58211 18.6049L7.67171 18.61L7.66681 18.6962L7.75391 18.7013L7.74881 18.792L7.83581 18.7968L7.83071 18.8838L7.92051 18.8892L8.00761 18.8941L8.00271 18.9805L8.08891 18.9853L8.08381 19.076L8.26151 19.0862L8.25131 19.2631L8.33751 19.2679L8.33241 19.355L8.42311 19.3604L8.41291 19.5372L8.49911 19.5421L8.49431 19.6282L8.67111 19.6384L8.66601 19.7257L8.75311 19.7306L8.84041 19.7357L8.835 19.8255L8.92491 19.8306L8.91971 19.9176L9.0071 19.9227L9.00201 20.0098L8.99691 20.0996L9.08391 20.1044L9.07911 20.1918L9.16861 20.1969L9.16351 20.2839L9.2508 20.289L9.24571 20.3786L9.50961 20.3939L9.4994 20.5679L9.58931 20.5733L9.76361 20.5832L9.75341 20.7601L9.93031 20.7703L9.92521 20.8573L9.9201 20.9472L10.097 20.9574L10.0871 21.1306L10.2603 21.1405L10.2551 21.2312L10.3459 21.2363L10.3408 21.3236L10.4278 21.3284L10.4227 21.4183L10.5089 21.4231L10.5996 21.4285L10.5945 21.5155L10.6806 21.5204L10.6758 21.6068L10.7628 21.6116L10.7577 21.7023L10.9346 21.7125L10.9295 21.7987L11.1064 21.8089L11.1016 21.8959L11.2756 21.9061L11.2705 21.9966L11.3601 22.0017L11.3553 22.0881L11.4423 22.0929L11.4375 22.1803L11.6141 22.1905L11.791 22.2004L11.7859 22.2902L12.0498 22.3055L12.0449 22.3926L12.3089 22.4076L12.3037 22.4949L12.5679 22.5099L12.5626 22.5998L12.8267 22.6148L12.8216 22.7021L13.5229 22.7424L13.5178 22.8294L14.2228 22.8699L14.2276 22.7829L14.4045 22.7928L14.4096 22.7058L14.6735 22.7211L14.6786 22.6312L14.6837 22.5442L14.8606 22.5544L14.8654 22.4671L15.0389 22.477L15.044 22.3875L15.1347 22.3926L15.3978 22.4079L15.4029 22.3206L15.4899 22.3257L15.4947 22.2395L15.582 22.2443L15.5871 22.1539L15.677 22.159L15.6818 22.072L15.7691 22.0768L15.7739 21.9906L15.9508 22.0008L15.9559 21.9101L16.0432 21.9152L16.048 21.829L16.1379 21.8341L16.1427 21.7471L16.317 21.757L16.3221 21.6672L16.412 21.6723L16.4171 21.5853L16.5041 21.5904L16.5092 21.4997L16.6861 21.5099L16.6912 21.4237L16.7782 21.4285L16.7833 21.3415L16.8704 21.3466L16.8755 21.2567L16.9653 21.2618L16.9701 21.1748L17.0574 21.1799L17.0623 21.0926L17.1487 21.0977L17.1538 21.0078L17.2443 21.0132L17.2494 20.9259L17.3355 20.931L17.3406 20.844L17.4277 20.8488L17.4328 20.7592L17.5235 20.7644L17.5286 20.6773L17.6147 20.6821L17.6198 20.5951L17.7069 20.5999L17.7171 20.4233L17.8066 20.4284L17.8117 20.3411L17.8988 20.3462L17.9042 20.2567L17.9912 20.2615L17.9963 20.1745L18.0011 20.0883L18.091 20.0934L18.0961 20.0027L18.1831 20.0078L18.1882 19.9216L18.2752 19.9264L18.2854 19.7487L18.3753 19.7538L18.3801 19.6676L18.4674 19.6727L18.4773 19.4958L18.5672 19.5009L18.5825 19.237L18.6695 19.2421L18.7404 18.0094L18.6534 18.0043L18.6735 17.6542L18.5836 17.6491L18.604 17.2945L18.5167 17.2894L18.5218 17.2032L18.432 17.1981L18.4422 17.0212L18.3551 17.0161L18.3651 16.8418L18.278 16.8369L18.2883 16.6601L18.1984 16.655L18.2086 16.4781L18.2137 16.3908L18.1264 16.386L18.1315 16.2987L18.0445 16.2938L18.0547 16.1169L17.9648 16.1118L17.9699 16.0245L17.8826 16.0197L17.8928 15.8428L17.8066 15.8377L17.8115 15.7516L17.721 15.7465L17.7261 15.6558L17.6391 15.6507L17.6439 15.5636L17.5578 15.5588L17.5629 15.4724L17.4722 15.4672L17.4773 15.3765L17.4824 15.2904L17.3962 15.2855L17.401 15.1982L17.314 15.1934L17.3191 15.1027L17.2295 15.0976L17.2397 14.9207L17.1524 14.9156L17.1575 14.8295L17.0705 14.8244L16.9806 14.8192L16.9857 14.7322L16.8984 14.7271L16.9038 14.6373L16.8165 14.6324L16.8216 14.5454L16.7317 14.54L16.7369 14.453L16.742 14.3632L16.6549 14.3583L16.6597 14.271L16.5727 14.2662L16.5778 14.1789L16.4009 14.169L16.406 14.0791L16.3162 14.074L16.2292 14.0689L16.2343 13.9819L16.1472 13.9768L16.1521 13.8898L15.9752 13.8796L15.9803 13.7897L15.9854 13.7027L15.8984 13.6976L15.9035 13.6106L15.7266 13.6004L15.7317 13.5108L15.6455 13.5057L15.6503 13.4187L15.4726 13.4084L15.4777 13.3223L15.3008 13.3121L15.3059 13.2214L15.2197 13.2165L14.8685 13.1961L14.8736 13.1091L14.6097 13.0941L14.6146 13.0076L13.3829 12.937L13.3778 13.0232L13.2009 13.013L13.1961 13.1L13.1088 13.0952L12.8449 13.0799L12.8398 13.1706L12.7499 13.1655L12.7451 13.2517L12.6578 13.2466L12.653 13.3339L12.4761 13.3237L12.4659 13.5006L12.2916 13.4904L12.2867 13.5777L12.1969 13.5723L12.1918 13.6621L12.1048 13.657L12.0997 13.7444L12.0098 13.739L12.005 13.8263L11.9177 13.8212L11.8306 13.8161L11.8255 13.9059L11.7357 13.9008L11.7309 13.9878L11.5565 13.9779L11.5514 14.0649L11.4619 14.0598L11.4565 14.1497L11.2824 14.1395L11.2773 14.2265L11.1877 14.2214L11.1826 14.3087L11.0956 14.3036L11.0902 14.3935L11.0854 14.4805L10.9085 14.4703L10.8224 14.4655L10.8173 14.5517L10.4663 14.5315L10.4711 14.4451L10.3813 14.44L10.2943 14.4349L10.2994 14.3478L10.2123 14.343L10.2174 14.2532L10.1276 14.2481L10.1327 14.1608L10.0454 14.1559L10.0505 14.0686L9.87361 14.0587L9.87871 13.9689L9.79171 13.9638L9.79681 13.8767L9.61991 13.8665L9.62501 13.7795L9.53771 13.7744L9.54281 13.6848L9.45321 13.6794L9.36591 13.6746L9.37101 13.5873L9.28401 13.5825L9.28911 13.4952L9.19921 13.4901L9.20431 13.4005L9.11731 13.3954L9.12211 13.3084L9.03511 13.3033L9.04021 13.2163L8.95041 13.2112L8.95551 13.1213L8.86841 13.1162L8.87351 13.0292L8.78741 13.0241L8.79221 12.9379L8.70151 12.9328L8.70691 12.8421L8.62041 12.8373L8.62551 12.75L8.53851 12.7451L8.54331 12.659L8.45291 12.6536L8.45801 12.5629L8.37181 12.5581L8.37661 12.4719L8.28961 12.4668L8.29471 12.3798L8.20491 12.3747L8.21 12.2848L8.12291 12.2797L8.12801 12.1927L8.04071 12.1876L8.04611 12.0971L7.95631 12.0918L7.9614 12.0056L7.87401 12.0008L7.87911 11.9135L7.79211 11.9086L7.80711 11.6444L7.71731 11.6393L7.72271 11.5498L7.63541 11.5447L7.6405 11.4576L7.55061 11.4523L7.56081 11.2757L7.47381 11.2706L7.47891 11.1835L7.39161 11.1784L7.39671 11.0914L7.30681 11.086L7.31221 10.9964L7.22491 10.9913L7.23001 10.9043L7.14301 10.8992L7.15291 10.7223L7.16311 10.5491L7.07331 10.544L7.08351 10.3663L6.91031 10.3561L6.91511 10.2699L6.82441 10.2648L6.83461 10.0879L6.74761 10.0828L6.76261 9.81886L6.6764 9.81407L6.68661 9.63718L6.59591 9.63177L6.60101 9.54477L6.5148 9.53967L6.52501 9.36307L6.43771 9.35797L6.453 9.09407L6.47321 8.74287L6.73711 8.75816L6.74221 8.66837L7.09251 8.68848L7.09761 8.60147L7.18471 8.60628L7.18951 8.51917L7.36641 8.52946L7.37171 8.43958L7.5486 8.44977L7.55861 8.27657L7.82251 8.29156L7.82761 8.20087L7.91491 8.20596L7.91971 8.11977L8.00951 8.12488L8.09661 8.13007L8.10171 8.04297L8.18871 8.04778L8.19381 7.95708L8.28371 7.96246L8.28851 7.87607L8.3758 7.88116L8.38091 7.79047L8.46791 7.79558L8.47301 7.70937L8.5626 7.71448L8.56771 7.62747L8.65471 7.63226L8.66011 7.54187L8.74631 7.54668L8.75111 7.46046L8.84181 7.46558L8.84691 7.37857L8.93391 7.38367L8.939 7.29378L8.94411 7.20677L9.03031 7.21156L9.10631 5.89267L9.01981 5.88777L9.03511 5.62387L9.04531 5.44707L8.95801 5.44197L8.96821 5.26508L8.87781 5.25996L8.89281 4.99577L8.80661 4.99097L8.8217 4.72707L8.73461 4.72197L8.74461 4.54787L8.65501 4.54247L8.67001 4.27856L8.58301 4.27347L8.58811 4.18387L8.50111 4.17877L8.50621 4.09177L8.41631 4.08667L8.42651 3.90977L8.33951 3.90466L8.34941 3.73148L8.35451 3.64078L8.26751 3.63567L8.27231 3.54947L8.1827 3.54437L8.19291 3.36667L8.10561 3.36157L8.11581 3.18468L8.02631 3.17957L8.03111 3.09348L7.94411 3.08836L7.94891 3.00127L7.86191 2.99617L7.86701 2.90668L7.7774 2.90128L7.78221 2.81416L7.69521 2.80907L7.70031 2.72208L7.61301 2.71696L7.61841 2.62737L7.62321 2.54037L7.53361 2.53497L7.53841 2.44797L7.45141 2.44287L7.4565 2.35327L7.37031 2.34818L7.37541 2.26117L7.28471 2.25607L7.28981 2.16878L7.20251 2.16397L7.2079 2.07407L7.03101 2.06387L7.03581 1.97687L6.94971 1.97177L6.95481 1.88477L6.86751 1.87967L6.87291 1.79007L6.696 1.77988L6.70081 1.69287L6.61381 1.68777L6.61891 1.60158L6.52901 1.59647L6.53411 1.50577L6.27021 1.49046L6.2753 1.40337L6.10101 1.39346L6.10611 1.30727L6.11121 1.21657L5.93431 1.20638L5.93941 1.12027L5.76251 1.11008L5.23441 1.07967L4.97051 1.06438L4.96571 1.15086L4.6153 1.13068L4.61021 1.22118L4.4334 1.21097ZM15.3552 3.16206L15.5321 3.17227L15.527 3.25928L15.6143 3.26437L15.6092 3.35136L15.6991 3.35648L15.6889 3.53337L15.8621 3.54356L15.8573 3.62978L15.948 3.63487L15.9426 3.72557L16.0288 3.73038L16.0239 3.81657L16.111 3.82167L16.1059 3.91237L16.1963 3.91747L16.4596 3.93277L16.4545 4.01978L16.5415 4.02487L16.5367 4.11107L16.6237 4.11588L16.6186 4.20657L16.7082 4.21167L16.7034 4.29817L16.7904 4.30296L16.7853 4.38997L16.8726 4.39507L16.8672 4.48576L16.8624 4.57198L16.9523 4.57707L16.9472 4.66437L17.0342 4.66917L17.0291 4.75906L17.119 4.76418L17.1139 4.85117L17.2882 4.86137L17.278 5.03827L17.3676 5.04337L17.3627 5.13037L17.4498 5.13547L17.4447 5.22256L17.532 5.22768L17.5218 5.40446L17.6113 5.40958L17.6065 5.49667L17.6011 5.58647L17.6884 5.59128L17.6833 5.67867L17.7704 5.68347L17.7604 5.86037L17.85 5.86546L17.8452 5.95277L17.9322 5.95757L17.9271 6.04398L18.0136 6.04887L17.998 6.31638L18.0887 6.32147L18.0788 6.49496L18.1649 6.49977L18.1598 6.59058L18.2469 6.59537L18.2318 6.85867L18.3223 6.86377L18.3123 7.03807L18.3021 7.21468L18.3883 7.21977L18.3733 7.48376L18.4603 7.48888L18.4453 7.75278L18.5349 7.75787L18.5147 8.10817L18.602 8.11298L18.5615 8.81798L18.6485 8.82277L18.5323 10.8468L18.6219 10.8519L18.6117 11.0288L18.699 11.0336L18.6939 11.1209L18.7809 11.1257L18.7758 11.2164L18.9527 11.2266L18.9428 11.3998L19.4706 11.4304L19.4757 11.3431L19.6526 11.3533L19.6574 11.2672L19.8343 11.2774L19.8397 11.1867L19.9267 11.1918L19.9366 11.0183L20.0228 11.0234L20.033 10.8465L20.1237 10.8516L20.1591 10.2339L20.2453 10.239L20.3213 8.91887L20.2351 8.91408L20.2603 8.47327L20.1696 8.46786L20.205 7.85397L20.1189 7.84888L20.1339 7.58487L20.0469 7.57977L20.067 7.22887L19.9763 7.22377L19.9916 6.95956L19.9054 6.95477L19.9204 6.69177L19.9306 6.51488L19.8433 6.50977L19.8538 6.33197L19.764 6.32687L19.7742 6.15007L19.6869 6.14487L19.7022 5.88187L19.6151 5.87708L19.62 5.78976L19.5304 5.78467L19.5352 5.69757L19.4482 5.69247L19.4584 5.51567L19.3711 5.51077L19.3813 5.33397L19.2917 5.32857L19.3016 5.15446L19.2146 5.14937L19.2248 4.97247L19.2296 4.88547L19.1401 4.88037L19.1452 4.79057L19.0581 4.78568L19.063 4.69836L18.9759 4.69357L18.9861 4.51668L18.8963 4.51128L18.9014 4.42427L18.8141 4.41917L18.8192 4.33298L18.7322 4.32817L18.7373 4.23747L18.6474 4.23238L18.6525 4.14597L18.5655 4.14107L18.5703 4.05408L18.4841 4.04897L18.4892 3.95827L18.4994 3.78137L18.409 3.77628L18.4138 3.69006L18.2406 3.68018L18.2506 3.50327L18.1601 3.49797L18.17 3.32387L17.9969 3.31396L18.002 3.22408L17.9121 3.21896L17.9172 3.13197L17.7429 3.12177L17.7531 2.94487L17.6632 2.93977L17.6683 2.85277L17.5813 2.84767L17.5861 2.76067L17.4991 2.75557L17.5042 2.66597L17.4146 2.66057L17.4194 2.57358L17.2454 2.56367L17.2502 2.47636L17.1606 2.47118L17.1657 2.38167L17.0787 2.37657L16.9889 2.37148L16.994 2.28416L16.9066 2.27927L16.9117 2.19318L16.8247 2.18806L16.8298 2.09737L16.6529 2.08717L16.658 2.00008L16.4812 1.98987L16.486 1.90378L16.3128 1.89377L16.3179 1.80307L16.1402 1.79288L16.1453 1.70667L16.0588 1.70157L16.0639 1.61456L15.887 1.60437L15.8924 1.51398L15.7155 1.50377L15.6282 1.49867L15.6333 1.41248L15.3694 1.39717L15.3745 1.30678L15.2875 1.30167L15.2923 1.21547L14.9386 1.19507L14.9437 1.10808L14.8566 1.10297L14.8617 1.01308L14.508 0.992966L14.5131 0.90567L14.4258 0.900864L14.4309 0.813477L13.9901 0.788269L13.9952 0.698669L13.7313 0.683365L12.4993 0.612564L12.4123 0.607773L12.4072 0.697266L12.3199 0.692474L12.3151 0.779465L12.2252 0.774368L12.215 0.951263L12.128 0.946167L12.1127 1.21007L12.1028 1.38696L12.0875 1.65086L12.1745 1.65598L12.1646 1.82918L12.2544 1.83456L12.249 1.92497L12.3363 1.93007L12.3312 2.01627L12.4186 2.02138L12.4134 2.10837L12.7672 2.12877L13.208 2.15407L13.2029 2.24387L13.64 2.26907L13.6352 2.35617L13.8129 2.36636L13.8078 2.45337L14.0709 2.46837L14.0658 2.55827L14.3297 2.57358L14.3249 2.66057L14.5888 2.67557L14.5837 2.76286L14.7605 2.77307L14.7554 2.86267L14.9323 2.87286L14.9272 2.95987L15.1015 2.97008L15.0964 3.05717L15.1863 3.06227L15.3603 3.07246L15.3552 3.16206Z" fill="white"/>
</svg>
