<svg width="86" height="157" viewBox="0 0 86 157" fill="none" xmlns="http://www.w3.org/2000/svg">
<path fill-rule="evenodd" clip-rule="evenodd" d="M62.3387 100.24C60.5101 101.093 58.2756 101.73 56.1966 102.505C53.9632 103.338 51.9019 104.005 49.7875 104.816L40.4213 108.217C39.5921 108.517 38.0504 109.011 37.236 109.391V59.9736C40.6228 60.2477 45.5506 63.6663 48.0876 65.5918C53.8374 69.9566 58.1891 79.5868 60.0781 86.2703C60.9217 89.2549 62.2633 96.9541 62.3387 100.24ZM81.7935 126.474C82.5262 125.502 82.3162 126.226 83.0487 125.254C82.7632 124.935 82.9832 125.207 82.6495 124.727L79.4611 119.59C78.7015 118.362 76.2455 114.832 76.1455 113.662C77.3641 113.564 78.115 113.187 78.9693 112.747C78.9693 101.392 76.055 86.1524 73.3905 75.4638C72.6841 72.6291 71.6253 69.8523 70.8775 67.23C70.068 64.3914 69.1439 61.9215 68.0806 59.2726C67.0267 56.6468 65.9779 54.2135 64.8449 51.7411C64.2924 50.5349 63.5781 49.2714 62.9666 48.0763C62.2965 46.7661 61.6593 45.8429 60.975 44.5216L56.8806 37.8251C55.3304 35.5698 53.9374 33.6921 52.2545 31.6461C43.1062 20.5249 34.3767 13.9528 21.0071 8.33447C19.1937 7.57257 14.4902 5.84 12.4467 5.6748V122.204L24.2706 129.622C29.1246 132.406 25.6108 132.099 37.9809 127.809C40.3858 126.974 65.1127 117.663 66.7319 117.628C67.0443 118.932 72.8434 128.53 73.9489 130.135C75.3809 130.019 75.7446 128.955 77.6169 132.365C79.3778 135.572 81.3595 145.692 73.9489 145.692C70.0396 145.692 68.9109 145.682 65.0521 144.58C57.3478 142.38 50.6827 142.685 43.5068 146.298C34.5201 150.823 34.5082 156.369 40.0598 156.369C41.7201 156.369 42.2584 155.17 43.3259 154.358C48.0757 150.746 51.1941 149.658 57.6321 149.658C62.0748 149.658 68.1024 153.845 76.2835 152.232C82.0925 151.088 85.8728 146.292 85.8728 139.591C85.8728 135.313 85.0406 128.588 81.7935 126.474ZM0.522827 0.183777V122.204H6.48493V0.183777H0.522827Z" fill="#2F9EBF"/>
</svg>
