<svg width="213" height="365" viewBox="0 0 213 365" fill="none" xmlns="http://www.w3.org/2000/svg">
<path d="M63.9751 360.763L65.3652 360.638C65.4304 361.201 65.5841 361.661 65.8261 362.023C66.0682 362.382 66.4431 362.674 66.9507 362.898C67.4584 363.119 68.0312 363.231 68.6665 363.231C69.2314 363.231 69.7286 363.148 70.1606 362.979C70.5929 362.81 70.9132 362.578 71.1241 362.283C71.3347 361.989 71.4417 361.669 71.4417 361.326C71.4417 360.977 71.3401 360.672 71.1369 360.409C70.9339 360.149 70.5981 359.93 70.1295 359.75C69.8302 359.636 69.1662 359.454 68.1378 359.206C67.1097 358.959 66.3912 358.727 65.9799 358.509C65.4461 358.227 65.0503 357.879 64.7898 357.465C64.527 357.051 64.3969 356.585 64.3969 356.072C64.3969 355.504 64.5582 354.976 64.8785 354.486C65.1986 353.994 65.6646 353.622 66.2817 353.367C66.8959 353.112 67.5808 352.984 68.3331 352.984C69.1611 352.984 69.8924 353.117 70.5251 353.385C71.1578 353.651 71.6445 354.044 71.9858 354.564C72.3268 355.083 72.5091 355.671 72.5349 356.327L71.1136 356.436C71.0379 355.731 70.7803 355.197 70.3403 354.838C69.9004 354.476 69.2495 354.296 68.3904 354.296C67.4949 354.296 66.8415 354.46 66.4328 354.788C66.024 355.116 65.8182 355.512 65.8182 355.975C65.8182 356.377 65.9643 356.707 66.2531 356.967C66.5394 357.225 67.2816 357.493 68.4843 357.764C69.687 358.037 70.5122 358.274 70.9601 358.477C71.6084 358.777 72.0899 359.154 72.3997 359.615C72.7095 360.073 72.8633 360.602 72.8633 361.201C72.8633 361.797 72.6939 362.354 72.3526 362.88C72.0116 363.406 71.5249 363.814 70.8871 364.106C70.2493 364.398 69.5333 364.543 68.7339 364.543C67.7239 364.543 66.8778 364.395 66.1958 364.101C65.5109 363.806 64.9775 363.364 64.5894 362.77C64.1991 362.179 63.9958 361.51 63.9751 360.763ZM76.1329 364.356V353.172H84.2088V354.484H77.6169V357.92H83.787V359.233H77.6169V363.044H84.4742V364.356H76.1329ZM87.7755 364.356V353.172H92.7323C93.7293 353.172 94.4871 353.273 95.0052 353.474C95.5231 353.674 95.9372 354.028 96.247 354.536C96.5565 355.043 96.7102 355.606 96.7102 356.22C96.7102 357.014 96.4526 357.683 95.9398 358.227C95.427 358.772 94.6356 359.115 93.563 359.264C93.9561 359.451 94.2528 359.638 94.4558 359.821C94.8878 360.216 95.2965 360.714 95.6792 361.31L97.6136 364.356H95.7654L94.2867 362.028C93.8572 361.354 93.5003 360.841 93.222 360.485C92.9408 360.128 92.6906 359.881 92.4693 359.737C92.2507 359.597 92.0243 359.498 91.7953 359.441C91.6286 359.407 91.3553 359.389 90.9724 359.389H89.2593V364.356H87.7755ZM89.2593 358.108H92.4355C93.1124 358.108 93.6383 358.037 94.0184 357.897C94.3985 357.759 94.6875 357.535 94.8828 357.225C95.0806 356.918 95.1795 356.585 95.1795 356.223C95.1795 355.694 94.9895 355.257 94.6069 354.916C94.2239 354.575 93.6201 354.406 92.7947 354.406H89.2593V358.108ZM103.154 364.356L98.8322 353.172H100.436L103.341 361.3C103.573 361.95 103.771 362.56 103.927 363.13C104.099 362.518 104.299 361.909 104.528 361.3L107.543 353.172H109.053L104.692 364.356H103.154ZM111.86 364.356V353.172H113.344V364.356H111.86ZM125.14 360.432L126.624 360.807C126.314 362.023 125.757 362.947 124.952 363.585C124.148 364.223 123.164 364.543 122 364.543C120.797 364.543 119.818 364.299 119.063 363.806C118.308 363.317 117.736 362.606 117.342 361.677C116.949 360.745 116.751 359.748 116.751 358.681C116.751 357.517 116.973 356.501 117.418 355.634C117.863 354.768 118.496 354.109 119.316 353.658C120.136 353.208 121.039 352.984 122.023 352.984C123.143 352.984 124.083 353.268 124.843 353.838C125.606 354.408 126.137 355.208 126.436 356.239L124.984 356.582C124.726 355.77 124.348 355.176 123.856 354.806C123.364 354.434 122.744 354.249 121.997 354.249C121.141 354.249 120.422 354.455 119.847 354.867C119.272 355.278 118.866 355.832 118.634 356.525C118.4 357.22 118.282 357.936 118.282 358.673C118.282 359.623 118.42 360.453 118.696 361.161C118.972 361.872 119.402 362.401 119.985 362.752C120.568 363.103 121.198 363.278 121.878 363.278C122.705 363.278 123.403 363.039 123.976 362.562C124.549 362.083 124.936 361.375 125.14 360.432ZM129.709 364.356V353.172H137.785V354.484H131.193V357.92H137.363V359.233H131.193V363.044H138.05V364.356H129.709ZM140.836 360.763L142.226 360.638C142.291 361.201 142.445 361.661 142.687 362.023C142.929 362.382 143.304 362.674 143.811 362.898C144.319 363.119 144.892 363.231 145.527 363.231C146.092 363.231 146.589 363.148 147.021 362.979C147.454 362.81 147.774 362.578 147.985 362.283C148.195 361.989 148.302 361.669 148.302 361.326C148.302 360.977 148.201 360.672 147.997 360.409C147.795 360.149 147.459 359.93 146.99 359.75C146.691 359.636 146.027 359.454 144.998 359.206C143.97 358.959 143.252 358.727 142.84 358.509C142.307 358.227 141.911 357.879 141.65 357.465C141.388 357.051 141.258 356.585 141.258 356.072C141.258 355.504 141.419 354.976 141.739 354.486C142.059 353.994 142.525 353.622 143.142 353.367C143.757 353.112 144.441 352.984 145.194 352.984C146.022 352.984 146.753 353.117 147.386 353.385C148.018 353.651 148.505 354.044 148.846 354.564C149.187 355.083 149.37 355.671 149.396 356.327L147.974 356.436C147.899 355.731 147.641 355.197 147.201 354.838C146.761 354.476 146.11 354.296 145.251 354.296C144.356 354.296 143.702 354.46 143.293 354.788C142.885 355.116 142.679 355.512 142.679 355.975C142.679 356.377 142.825 356.707 143.114 356.967C143.4 357.225 144.142 357.493 145.345 357.764C146.548 358.037 147.373 358.274 147.821 358.477C148.469 358.777 148.95 359.154 149.26 359.615C149.57 360.073 149.724 360.602 149.724 361.201C149.724 361.797 149.555 362.354 149.213 362.88C148.872 363.406 148.386 363.814 147.748 364.106C147.11 364.398 146.394 364.543 145.595 364.543C144.585 364.543 143.738 364.395 143.056 364.101C142.372 363.806 141.838 363.364 141.45 362.77C141.06 362.179 140.856 361.51 140.836 360.763Z" fill="#2C2E35"/>
<path fill-rule="evenodd" clip-rule="evenodd" d="M105.758 78.0876C132.6 78.0876 156.419 91.0226 171.325 110.999L171.597 112.713L171.189 114.894L169.978 116.874L167.859 118.956L165.337 120.72L163.392 122.24L159.315 124.61C147.85 107.219 128.146 95.74 105.758 95.74C70.3535 95.74 41.652 124.441 41.652 159.846C41.652 195.251 70.3535 223.952 105.758 223.952C128.118 223.952 147.799 212.503 159.271 195.15L161.093 196.284L164.444 198.639L167.543 200.424L169.899 202.423L171.363 203.745L172.69 205.401L173.217 206.044C158.483 227.517 133.768 241.605 105.758 241.605C60.6043 241.605 23.9998 205 23.9998 159.846C23.9998 114.692 60.6043 78.0876 105.758 78.0876ZM151.185 57.5696C153.255 57.5696 154.932 59.242 154.932 61.3053C154.932 63.3684 153.255 65.0411 151.185 65.0411C149.116 65.0411 147.438 63.3684 147.438 61.3053C147.438 59.242 149.116 57.5696 151.185 57.5696Z" fill="#2F9EBF"/>
<path fill-rule="evenodd" clip-rule="evenodd" d="M152.346 58.5234C152.888 58.5234 153.326 58.9608 153.326 59.5002C153.326 60.04 152.888 60.4773 152.346 60.4773C151.805 60.4773 151.367 60.04 151.367 59.5002C151.367 58.9608 151.805 58.5234 152.346 58.5234Z" fill="white"/>
<path fill-rule="evenodd" clip-rule="evenodd" d="M107.984 42.3767C110.849 42.3767 113.171 44.6918 113.171 47.5477C113.171 50.4036 110.849 52.7186 107.984 52.7186C105.12 52.7186 102.798 50.4036 102.798 47.5477C102.798 44.6918 105.12 42.3767 107.984 42.3767Z" fill="#2F9EBF"/>
<path fill-rule="evenodd" clip-rule="evenodd" d="M109.592 43.6968C110.341 43.6968 110.948 44.3023 110.948 45.0492C110.948 45.7959 110.341 46.4013 109.592 46.4013C108.843 46.4013 108.236 45.7959 108.236 45.0492C108.236 44.3023 108.843 43.6968 109.592 43.6968Z" fill="white"/>
<path fill-rule="evenodd" clip-rule="evenodd" d="M64.3711 58.0364C66.4552 58.0364 68.1447 59.7208 68.1447 61.7986C68.1447 63.8766 66.4552 65.561 64.3711 65.561C62.2874 65.561 60.5979 63.8766 60.5979 61.7986C60.5979 59.7208 62.2874 58.0364 64.3711 58.0364Z" fill="#2F9EBF"/>
<path fill-rule="evenodd" clip-rule="evenodd" d="M66.8246 87.6253L71.4796 95.7011C71.6975 96.0793 68.8292 81.4815 70.5013 82.1697C72.1732 82.858 71.9243 87.0915 71.9243 87.0915L70.9617 85.1161C70.9617 85.1161 67.2713 87.0303 66.8246 87.6253Z" fill="#F0F0F1"/>
<path fill-rule="evenodd" clip-rule="evenodd" d="M173.874 197.792L174.412 198.432L174.895 199.279L175.235 200.511L175.34 201.688L175.388 203.101L178.35 197.82L181.359 191.685L184.716 182.983L186.539 176.157L187.91 168.66L188.46 163.588L188.198 156.187L187.924 152.186L186.993 146.398L186.576 143.872L186.196 141.875L185.485 139.352L184.559 136.214L183.154 132.493L181.758 129.361L180.552 127.258L178.589 123.633L177.049 120.739L175.302 117.847L174.64 116.737L174.533 117.578L174.346 119.008L174.168 119.982L173.606 120.903L172.737 121.989L171.634 123.167L170.09 124.454L168.168 126.026L166.157 127.569L163.589 129.312L161.636 130.751L159.653 132.162L158.487 133.031L157.584 133.809L157.006 134.582L156.434 135.885L156.13 137.332L156.117 138.569L156.256 140.128L156.924 141.65L157.779 143.965L158.573 146.163L159.309 148.391L159.872 150.856L160.259 153.324L160.47 155.853L160.504 158.444L160.534 160.681L160.451 163.274L160.241 165.22L159.921 167.639L159.533 169.558L159.034 171.861L158.704 173.573L158.255 175.228L157.397 177.124L156.714 178.841L156.319 180.142L156.459 181.847L156.714 183.258L157.322 184.721L158.396 185.767L160.182 187.216L162.622 189.068L164.641 190.395L167.199 192.304L169.574 193.744L171.539 195.366L172.761 196.441L173.874 197.792Z" fill="#2F9EBF"/>
<path d="M174.533 130.267C174.533 130.267 181.653 141.888 179.751 168.929M178.091 177.706C178.091 177.706 177.142 183.636 174.296 187.905" stroke="white" stroke-width="2.8346" stroke-miterlimit="22.9256"/>
<path fill-rule="evenodd" clip-rule="evenodd" d="M136.813 0.205994C137.651 2.08449 137.336 5.16799 139.327 5.84149L144.376 7.54938C142.442 8.36288 139.266 8.05679 138.572 9.98999L136.813 14.8928C135.975 13.0143 136.291 9.93076 134.3 9.25726L129.25 7.54938C131.185 6.73588 134.361 7.04197 135.054 5.10907L136.813 0.205994ZM33.9114 28.0646C35.0413 30.5979 34.6161 34.7563 37.3011 35.6646L44.1108 37.9674C41.5018 39.0644 37.2189 38.6517 36.2835 41.2587L33.9114 47.8703C32.7815 45.3369 33.2068 41.1788 30.5219 40.2706L23.7121 37.9674C26.3211 36.8704 30.604 37.2834 31.5394 34.6764L33.9114 28.0646ZM28.9409 83.6106C29.5444 84.963 29.3173 87.1834 30.7508 87.6681L34.3866 88.8978C32.9937 89.4834 30.7066 89.2632 30.2074 90.655L28.9409 94.185C28.3377 92.8323 28.5647 90.6122 27.1312 90.1274L23.4955 88.8978C24.8885 88.3121 27.1753 88.5324 27.6747 87.1406L28.9409 83.6106ZM88.877 11.7577C89.7149 13.636 89.3993 16.7198 91.3904 17.393L96.4403 19.1009C94.5054 19.9144 91.3295 19.6083 90.6361 21.5415L88.877 26.4443C88.0391 24.5658 88.3545 21.4823 86.3634 20.8087L81.3135 19.1009C83.2484 18.2873 86.4244 18.5935 87.118 16.6605L88.877 11.7577ZM157.805 31.1733C158.344 32.3809 158.141 34.3634 159.421 34.7963L162.667 35.8942C161.423 36.4174 159.382 36.2204 158.936 37.4634L157.805 40.6153C157.266 39.4074 157.469 37.4252 156.189 36.9923L152.943 35.8942C154.187 35.3712 156.228 35.5682 156.674 34.3252L157.805 31.1733ZM175.832 63.8931C176.67 65.7713 176.354 68.8551 178.345 69.5284L183.395 71.2362C181.46 72.0498 178.285 71.7436 177.591 73.6769L175.832 78.5797C174.994 76.7014 175.31 73.6176 173.319 72.9441L168.269 71.2362C170.203 70.4227 173.379 70.7291 174.073 68.7956L175.832 63.8931Z" fill="#2F9EBF"/>
<path fill-rule="evenodd" clip-rule="evenodd" d="M65.5407 58.9971C66.0855 58.9971 66.5274 59.4376 66.5274 59.981C66.5274 60.5244 66.0855 60.9646 65.5407 60.9646C64.9956 60.9646 64.554 60.5244 64.554 59.981C64.554 59.4376 64.9956 58.9971 65.5407 58.9971Z" fill="white"/>
<path fill-rule="evenodd" clip-rule="evenodd" d="M71.4796 96.1565C90.7552 70.6852 145.244 85.8707 145.244 85.8707L150.152 64.6559C150.152 64.6559 150.122 62.8139 148.034 64.9357C134.581 78.6055 119.313 71.7232 110.401 56.0065C109.389 54.2218 108.984 53.5038 108.496 52.675C107.839 51.5598 107.931 52.599 107.726 52.5503C107.208 52.4275 107.106 52.4516 106.827 52.4975C106.511 52.5497 107.263 52.5582 107.148 52.5486C106.854 52.5239 106.49 52.3555 105.787 52.264C105.646 52.2455 105.447 51.915 105.176 52.4921L102.448 58.3034C94.5925 75.0381 74.3054 73.3906 67.919 66.3224C60.7425 58.3797 70.7134 84.6297 71.4796 96.1565Z" fill="#2F9EBF"/>
<path d="M53.0444 260.68V296.397H44.9167L44.894 272.285L41.6656 296.397H35.9762L32.5672 272.827L32.5446 296.397H24.4171V260.68H36.4204C36.7588 262.84 37.1277 265.384 37.5266 268.289L38.8434 277.357L40.9581 260.68H53.0444ZM77.8799 260.68L83.1932 296.397H73.7033L73.1992 289.985H69.8503L69.3459 296.397H59.7359L64.4468 260.68H77.8799ZM72.9507 283.663C72.5068 279.615 72.0403 274.602 71.5436 268.62C70.6255 275.483 70.0461 280.495 69.7975 283.663H72.9507ZM109.504 271.517H100.88V268.876C100.88 267.641 100.767 266.851 100.548 266.513C100.33 266.174 99.9692 266.008 99.4572 266.008C98.9005 266.008 98.4791 266.234 98.1931 266.693C97.9071 267.145 97.7641 267.829 97.7641 268.755C97.7641 269.944 97.9296 270.84 98.2531 271.442C98.5691 272.036 99.4422 272.766 100.88 273.624C104.996 276.085 107.592 278.109 108.661 279.682C109.737 281.255 110.271 283.791 110.271 287.283C110.271 289.827 109.97 291.701 109.376 292.912C108.782 294.116 107.638 295.125 105.929 295.937C104.229 296.758 102.249 297.164 99.9843 297.164C97.5009 297.164 95.3861 296.69 93.6249 295.749C91.8714 294.809 90.7277 293.612 90.1783 292.16C89.6363 290.7 89.3654 288.63 89.3654 285.959V283.618H97.9897V287.96C97.9897 289.3 98.1103 290.158 98.3513 290.542C98.5919 290.925 99.0207 291.114 99.6378 291.114C100.255 291.114 100.714 290.873 101.015 290.384C101.316 289.902 101.467 289.18 101.467 288.231C101.467 286.132 101.181 284.755 100.609 284.115C100.014 283.468 98.5691 282.384 96.2666 280.864C93.9637 279.336 92.4435 278.222 91.6909 277.53C90.9459 276.838 90.3212 275.882 89.8322 274.663C89.3429 273.444 89.0946 271.886 89.0946 269.989C89.0946 267.258 89.4408 265.256 90.1407 263.992C90.8406 262.727 91.9619 261.741 93.5195 261.026C95.0774 260.311 96.9515 259.958 99.1562 259.958C101.565 259.958 103.611 260.349 105.312 261.124C107.005 261.907 108.127 262.885 108.676 264.074C109.225 265.256 109.504 267.265 109.504 270.102V271.517ZM136.981 260.68V267.815H131.518V296.397H122.216V267.815H116.707V260.68H136.981ZM144.177 260.68H159.665V267.815H153.479V274.633H159.258V281.406H153.479V289.262H160.297V296.397H144.177V260.68ZM168.012 260.68H174.582C178.962 260.68 181.927 260.846 183.477 261.184C185.027 261.523 186.292 262.389 187.27 263.781C188.248 265.165 188.738 267.385 188.738 270.426C188.738 273.203 188.391 275.069 187.699 276.025C187.014 276.981 185.652 277.552 183.62 277.741C185.456 278.2 186.698 278.809 187.33 279.577C187.962 280.337 188.354 281.044 188.504 281.684C188.662 282.324 188.738 284.085 188.738 286.967V296.397H180.113V284.514C180.113 282.602 179.963 281.421 179.662 280.962C179.368 280.502 178.585 280.277 177.314 280.277V296.397H168.012V260.68ZM177.314 266.776V274.723C178.352 274.723 179.075 274.58 179.488 274.294C179.903 274.008 180.113 273.075 180.113 271.502V269.538C180.113 268.401 179.91 267.656 179.511 267.303C179.112 266.949 178.375 266.776 177.314 266.776Z" fill="#2F9EBF"/>
<path d="M4.73334 314.376V337.345C4.73334 338.022 4.40994 338.451 3.76274 338.624C3.31854 338.744 2.70144 338.744 1.90384 338.624C1.48994 338.533 1.16624 338.714 0.932938 339.15C0.699638 339.504 0.579147 339.963 0.579147 340.52C0.579147 341.077 0.699638 341.551 0.932938 341.928C1.16624 342.311 1.48994 342.477 1.90384 342.417C4.71834 342.326 7.90925 342.281 11.4613 342.281C15.0435 342.281 18.1291 342.326 20.7103 342.417C21.9145 342.537 22.7271 342.492 23.1335 342.281C23.5171 342.048 23.7053 341.521 23.7053 340.701C23.5624 339.609 23.5474 337.954 23.6679 335.726C23.7506 334.199 23.9012 332.227 24.1041 329.819C24.1645 329.292 23.9686 328.886 23.5324 328.592C23.1486 328.329 22.6444 328.193 22.0273 328.193C21.3801 328.193 20.8457 328.329 20.4318 328.592C19.9653 328.886 19.7544 329.292 19.8147 329.819C19.8748 332.107 19.8899 333.724 19.8598 334.665C19.7694 335.862 19.5665 336.742 19.2428 337.307C18.8967 337.864 18.3246 338.225 17.5343 338.406C16.9172 338.548 15.8488 338.624 14.3286 338.624H12.8384C11.228 338.624 10.2044 338.579 9.76054 338.488C9.12084 338.315 8.79735 337.931 8.79735 337.345V314.376C8.79735 314.083 9.09075 313.887 9.67015 313.804C10.054 313.744 10.7615 313.714 11.8151 313.714L12.5977 313.759C13.1244 313.789 13.5459 313.594 13.8694 313.18C14.163 312.826 14.3059 312.374 14.3059 311.81C14.3059 311.253 14.163 310.794 13.8694 310.44C13.5459 310.026 13.117 309.868 12.5901 309.959C10.3323 310.072 8.27804 310.132 6.43414 310.132C4.55274 310.132 3.04024 310.072 1.89644 309.959C1.48994 309.868 1.16624 310.026 0.932938 310.44C0.699638 310.794 0.579147 311.253 0.579147 311.81C0.579147 312.374 0.699638 312.826 0.932938 313.18C1.16624 313.594 1.48994 313.789 1.90384 313.759L2.47585 313.714C3.21315 313.714 3.73244 313.744 4.02614 313.804C4.50004 313.887 4.73334 314.083 4.73334 314.376ZM41.9324 316.235L45.4995 327.832H38.3125L41.9324 316.235ZM33.7822 309.951C33.3683 309.891 33.0446 310.072 32.8113 310.485C32.578 310.832 32.4576 311.291 32.4576 311.848C32.4576 312.374 32.578 312.834 32.8113 313.217C33.0446 313.594 33.3683 313.774 33.7822 313.744C34.4897 313.744 35.2346 313.729 36.0323 313.699C36.8223 313.669 37.2966 313.654 37.4394 313.654L37.8386 313.699C38.1019 313.759 38.2374 313.902 38.2374 314.143C38.2374 314.286 38.147 314.685 37.9664 315.332L31.2687 337.036C31.0354 337.743 30.6666 338.21 30.17 338.451C29.7258 338.654 29.0863 338.714 28.2283 338.624C27.9122 338.563 27.6412 338.744 27.4382 339.15C27.265 339.504 27.1747 339.963 27.1747 340.52C27.1747 341.077 27.265 341.536 27.4382 341.89C27.6412 342.296 27.9122 342.492 28.2356 342.462C30.0268 342.311 31.6148 342.243 32.9922 342.243C34.3466 342.243 35.784 342.311 37.3116 342.462C37.7255 342.492 38.0642 342.296 38.3275 341.89C38.5308 341.536 38.6362 341.077 38.6362 340.52C38.6362 339.963 38.5308 339.504 38.3275 339.15C38.0642 338.744 37.7255 338.563 37.3116 338.624C36.6644 338.714 36.1678 338.639 35.8141 338.406C35.3401 338.142 35.212 337.683 35.4152 337.036L37.0933 331.625H46.741L48.4194 337.036C48.6227 337.683 48.4946 338.142 48.0206 338.406C47.6141 338.639 46.907 338.714 45.9061 338.624C45.4395 338.563 45.0707 338.744 44.8073 339.15C44.5664 339.504 44.4536 339.963 44.4536 340.52C44.4536 341.077 44.5664 341.536 44.8073 341.89C45.0707 342.296 45.4395 342.492 45.9061 342.462C47.5241 342.289 49.0966 342.198 50.6245 342.198C52.1821 342.198 53.8079 342.289 55.5161 342.462C55.8698 342.492 56.1631 342.296 56.3964 341.89C56.5997 341.536 56.7051 341.077 56.7051 340.52C56.7051 339.963 56.5997 339.504 56.3964 339.15C56.1631 338.744 55.8698 338.563 55.5161 338.624C54.4551 338.684 53.7478 338.624 53.4014 338.451C53.078 338.27 52.7992 337.803 52.5586 337.036L45.1083 312.954C44.8146 311.893 44.348 311.102 43.7009 310.568C43.1742 310.162 42.6095 309.951 42.0228 309.951L39.2457 309.996C38.1019 310.026 37.2215 310.041 36.6044 310.041C35.6034 310.041 34.6626 310.011 33.7822 309.951ZM63.2299 314.76V332.415C63.2299 336.268 64.2909 339.098 66.4055 340.889C68.1968 342.417 70.6726 343.184 73.8185 343.184C77.1373 343.184 79.6657 342.364 81.4042 340.716C83.3156 338.917 84.2715 336.163 84.2715 332.46V314.76C84.2715 314.263 84.4143 313.955 84.708 313.835C84.8886 313.744 85.2647 313.729 85.8518 313.789L86.0251 313.835C86.4389 313.865 86.77 313.661 87.0334 313.217C87.2366 312.834 87.342 312.367 87.342 311.802C87.342 311.246 87.2366 310.786 87.0334 310.433C86.77 310.057 86.4312 309.921 86.0173 310.041C84.6403 310.154 83.0975 310.2 81.3893 310.169C79.9519 310.139 78.6422 310.072 77.4684 309.951C77.0543 309.861 76.7458 310.026 76.5428 310.433C76.3393 310.786 76.2341 311.246 76.2341 311.802C76.2341 312.359 76.3393 312.834 76.5428 313.217C76.7458 313.624 77.0619 313.819 77.4684 313.789C78.3262 313.616 78.9733 313.586 79.4099 313.699C79.9442 313.85 80.2075 314.203 80.2075 314.76V332.505C80.2075 334.771 79.7412 336.449 78.8004 337.54C77.7391 338.774 76.076 339.391 73.8185 339.391C71.6135 339.391 69.9804 338.819 68.9268 337.668C67.8658 336.524 67.3391 334.801 67.3391 332.505V314.76C67.3391 314.293 67.5723 314 68.0462 313.88C68.3697 313.759 68.8213 313.729 69.4084 313.789C69.8826 313.819 70.2737 313.616 70.5974 313.172C70.8608 312.788 70.9963 312.322 70.9963 311.757C70.9963 311.17 70.8608 310.719 70.5974 310.395C70.2737 309.981 69.8826 309.846 69.4084 309.996C67.8808 310.087 66.526 310.139 65.3522 310.169C64.0352 310.169 62.6355 310.117 61.168 309.996C60.7538 309.936 60.4304 310.117 60.1971 310.523C59.9939 310.877 59.8887 311.336 59.8887 311.893C59.8887 312.419 59.9939 312.864 60.1971 313.217C60.4304 313.624 60.7538 313.819 61.1603 313.789C61.8676 313.729 62.3645 313.744 62.6579 313.835C63.0417 313.977 63.2299 314.286 63.2299 314.76ZM96.0038 314.625V337.826C96.0038 338.21 95.8533 338.443 95.5596 338.533C95.3867 338.593 94.9278 338.609 94.1975 338.579H93.3171C92.9633 338.458 92.6851 338.609 92.4745 339.023C92.3013 339.376 92.2108 339.843 92.2108 340.43C92.2108 340.994 92.3013 341.461 92.4745 341.845C92.6777 342.259 92.9561 342.432 93.3098 342.371C95.3641 342.289 97.1253 342.259 98.5851 342.289C100.203 342.289 101.535 342.341 102.589 342.462C103.033 342.522 103.379 342.326 103.642 341.89C103.906 341.536 104.041 341.077 104.041 340.52C104.041 339.933 103.913 339.459 103.65 339.105C103.386 338.669 103.04 338.488 102.604 338.579C101.957 338.669 101.437 338.684 101.031 338.624C100.391 338.533 100.068 338.27 100.068 337.826V318.297L107.879 335.094L110.927 341.408C111.22 342.033 111.665 342.507 112.252 342.83C112.816 343.124 113.373 343.23 113.93 343.139C114.547 343.019 115.036 342.71 115.39 342.213C115.834 341.626 116.052 340.859 116.052 339.918V314.497C116.052 314.143 116.195 313.925 116.488 313.835C116.669 313.774 117.03 313.744 117.587 313.744L118.076 313.789C118.453 313.819 118.761 313.624 118.995 313.217C119.228 312.864 119.348 312.404 119.348 311.848C119.348 311.291 119.228 310.832 118.995 310.478C118.761 310.072 118.453 309.906 118.069 309.996C116.391 310.117 114.75 310.169 113.132 310.169C111.484 310.169 110.25 310.117 109.422 309.996C108.955 309.906 108.587 310.057 108.323 310.44C108.09 310.786 107.969 311.246 107.969 311.802C107.969 312.337 108.09 312.788 108.323 313.172C108.587 313.586 108.955 313.789 109.43 313.789C110.077 313.669 110.618 313.654 111.063 313.744C111.68 313.835 111.988 314.083 111.988 314.497V334.425L103.861 317.093L101.121 311.276C100.888 310.749 100.7 310.395 100.549 310.215C100.256 309.981 99.857 309.906 99.3604 309.996C98.5627 310.087 97.6518 310.132 96.6209 310.132C95.5973 310.132 94.4912 310.087 93.3171 309.996C92.9633 309.936 92.6851 310.117 92.4745 310.523C92.3013 310.877 92.2108 311.336 92.2108 311.893C92.2108 312.419 92.3013 312.879 92.4745 313.262C92.6851 313.639 92.9633 313.819 93.3171 313.789L93.6632 313.744C94.604 313.714 95.1986 313.744 95.4319 313.835C95.8157 313.925 96.0038 314.188 96.0038 314.625ZM125.406 313.744C126.294 313.624 126.971 313.639 127.438 313.789C128.003 313.932 128.281 314.271 128.281 314.805V337.743C128.281 338.21 128.003 338.503 127.438 338.624C127.062 338.684 126.385 338.669 125.406 338.579C125 338.488 124.691 338.654 124.481 339.068C124.277 339.444 124.172 339.918 124.172 340.475C124.172 341.032 124.277 341.506 124.481 341.89C124.684 342.296 124.992 342.477 125.406 342.417C127.37 342.296 129.312 342.229 131.224 342.198C133.338 342.198 135.686 342.266 138.268 342.417C142.091 342.417 144.95 340.979 146.862 338.097C148.653 335.358 149.548 331.392 149.548 326.184C149.548 320.946 148.653 316.965 146.862 314.233C144.95 311.381 142.091 309.951 138.268 309.951C135.746 310.102 133.391 310.169 131.224 310.169C129.372 310.139 127.431 310.072 125.406 309.951C124.992 309.861 124.684 310.011 124.481 310.395C124.277 310.771 124.172 311.246 124.172 311.802C124.172 312.359 124.277 312.819 124.481 313.172C124.691 313.609 125 313.804 125.406 313.744ZM132.345 313.744H137.921C140.119 313.744 141.85 314.64 143.107 316.438C144.604 318.523 145.349 321.774 145.349 326.184C145.349 330.564 144.604 333.8 143.107 335.892C141.85 337.713 140.119 338.624 137.921 338.624H132.345V313.744ZM163.079 313.744H169.943C171.644 313.744 172.938 314.248 173.819 315.249C174.669 316.22 175.09 317.687 175.09 319.659C175.09 321.639 174.669 323.151 173.819 324.212C172.938 325.334 171.644 325.891 169.943 325.891H163.079V313.744ZM159.015 314.625V338.135C159.015 338.458 158.722 338.654 158.135 338.714C157.751 338.744 157.089 338.714 156.141 338.624C155.764 338.503 155.456 338.654 155.215 339.068C155.042 339.414 154.952 339.888 154.952 340.475C154.952 341.062 155.042 341.536 155.215 341.89C155.449 342.326 155.757 342.507 156.141 342.417C157.699 342.296 159.264 342.243 160.852 342.243C162.47 342.243 164.125 342.296 165.826 342.417C166.3 342.507 166.662 342.326 166.925 341.89C167.189 341.536 167.324 341.062 167.324 340.475C167.324 339.888 167.196 339.414 166.933 339.068C166.669 338.654 166.3 338.503 165.834 338.624C164.901 338.714 164.246 338.744 163.87 338.714C163.343 338.654 163.079 338.466 163.079 338.142V329.683H168.889C170.62 330.443 172.012 331.903 173.066 334.048C173.976 335.869 174.579 338.022 174.872 340.52V340.783C174.902 341.491 174.97 341.935 175.09 342.108C175.263 342.432 175.617 342.537 176.151 342.417C176.889 342.326 177.709 342.281 178.62 342.281C179.508 342.281 180.479 342.326 181.54 342.417C182.006 342.477 182.375 342.296 182.639 341.89C182.902 341.506 183.037 341.032 183.037 340.475C183.037 339.888 182.902 339.414 182.639 339.068C182.375 338.654 182.006 338.503 181.54 338.624C180.569 338.774 179.937 338.819 179.643 338.759C179.229 338.699 178.966 338.466 178.846 338.052C178.469 336.08 177.98 334.462 177.393 333.198C176.422 330.993 175.158 329.555 173.6 328.878C175.422 328.171 176.791 327.155 177.702 325.83C178.763 324.303 179.29 322.248 179.29 319.659C179.29 316.747 178.657 314.482 177.393 312.864C175.895 310.922 173.518 309.951 170.251 309.951C166.692 310.072 163.9 310.124 161.875 310.124C159.843 310.124 157.932 310.072 156.141 309.951C155.757 309.891 155.449 310.072 155.215 310.478C155.042 310.832 154.952 311.291 154.952 311.848C154.952 312.374 155.042 312.819 155.215 313.172C155.456 313.586 155.764 313.774 156.141 313.744C157.089 313.684 157.751 313.699 158.135 313.789C158.722 313.91 159.015 314.188 159.015 314.625ZM189.186 314.715L196.997 329.668V338.27C196.997 338.654 196.47 338.857 195.409 338.887C194.589 338.887 193.837 338.812 193.167 338.669C192.632 338.579 192.211 338.729 191.887 339.113C191.624 339.489 191.489 339.963 191.489 340.52C191.489 341.077 191.624 341.536 191.887 341.89C192.211 342.326 192.632 342.522 193.167 342.462C195.048 342.289 197.118 342.213 199.383 342.243C201.204 342.243 202.995 342.311 204.764 342.462C205.321 342.522 205.765 342.326 206.088 341.89C206.412 341.536 206.57 341.077 206.57 340.52C206.57 339.963 206.412 339.489 206.088 339.113C205.765 338.729 205.321 338.579 204.764 338.669H204.41C203.296 338.812 202.529 338.887 202.122 338.887C201.445 338.857 201.106 338.654 201.106 338.27V329.668L208.873 314.715C209.076 314.301 209.317 314.037 209.58 313.917C209.874 313.744 210.325 313.684 210.942 313.744C211.446 313.835 211.853 313.669 212.176 313.255C212.44 312.909 212.575 312.435 212.575 311.848C212.575 311.261 212.44 310.786 212.176 310.433C211.853 309.996 211.439 309.831 210.942 309.951C209.527 310.102 208.128 310.169 206.743 310.169C205.531 310.139 204.207 310.072 202.769 309.951C202.386 309.861 202.077 310.026 201.844 310.433C201.663 310.786 201.58 311.261 201.58 311.848C201.58 312.404 201.663 312.864 201.844 313.217C202.077 313.624 202.386 313.804 202.769 313.744C203.416 313.714 203.861 313.744 204.094 313.835C204.417 313.977 204.493 314.271 204.312 314.715L199.511 324.009C199.308 324.423 199.134 324.626 198.984 324.626C198.871 324.626 198.721 324.423 198.548 324.009L193.746 314.715C193.543 314.301 193.513 314.037 193.656 313.917C193.746 313.835 193.979 313.774 194.363 313.744H194.672C195.169 313.835 195.567 313.684 195.861 313.3C196.124 312.924 196.26 312.45 196.26 311.893C196.26 311.306 196.124 310.817 195.861 310.433C195.567 310.026 195.169 309.861 194.672 309.951C192.73 310.072 191.255 310.139 190.254 310.169C189.02 310.169 187.824 310.102 186.68 309.951C186.296 309.861 186.002 310.026 185.792 310.433C185.589 310.786 185.483 311.246 185.483 311.802C185.483 312.359 185.589 312.834 185.792 313.217C185.995 313.624 186.288 313.804 186.672 313.744C187.199 313.624 187.643 313.609 187.997 313.699C188.463 313.85 188.862 314.188 189.186 314.715Z" fill="#85878B"/>
<path fill-rule="evenodd" clip-rule="evenodd" d="M93.3608 163.725L92.6629 165.071L92.3307 163.581L88.2723 140.301L75.6537 140.343L75.5547 191.429C76.1265 193.074 75.366 191.729 76.7581 193.091L81.7538 196.903C84.5899 198.63 86.4757 199.578 89.8449 200.929C95.8924 203.354 103.268 204.333 110.538 203.594C144.99 200.089 162.357 159.3 140.481 131.663C137.865 128.359 131.659 122.458 127.176 120.653L127.19 126.294C131.129 128.067 134.941 132.304 137.451 135.632C159.397 164.729 133.177 205.165 98.4229 198.422C94.43 197.647 86.3561 195.106 84.2984 192.36L84.3181 157.919L88.4735 179.326L97.2137 179.257L100.022 163.684C100.601 160.302 100.513 159.974 101.337 158.584L101.394 179.142L110.118 179.348L110.11 140.321L97.5164 140.345L93.3608 163.725Z" fill="#85878B"/>
<path fill-rule="evenodd" clip-rule="evenodd" d="M71.5674 187.407C71.5674 172.008 67.3537 177.728 66.128 162.116C64.8678 146.065 74.5197 129.993 88.7066 123.554C95.1602 120.624 106.512 117.966 114.479 120.9L114.499 179.326L134.659 179.317L134.686 170.481L123.205 170.456L123.205 119.275C122.972 118.267 121.55 117.864 120.622 117.543C90.9108 107.256 60.7462 129.42 61.2986 160.252C61.4704 169.828 64.2485 177.33 69.2032 184.786C69.6156 185.406 69.6061 185.519 70.1617 186.154C70.2556 186.262 70.5489 186.569 70.653 186.668C71.2857 187.27 70.8035 186.9 71.5674 187.407Z" fill="#2F9EBF"/>
<path fill-rule="evenodd" clip-rule="evenodd" d="M93.3608 163.725L92.3307 163.581L92.6629 165.071L93.3608 163.725Z" fill="#A5A5A5"/>
</svg>
