<svg width="315" height="114" viewBox="0 0 315 114" fill="none" xmlns="http://www.w3.org/2000/svg">
<path fill-rule="evenodd" clip-rule="evenodd" d="M101.944 19.9139C100.958 7.68499 118.491 6.91309 119.67 18.0343C120.213 23.161 116.199 27.5474 111.609 27.8719C106.36 28.243 102.317 24.5418 101.944 19.9139ZM109.135 8.48241C103.722 9.18481 99.4558 14.5825 100.33 20.5166C102.387 34.4817 123.653 31.1516 121.235 17.2644C120.227 11.4769 115.05 7.71501 109.135 8.48241ZM105.65 0.658981C105.351 1.93888 105.283 3.0356 105.778 4.0703C106.985 4.4203 114.763 4.48409 116.03 4.08049C116.316 3.11099 116.237 1.76879 116.114 0.552994L105.65 0.658981ZM197.365 83.4304L204.916 83.4097C206.451 87.7306 206.324 103.254 206.245 109.382C206.215 111.755 205.563 111.93 203.291 111.913C184.945 111.775 187.187 113.347 187.031 106.159C186.98 103.846 186.614 97.3431 187.657 95.8748C189.033 93.9376 192.225 93.1839 194.002 91.2756C196.637 88.448 196.692 87.5613 197.365 83.4304ZM191.317 69.3042C196.469 68.1931 199.757 68.6029 204.967 68.4278L205.037 76.2111L196.888 76.2083C196.96 73.9689 196.637 74.3882 194.675 73.5928C193.539 73.1327 192.381 72.6021 191.317 72.2843V69.3042ZM187.48 72.1664C188.139 73.0686 189.731 73.5885 190.811 73.777C190.607 74.3377 190.408 74.7023 190.094 75.1147L189.168 76.0147C188.049 76.8988 187.296 76.5876 187.486 78.1231C190.02 80.0371 194.248 76.7313 195.196 75.7837C195.177 77.8445 194.026 80.0592 195.14 82.2333C196.687 85.2539 194.214 89.5751 190.513 91.7762C188.886 92.7442 187.015 93.4815 186.03 95.0675C184.886 96.9089 185.322 106.529 185.327 109.373C185.332 111.972 186.048 113.454 188.597 113.627L203.825 113.654C206.181 113.63 207.762 112.963 207.972 110.181C208.605 101.804 207.996 93.039 206.906 84.691C206.837 84.1617 206.7 83.4763 206.755 82.9601C206.811 82.4354 208.108 80.183 207.185 77.7322C206.655 76.3262 206.665 77.7461 206.737 74.3856C206.78 72.3693 206.918 68.4864 206.61 66.7933C197.69 66.0744 196.256 66.8324 189.166 67.9649C187.962 68.1571 187.457 68.0763 187.313 69.3229C187.219 70.139 187.233 71.551 187.48 72.1664ZM306.633 97.5475L305.177 104.117L278.299 104.091L275.158 89.244L308.371 89.2205L308.109 90.4583C304.497 91.5213 298.198 88.9393 298.906 92.0656C300.385 92.4491 305.779 92.2807 307.775 92.2133L306.885 95.864L297.317 96.3068C295.859 98.2723 303.384 97.3485 306.633 97.5475ZM311.574 87.5939L272.024 87.5696L270.629 81.0697L312.936 81.0589L311.574 87.5939ZM273.392 89.2446L276.945 105.706L306.55 105.799C307.042 103.503 309.977 89.1408 310.218 89.4926L310.944 89.2531C311.268 89.1839 311.493 89.2233 311.866 89.1442C313.434 88.8117 313.365 87.0432 313.931 84.2766C314.826 79.8993 315.351 79.3834 310.424 79.4072L273.576 79.4083C269.145 79.4027 268.444 79.2045 269.487 83.791C269.768 85.0277 269.976 86.3161 270.301 87.5038C270.779 89.2499 271.362 89.3188 273.392 89.2446ZM8.52569 102.052C11.0454 102.991 33.1432 101.604 35.6972 102.421L35.7338 103.489C34.3479 104.081 20.7039 103.705 19.0967 103.705C13.4061 103.705 7.7227 103.737 2.0372 103.753C2.3011 100.489 3.9608 98.2565 5.7279 97.0787C8.7834 95.0423 10.7214 95.4836 14.5576 95.4981C21.6011 95.5241 28.6701 95.5275 35.7205 95.5017L35.7287 100.615L14.0235 100.625C12.8613 100.638 11.6974 100.612 10.5349 100.59C9.04559 100.56 8.01069 100.344 8.52569 102.052ZM24.0259 91.4992L35.7287 91.4732L35.721 93.8381L24.031 93.7655L24.0259 91.4992ZM23.102 83.0472C28.1284 83.0562 35.5714 81.8011 35.7485 89.8591L22.4906 89.869L22.3767 93.854L14.0235 93.8395C9.5762 93.8361 6.6985 93.7859 3.9469 96.3368C1.7866 98.3395 0.144197 100.927 0.528897 105.24L34.3165 105.361C38.5237 105.362 37.4281 106.891 37.4323 90.4056C37.4343 86.8481 36.2554 84.6246 34.3502 83.1433C31.8121 81.1698 29.0744 81.4172 25.505 81.4085C23.5451 81.4039 10.5366 81.184 9.7854 81.5726C9.1159 81.9187 8.5935 83.0874 11.0639 83.0871C12.4024 83.0869 13.7494 83.0645 15.0916 83.0645C17.7604 83.0645 20.4355 83.0423 23.102 83.0472ZM108.143 105.625C106.588 109.585 100.229 107.398 101.92 103.1C103.504 99.0768 109.82 101.358 108.143 105.625ZM116.602 95.2648C117.515 101.039 110.119 102.592 108.209 97.8721C107.818 96.9074 107.74 95.1914 108.298 94.2568C108.865 93.3074 109.96 93.6856 111.325 93.3177C114.306 92.514 113.892 90.9986 116.121 94.0677C115.307 93.4894 114.786 93.0554 113.864 93.3225C113.104 93.5424 113.717 93.2043 113.288 93.7168C112.64 94.6811 113.749 94.7166 114.618 95.1936C115.432 95.6395 115.81 96.3096 116.602 95.2648ZM107.184 79.1487C111.294 78.006 114.43 80.4554 115.314 83.5152C116.435 87.3952 113.918 90.7446 111.055 91.6597C102.544 94.3801 98.7857 81.4827 107.184 79.1487ZM101.056 87.7975C99.2228 88.0702 98.0195 88.2975 96.584 87.2994C95.6114 86.6236 94.6913 84.9254 95.1712 83.0035C96.1137 79.2289 101.57 79.4443 101.84 81.4161C100.97 81.2279 100.076 79.2181 98.2539 80.526C98.2318 82.51 99.396 81.1752 101.162 82.9292C100.618 84.7624 100.809 85.8963 101.056 87.7975ZM103.224 79.7737C101.204 78.9092 100.048 77.644 97.0336 78.7116C92.8255 80.2012 92.0874 85.7137 95.5794 88.594C97.5047 90.1817 99.4986 89.9175 101.881 89.2281C102.391 90.934 104.656 92.8981 106.93 93.2729C106.195 95.9218 105.681 97.8449 107.515 99.9428C106.037 99.6228 102.9 98.5246 101.004 101.407C97.6867 106.453 103.605 111.766 108.354 108.209C110.451 106.638 110.17 103.975 109.252 101.495C116.916 105.035 122.006 95.239 115.226 90.8708C121.071 83.6946 113.375 74.3768 105.581 77.9136C104.351 78.4718 103.807 78.8879 103.224 79.7737Z" fill="#2F9EBF"/>
</svg>
