<svg width="316" height="39" viewBox="0 0 316 39" fill="none" xmlns="http://www.w3.org/2000/svg">
<path fill-rule="evenodd" clip-rule="evenodd" d="M274.008 13.6365C276.12 11.7526 281.997 9.24279 285.008 8.26769C286.073 9.73829 285.742 10.043 287.399 10.9991C290.82 12.9729 295.514 12.1769 297.29 8.34731C299.808 8.60581 306.246 12.1656 308.452 13.6665L305.835 19.3877C302.562 18.4194 299.512 15.7537 298.615 16.8547C297.908 18.1042 299.187 18.088 300.038 18.7099C300.559 24.5544 299.187 29.5893 301.03 35.4919L280.84 35.4548C282.272 30.7217 282.05 23.7593 282.409 18.7099C283.462 17.9962 284.203 18.1424 283.853 16.6577C282.076 15.9561 279.633 18.5543 276.509 19.4438L274.008 13.6365ZM278.713 4.84139L269.243 4.8196C268.152 4.8057 266.896 4.5733 266.891 5.6238C266.882 7.1542 270.923 6.55721 272.191 6.55721C274.333 6.55721 276.508 6.5998 278.645 6.5176L278.791 8.8984C275.898 10.0614 273.444 12.1239 272.104 12.652C272.032 14.2343 274.769 19.9648 275.558 21.3881C277.484 21.4471 278.978 20.047 280.693 19.4744C280.451 24.8212 280.336 29.8714 279.195 35.1089C278.944 36.2598 278.808 36.3326 279.255 37.0586C286.572 37.3163 293.958 37.1904 301.296 37.1879C304.128 37.1879 303.022 36.3522 302.424 34.1701C301.237 29.8407 301.981 24.0357 301.767 19.6315C303.192 19.5708 304.97 21.6206 306.817 21.3005C307.45 20.4805 310.25 14.13 310.345 13.1024C309.372 11.8699 305.578 9.71841 303.703 8.83031L303.785 6.53121C305.355 6.53141 314.182 6.8682 315.464 6.2752C315.504 4.2433 314.229 4.8329 310.374 4.8601C308.315 4.8749 306.004 4.9208 303.966 4.842C303.477 3.9324 303.427 3.14831 302.364 2.63521C300.569 2.39801 299.829 3.14859 299.803 4.84569L282.872 4.83431C282.353 3.89471 282.321 2.61028 280.74 2.55928C279.183 2.50878 278.756 3.40139 278.713 4.84139ZM2.43096 11.3914C2.57006 11.3325 4.69266 9.8434 5.25986 9.4908C8.13566 7.7033 12.2675 5.76551 15.6328 4.95601C17.7919 10.956 25.9602 9.85758 28.1863 7.30928C28.1922 7.30248 28.7197 6.608 28.7705 6.532C29.0392 6.1332 29.302 5.4086 29.7277 4.9832C34.5588 6.6647 35.7148 7.03181 40.0014 9.54351L42.3757 11.119C42.4074 11.1468 42.4791 11.2191 42.5043 11.2421C42.5293 11.265 42.6095 11.4124 42.6271 11.3699C42.6449 11.3277 42.713 11.4521 42.747 11.5006C41.8099 13.734 40.5575 15.945 39.8111 18.2728C37.1647 17.62 33.3745 14.4962 31.1442 14.795C30.9469 16.36 31.5164 16.4496 32.923 17.1078C33.7393 21.7606 31.8256 25.2962 34.1549 36.8967L10.4312 36.7533C11.8655 30.2657 12.0682 23.7735 12.1892 17.0582C13.5048 16.5644 14.2747 16.5888 14.0181 14.8942C12.6757 14.5396 7.20956 17.5361 5.50086 18.2921L2.43096 11.3914ZM4.68755 20.2469C6.38265 20.3484 8.87066 18.5472 10.4658 17.9687C10.3694 22.8936 10.1202 28.742 9.27036 33.5643C9.01386 35.0196 8.20256 37.0475 8.68696 38.4153C10.3487 38.8869 34.795 38.8427 36.0209 38.3543C36.4376 37.1445 34.7989 33.4045 34.6552 29.0028C34.541 25.5034 35.0002 21.3379 34.7312 18.0446C36.1236 18.2286 39.0435 20.4121 40.534 20.2653C41.0672 20.053 43.6002 13.9049 44.0127 12.9375C45.2608 10.0098 45.4507 10.9529 39.8936 7.45549C37.7308 6.09429 35.2363 5.04811 32.5613 4.07241C28.5695 2.61621 27.1068 2.9323 22.7854 2.9323C14.6596 2.9323 13.3585 3.1469 5.51986 7.2965C4.27656 7.9547 3.29466 8.62711 2.19426 9.31371C0.374665 10.4486 -0.0352382 10.5547 1.12186 12.8229C2.04086 14.6238 3.58995 19.2117 4.68755 20.2469ZM124.556 8.43941C124.838 10.3633 124.643 25.5485 124.643 28.8563C124.643 33.6222 125.9 35.3159 120.945 35.2799L100.38 35.2818C98.6042 35.2952 97.1254 35.4919 96.912 33.674L97.0006 8.4692L124.556 8.43941ZM96.8597 6.8926C96.9184 1.996 96.3901 1.9379 101.451 1.9507C104.566 1.9583 107.682 1.9512 110.797 1.9507C126.355 1.947 124.636 0.723284 124.676 6.86058L96.8597 6.8926ZM97.7609 0.437489C94.9572 1.10879 95.2143 3.39211 95.2168 6.42711L95.2564 31.7941C95.3721 38.288 97.4548 36.9566 107.058 36.9566C129.126 36.9566 126.316 40.156 126.316 22.181C126.316 16.5749 126.29 10.962 126.322 5.35711C126.358 -1.01349 123.221 0.287586 114.535 0.287586C111.226 0.287586 100.141 -0.132511 97.7609 0.437489ZM221.692 33.9297C221.086 35.9537 218.284 35.4936 216.045 35.493H193.616C191.117 35.493 180.769 36.0038 179.602 34.8629C176.921 32.242 181.289 30.4924 183.637 29.0411C187.109 26.8944 186.602 29.1182 189.411 27.5949C192.001 26.1903 190.457 24.7599 192.818 23.5254C194.375 22.7108 198.992 19.6505 199.925 19.4577C201.304 19.1726 208.768 24.0121 209.083 24.5907C210.145 26.5421 210.244 27.9319 213.105 28.1439C216.099 28.3659 213.838 27.1478 218.655 30.0052C220.097 30.8604 222.366 31.6801 221.692 33.9297ZM199.518 15.7727L199.498 17.6418C198.868 18.0778 197.57 18.7063 196.942 19.0884L191.959 22.1075C190.308 23.0878 190.399 22.5971 189.871 24.2982C188.75 27.9078 186.257 25.6273 184.616 26.4947C182.934 27.3834 181.118 28.6173 179.434 29.612C177.66 30.6597 176.459 32.748 177.666 35.1863C178.683 37.2383 181.205 37.1581 184.003 37.155L216.846 37.1553C219.632 37.1589 221.666 37.3129 222.947 35.2081C225.567 30.9026 219.049 28.2825 216.341 26.6625C214.438 25.5244 211.897 27.7014 210.832 24.4881C210.148 22.425 209.769 22.7068 206.334 20.6684L201.159 17.6418L201.102 14.2624C199.078 13.4026 198.27 14.0101 197.065 12.3249C195.082 9.55291 197.318 5.53649 200.963 6.05779C203.559 6.42939 203.158 8.59899 204.987 7.92519C205.838 5.24059 199.38 2.2361 195.852 6.532C194.611 8.0429 194.285 10.3372 195.148 12.3518C195.674 13.5801 196.723 14.6023 197.995 15.1513L199.144 15.602C199.195 15.6236 199.289 15.6684 199.331 15.6862C199.372 15.7044 199.459 15.737 199.518 15.7727Z" fill="#2F9EBF"/>
</svg>
