<svg width="304" height="43" viewBox="0 0 304 43" fill="none" xmlns="http://www.w3.org/2000/svg">
<path fill-rule="evenodd" clip-rule="evenodd" d="M287.043 39.6174L286.983 15.3202C287.873 16.0544 292.077 18.7867 293.11 18.8876C294.302 17.6517 296.72 8.6061 297.383 6.3398C302.579 6.3812 301.568 10.8432 301.52 15.1643C301.473 19.5113 301.508 23.8962 301.508 28.2479C301.508 31.7941 302.503 37.8701 299.579 39.2432C298.068 39.953 289.442 39.5281 287.043 39.6174ZM275.107 6.31369C275.01 7.66189 278.342 17.8728 279.008 18.8451C280.146 18.8893 284.376 16.0371 285.246 15.3154L285.354 39.6109C269.54 39.233 270.796 42.1703 270.796 28.2479C270.796 23.8865 270.796 19.5254 270.796 15.1643C270.796 10.3647 269.612 6.50529 275.107 6.31369ZM276.973 7.52919C276.715 6.30489 277.34 5.7904 277.956 4.87L284.796 13.5954L280.027 16.6854L276.973 7.52919ZM294.353 4.87259C294.99 6.01859 295.639 6.34691 295.288 7.72541L292.284 16.7225L287.516 13.5622L294.353 4.87259ZM286.168 12.2645C285.057 11.0374 283.996 9.6869 282.901 8.29L279.688 4.1211L292.602 4.1276L286.168 12.2645ZM276.021 4.6467C269.661 5.0072 269.137 6.3928 269.139 12.7611L269.134 35.4686C269.178 43.0983 276.582 41.2513 286.168 41.2533C289.12 41.2538 298.58 41.7241 300.483 40.7102C302.311 39.7367 303.086 37.9886 303.143 35.9845C303.335 29.174 303.11 20.0603 303.123 13.0281C303.135 6.7177 302.847 4.8661 296.315 4.6603L295.047 2.5961C292.363 2.2486 283.12 2.48269 279.213 2.44899C276.738 2.42769 277.125 3.0377 276.021 4.6467ZM175.937 30.6511C175.76 26.4085 180.091 26.8085 183.593 26.8082H206.556C210.009 26.8085 214.631 26.0848 214.837 30.1276C215.056 34.4184 210.621 33.9521 207.09 33.9518H184.127C182.73 33.9518 179.793 34.1077 178.579 33.805C177.248 33.473 175.997 32.1107 175.937 30.6511ZM178.685 18.1968C180.418 17.8198 187.946 18.1311 190.268 18.1311C193.281 18.1311 211.372 17.8122 212.833 18.5004C215.777 19.8874 215.406 24.5725 212.04 25.1596C209.706 25.5661 203.182 25.2228 200.415 25.2228C197.375 25.2228 179.357 25.5845 177.892 24.8713C175.137 23.5305 175.249 18.9443 178.685 18.1968ZM178.154 9.6572C179.083 9.3315 210.451 9.09199 212.367 9.61209C215.666 10.5073 215.623 15.3097 212.552 16.3416C210.843 16.9156 193.025 16.5612 189.734 16.5612C187.431 16.5612 180.103 16.8478 178.367 16.3611C176.902 15.9509 175.911 14.4783 175.907 13.0236C175.903 11.5195 176.876 10.1048 178.154 9.6572ZM176.51 17.3002C175.921 18.0534 175.428 18.2827 174.966 19.0949C172.834 22.8417 175.861 25.1891 176.57 26.0993C172.803 28.5495 173.812 34.8371 178.794 35.4921L211.377 35.5469C215.558 35.3164 218.915 30.4765 214.275 26.1117C214.475 25.8028 214.342 25.9983 214.646 25.6653C214.686 25.6213 214.968 25.3356 215.046 25.2523C215.288 24.9912 215.541 24.7171 215.761 24.3605C216.206 23.6396 216.451 22.8063 216.474 21.8354C216.532 19.4347 215.196 18.3173 214.255 17.3002C217.916 14.9007 216.987 8.3221 211.641 7.8478L179.04 7.84951C174.64 8.25011 172.241 13.5242 176.51 17.3002ZM98.167 10.5864C99.0678 10.1799 110.256 10.3925 112.262 10.3911C118.904 10.3865 118.89 11.3945 118.862 17.8343C118.842 22.5497 118.87 27.2703 118.868 31.9863C118.866 37.3069 119.935 41.1277 113.867 41.1149C92.7674 41.0702 92.7929 42.8809 92.7861 33.5881C92.7841 30.5553 92.4075 21.9865 92.9484 19.583C93.7407 16.0623 95.7717 11.6672 98.167 10.5864ZM101.424 2.23549L107.367 2.2542L107.398 6.1643L101.446 6.1935L101.424 2.23549ZM99.7652 2.61029L99.7797 6.0867C98.6501 6.4424 98.1796 6.6009 97.8541 7.4493C97.1795 9.2079 98.2631 8.3518 96.6958 9.4673C92.9223 12.152 91.0996 18.4324 91.1059 23.1748C91.1115 27.4372 91.0481 31.7354 91.1258 35.9927C91.235 42.005 93.7311 42.7814 98.6441 42.7777H114.398C118.684 42.7772 120.552 40.4655 120.552 36.2583V17.3002C120.552 14.0996 120.694 12.1066 118.843 10.1822C117.107 8.3779 114.266 8.72089 111.461 8.72339C111.425 8.66929 111.389 8.50999 111.378 8.54689L110.824 6.9997C110.387 6.3217 110.047 6.4206 109.109 6.0858C108.623 1.5053 110.16 0.575003 107.189 0.564503C105.211 0.565603 101.772 0.337405 99.9903 0.759205L99.7652 2.61029Z" fill="#2F9EBF"/>
<path fill-rule="evenodd" clip-rule="evenodd" d="M107.234 17.3025C107.528 19.094 107.573 30.7838 107.052 31.7785C107.01 31.8261 104.265 33.6408 104.269 30.1398L104.244 18.8791C104.212 16.2449 105.516 16.7914 107.234 17.3025ZM104.356 15.6505C102.024 16.6321 102.687 17.3456 102.668 20.2375C102.656 22.0457 102.411 31.3079 102.845 32.3446C103.411 33.6924 105.646 34.2324 107.225 33.6354C109.084 32.933 109.01 31.2677 109.001 29.0493C108.994 27.1742 109.226 17.9267 108.765 16.8665C108.113 15.365 106.107 14.9137 104.356 15.6505ZM283.307 21.9346L289.107 21.8351C289.021 24.6097 289.199 27.3678 286.176 27.4366C284.846 27.4673 283.976 26.582 283.599 25.7707C283.12 24.7412 283.317 23.1708 283.307 21.9346ZM282.026 20.6219C281.398 21.2543 281.614 23.4095 281.657 24.5147C281.834 29.0351 286.794 30.5069 289.419 27.7487C290.115 27.0168 290.639 26.0879 290.71 24.7777C290.758 23.9115 290.908 21.0482 290.415 20.5306C289.842 19.9299 287.139 20.2599 286.18 20.2443C284.985 20.2247 282.744 19.8988 282.026 20.6219ZM5.12038 27.5741C2.46828 24.6323 7.63248 23.7578 6.57168 22.1427C5.56488 21.3535 4.62208 22.2954 3.25918 21.4088C2.53238 20.936 2.12728 20.0076 2.54478 18.863C3.60698 15.9518 6.39259 18.3054 7.78039 18.0222C8.42129 16.6324 7.22599 16.3155 6.95359 15.0665C6.65049 13.6767 7.33879 12.887 8.29609 12.591C11.671 11.5485 11.0842 14.6989 11.8283 16.525C13.7851 16.4983 13.1833 15.3574 14.316 14.3267C16.3087 12.5137 18.9387 15.3696 17.4715 17.4916C16.476 18.9313 15.4873 17.9216 15.6335 20.0595C17.3122 20.5394 18.8962 19.6181 19.7356 21.2566C20.4833 22.7708 19.4331 25.6956 16.3331 24.3404C15.714 24.0697 15.9224 24.0011 15.3736 23.9957C13.939 23.9815 15.1103 23.8412 14.621 24.2854C14.3475 24.6819 14.2944 23.7037 14.4538 24.9691C14.5039 25.3685 16.9114 28.2754 14.3968 29.3665C10.7786 30.9363 10.7571 26.1021 10.5989 25.5714C8.39579 25.3404 9.64699 26.4037 8.21159 27.7306C7.29999 28.5736 5.98128 28.5291 5.12038 27.5741ZM20.9757 24.7412C21.9182 21.4385 22.113 19.9878 18.837 18.6354C20.9848 13.8471 16.6138 9.9732 12.7989 13.3028C11.3524 9.0741 4.21609 10.3386 5.36729 15.6128C0.329787 16.1933 0.0735866 19.6524 1.25169 21.8192C1.87079 22.9576 2.34698 22.8097 3.58938 23.4418C2.53968 25.4252 2.57858 27.4094 4.09818 28.8701C6.24238 30.9309 7.68629 29.8742 9.52459 28.8452C10.5995 30.3337 11.6302 31.8442 14.4929 31.0976C16.6194 30.5429 17.4908 28.8435 17.0149 26.3343C18.4322 26.379 18.9932 26.3413 20.0913 25.479L20.9757 24.7412Z" fill="#2F9EBF"/>
<path fill-rule="evenodd" clip-rule="evenodd" d="M21.0795 33.1215C21.8666 31.6679 22.6019 33.0543 22.3689 30.8521C21.1894 30.5063 17.916 30.6681 20.1389 28.4356C21.8862 27.7768 21.3813 29.1012 23.1805 28.5915C23.3061 27.2212 21.1585 23.8216 24.7855 25.2395L25.4924 27.6926C27.6734 27.5668 26.5775 25.0587 28.9873 26.1052C30.2385 28.7103 27.7721 27.3354 27.8083 30.0403C28.4484 30.1746 32.6437 30.1692 30.1665 32.3377C28.4025 33.1425 29.0811 31.8269 27.1184 32.2241C26.7998 33.6692 28.8237 35.1653 26.9993 35.8295C25.0919 36.524 25.4119 33.9872 24.616 33.1836C22.7655 33.1785 24.1165 34.5627 22.0741 35.0309C21.37 34.7052 20.5746 34.0538 21.0795 33.1215ZM20.9757 24.7412L20.4306 26.5398C19.2607 26.9695 18.2258 27.306 17.9083 28.9075C17.5342 30.7957 18.6315 31.4417 19.5876 32.3199C18.2182 35.3022 20.87 37.6422 23.9419 36.0452C25.055 38.3101 29.1304 38.3789 29.4592 34.3109C31.0157 34.0692 32.0254 33.4617 32.3418 31.9726C32.8512 29.5748 31.433 29.4175 30.6756 28.5149C32.1266 25.4416 29.1908 23.3457 26.3462 24.6992C25.6875 23.9761 25.055 23.2485 23.68 23.276C23.1071 23.2873 22.4908 23.4937 22.0982 23.7315L20.9757 24.7412ZM27.6813 10.1909C29.2353 10.0801 28.4487 9.72009 29.3405 8.77839C29.8351 8.25599 30.6455 8.18369 31.1237 8.77989C32.653 10.6864 29.6126 10.4174 29.9766 12.5797C30.9111 12.7384 31.8395 12.6355 32.6666 13.0993C33.5479 16.5275 29.9442 14.1748 29.2393 14.8973C28.4887 16.4612 30.2955 15.6919 29.6662 18.1988L27.8713 18.4463C27.1036 17.0352 27.3885 16.6616 26.8936 15.6995C25.3969 15.7681 25.5043 16.6202 24.7784 17.5398L23.3324 17.3901C21.967 14.4837 25.097 15.6675 24.3614 13.3938C22.5098 12.8334 20.7606 13.6475 22.0492 10.9591C24.3376 10.3395 23.3472 11.786 25.1599 11.0459C25.6293 9.52929 23.5669 8.41619 25.2152 7.62619C27.1765 6.68589 26.9375 9.30229 27.6813 10.1909ZM22.8701 9.0231C20.1809 9.6937 19.3044 11.6482 20.2231 13.5299C20.6398 14.3831 20.8158 14.2618 21.7303 14.6966C20.2909 17.6874 22.759 20.0841 26.12 18.6393C27.3786 21.0289 31.7306 20.5856 31.4375 16.7982C32.9337 16.7084 34.0944 15.994 34.4153 14.6059C34.9896 12.123 33.3988 11.5547 32.7834 11.159C33.9811 8.26879 31.4378 5.53219 28.4824 7.26109C25.9295 4.85299 23.2281 5.3961 22.8701 9.0231ZM10.1567 19.1462C9.25126 19.666 8.38956 20.4779 9.20906 22.1407C9.71536 23.1682 11.2645 23.6836 12.4959 22.9389C14.7673 21.5652 12.8383 17.6069 10.1567 19.1462Z" fill="#2F9EBF"/>
</svg>
