<svg width="328" height="43" viewBox="0 0 328 43" fill="none" xmlns="http://www.w3.org/2000/svg">
<path fill-rule="evenodd" clip-rule="evenodd" d="M125.968 32.3382C126.961 33.2005 128.125 34.7389 129.186 35.3806C128.471 36.5168 126.825 37.6537 125.94 38.8488L122.623 35.6346C123.402 35.1975 125.401 33.0903 125.968 32.3382ZM116.849 32.3739L120.006 35.4977C119.658 35.9878 117.137 38.5214 116.592 38.9041C115.94 37.7552 114.464 36.6126 113.504 35.6973C114.53 34.9172 116.059 33.387 116.849 32.3739ZM107.748 32.3569C108.683 33.2946 109.848 34.7616 110.973 35.4308C110.399 36.0981 108.099 38.3984 107.486 38.8644L104.438 35.6896C105.313 34.9087 107.078 33.2858 107.748 32.3569ZM130.48 27.9408L131.534 28.7309C131.434 30.4396 131.286 33.1172 130.638 34.2913C129.761 33.9041 127.849 31.8059 127.203 31.019C128.001 30.7999 130.045 28.1344 130.48 27.9408ZM121.421 27.9014C122.796 28.8343 123.364 30.0456 124.66 30.856C123.776 32.0936 122.273 32.9635 121.4 34.2984L118.1 31.1304L121.421 27.9014ZM112.3 27.8416L115.454 30.9413L112.081 34.312L108.981 31.1477C110.073 30.193 111.304 28.9406 112.3 27.8416ZM103.217 27.7974C104.09 28.7558 105.353 30.1921 106.409 30.911C105.702 31.6588 105.105 32.1066 104.392 32.8306C102.8 34.4455 102.725 35.7214 102.165 30.1159C102.004 28.5029 102.305 28.7634 103.217 27.7974ZM125.94 23.3357C127.31 24.2946 127.931 25.4262 129.164 26.2763C128.596 27.2602 126.764 28.6478 125.94 29.7349L122.669 26.4991C123.376 26.1559 125.297 23.991 125.94 23.3357ZM116.861 23.3309C118.132 24.2317 118.9 25.4554 120.056 26.2996C119.359 27.1355 117.416 29.111 116.606 29.7794L113.564 26.5672C114.653 25.5787 115.837 24.1875 116.861 23.3309ZM107.757 23.2951L110.881 26.3707C110.389 26.9975 109.927 27.2971 109.334 27.8864L107.783 29.6955L104.422 26.5901L107.757 23.2951ZM102.987 25.2372C101.433 23.101 101.456 24.5438 101.153 20.7326L103.211 18.6939L106.324 21.8687L102.987 25.2372ZM121.397 18.7742C122.756 19.7992 123.442 20.8644 124.613 21.7344C123.881 22.608 122.018 24.4967 121.189 25.2094L118.143 21.9787L121.397 18.7742ZM112.358 18.7481L115.457 21.8129C114.906 22.4671 114.385 22.8402 113.745 23.4885C113.153 24.0866 112.702 24.6875 112.072 25.2255L108.988 22.0181C109.986 21.1275 111.341 19.4964 112.358 18.7481ZM130.479 25.2037L127.245 22.0326C127.788 21.4648 130.284 18.9624 130.493 18.8515C134.533 21.077 131.276 24.1444 130.479 25.2037ZM122.663 17.4498C123.714 16.7349 124.976 15.071 125.94 14.2362C127.068 14.9854 128.236 16.4795 129.173 17.193C128.191 18.3441 126.544 19.4205 125.911 20.664L122.663 17.4498ZM116.907 14.1951L120.046 17.2131C119.192 18.2149 117.64 19.7246 116.647 20.6779C115.844 19.4137 114.59 18.5247 113.585 17.4906L116.907 14.1951ZM107.841 14.1687L110.957 17.2092C109.889 18.3821 108.65 19.5355 107.599 20.613L104.39 17.4799L107.841 14.1687ZM134.165 10.8692C129.685 11.0214 124.853 10.8544 120.332 10.8544C115.083 10.8544 104.319 11.0857 99.5267 10.8814C95.8808 10.7257 98.309 7.56968 98.3934 7.42788C107.564 7.15518 118.299 7.37518 127.542 7.37518C129.106 7.37518 133.479 7.13988 134.708 7.45028C136.512 7.90468 136.945 10.7745 134.165 10.8692ZM100.973 5.58988C94.8445 5.24668 95.2365 9.51218 96.2496 11.1464C97.0079 12.3696 97.2961 12.1853 98.4479 12.7222L101.683 42.0134C104.321 42.302 130.529 42.3692 131.467 41.8864C132.221 41.3249 132.202 39.333 132.283 38.5078L133.538 27.4159C134.214 22.4479 134.473 17.5405 135.196 12.7222C136.32 11.9747 136.619 12.1825 137.266 11.2068C138.641 9.13178 138.596 5.38328 131.948 5.57578C132.752 4.47198 132.435 2.69038 131.656 1.68438C130.649 0.38208 129.606 0.306681 127.545 0.310081L105.647 0.312981C103.67 0.303281 102.489 0.301084 101.4 1.54768C100.471 2.61298 100.196 4.32288 100.973 5.58988ZM36.0037 17.733C31.1916 17.7321 10.2725 18.0264 6.62602 17.7378C5.65722 17.661 3.15423 16.3925 2.74373 15.7915C1.53223 14.0171 3.77012 13.451 4.82492 12.8166C6.40182 11.8678 8.11622 12.2029 10.1033 12.2029C17.7877 12.2034 25.8067 12.4246 33.4497 12.176C32.9888 15.0492 33.575 14.5145 36.2654 14.4695C39.8206 14.4099 49.6367 14.7648 51.8262 14.3436L51.9359 12.1686C53.6817 12.2431 53.5862 11.9994 54.618 12.9892C56.3386 19.1662 52.0838 17.7336 47.7522 17.7336C43.8361 17.7336 39.9198 17.7338 36.0037 17.733ZM35.0958 12.8461C35.9057 9.73758 37.8312 9.67808 41.3439 9.73648C44.3064 9.78548 47.2774 9.68538 50.2325 9.79228L50.2382 12.812L35.0958 12.8461ZM37.5526 3.51668C40.2396 4.90278 48.0113 2.64388 49.5103 4.57228C49.9142 5.09218 49.6786 4.75768 49.9652 5.42918L44.0485 5.46968L43.8381 8.15558C39.8135 7.98828 37.2158 7.39958 34.7298 9.85148C33.5282 11.0373 26.5111 10.4953 24.522 10.4953H8.23412C5.52512 10.4882 5.59542 10.3825 3.57742 11.5033C2.37492 12.1711 1.09002 12.731 0.801117 14.1423C0.427217 15.9676 1.40802 17.2194 2.57532 17.8623C6.69322 20.1305 5.92282 19.4647 11.9725 19.4647C26.6009 19.4647 21.0751 17.9172 28.7006 24.4738C27.4204 25.5192 26.3464 26.9677 25.0484 28.2039C23.711 29.4778 22.5349 30.5572 21.2253 31.858C19.931 33.1433 18.4556 34.1036 17.3753 35.4821C15.3397 38.0795 14.0401 38.084 14.2708 39.7704C15.7723 40.0777 16.1791 39.0677 18.5435 36.9142C19.2612 36.2605 19.7918 35.7911 20.5039 35.134C21.2871 34.4115 21.4711 33.9523 22.222 33.1294C23.2558 31.9969 29.0832 26.4249 30.1853 25.7947C32.1435 28.4896 35.1369 30.812 37.5276 33.0931C38.8336 34.3389 40.0468 35.2928 41.2997 36.7997C41.9539 37.5869 45.3107 41.4814 45.6007 39.1261C45.6906 38.3953 45.4437 38.1915 44.5026 37.3286L36.8088 30.0688C34.7109 27.4657 31.8022 25.6465 31.2512 24.4709C32.332 23.1392 34.3219 21.3384 35.5264 20.2589C36.9769 18.9587 39.8345 19.4647 43.2131 19.4647C46.0608 19.4647 48.9116 19.4525 51.759 19.4681C56.2712 19.493 56.4869 18.4417 56.4869 14.3243C56.4869 11.02 55.262 10.4074 51.9656 10.5248C51.662 1.48418 51.6039 2.09938 41.0769 2.08488C37.6804 2.08038 37.5639 1.73448 37.5526 3.51668ZM195.753 30.047C197.142 30.4512 215.362 30.4495 216.74 30.0388C216.999 28.766 215.991 26.0436 215.873 24.3482C217.421 23.9675 220.628 25.058 222.499 25.4228L219.885 37.6818L193.036 37.7422L190.216 24.7057C191.911 24.4681 191.815 24.122 193.53 24.8103C194.781 25.312 195.253 25.4602 196.458 24.7655C196.29 26.3532 195.422 28.5423 195.753 30.047ZM191.454 9.51758C194.098 8.13938 197.574 5.53208 201.121 5.00658C201.575 6.47858 201.93 6.80658 203.149 7.42648C205.276 8.50758 208.218 8.58128 209.997 7.25978C210.933 6.56478 211.178 5.75888 211.994 4.99978C213.891 5.66358 215.145 6.07718 216.938 6.99078C218.378 7.72498 220.261 9.02888 221.391 9.44818C221.038 11.2184 219.859 12.6978 219.279 14.506C218.061 14.152 217.183 13.5539 215.912 13.0516C214.468 12.4807 214.116 11.6895 212.678 12.0492C212.57 13.7821 212.656 13.3614 214.133 13.9499C213.997 16.5892 213.993 19.1648 214.054 21.8007C214.116 24.5327 214.658 26.3826 214.837 28.5761L197.585 28.6149C197.615 26.7217 198.297 23.6815 198.487 21.5419C198.697 19.1812 198.803 16.5076 198.796 14.1063C199.625 13.3348 200.313 13.7194 200.146 12.2879C199.021 11.5416 196.241 13.3742 193.623 14.4995L191.454 9.51758ZM189.54 8.84578C189.63 10.1248 192.139 15.6124 192.765 16.4614C194.394 16.4257 195.669 15.3148 197.11 14.8833L196.36 23.0369C196.121 23.1483 196.38 23.046 196.018 23.1965C193.46 24.2586 194.759 21.8291 190.099 23.0723C189.196 21.9796 190.364 21.7205 188.764 21.1411C187.745 21.6471 187.851 21.6627 188.079 22.9371L189.625 29.9968C189.953 31.532 190.27 33.0568 190.609 34.6153C190.786 35.426 190.961 36.2217 191.125 37.0372C191.214 37.4834 191.23 37.7218 191.359 38.1475C191.444 38.4302 191.463 38.5081 191.593 38.7491C191.842 39.2117 191.631 38.9393 191.961 39.2321C192.994 39.5487 219.039 39.6335 220.967 39.2993C221.971 38.0605 222.69 32.6217 223.136 30.5048C223.579 28.4003 225.297 22.9371 224.672 21.3755C222.951 20.78 223.45 22.0913 222.774 23.4998C220.49 24.0021 218.99 22.2225 215.699 22.5836L215.719 14.8167C216.993 15.3465 218.583 16.3469 220.072 16.4574C220.652 15.6648 223.179 10.2303 223.199 8.98408C221.91 7.73458 218.402 5.61088 216.217 4.73498C211.869 2.99198 211.414 3.04158 206.387 3.04128C201.507 3.04068 201.007 2.96898 196.801 4.70518C194.612 5.60918 190.824 7.73178 189.54 8.84578ZM312.054 37.2875C311.474 35.6859 311.867 34.4704 312.918 33.2617C312.952 33.2226 313.005 33.162 313.04 33.1234L313.291 32.8555C315.289 30.9093 318.984 31.5797 320 34.7196C321.561 39.5462 314.049 42.8046 312.054 37.2875ZM278.641 37.2875C276.912 32.3042 284.796 29.1161 286.583 34.7429C287.064 36.258 286.607 37.5279 285.717 38.649C285.685 38.6898 285.635 38.7513 285.602 38.791C283.496 41.3252 279.632 40.1434 278.641 37.2875ZM307.927 17.3288C316.293 17.6692 315.595 16.1887 318.251 19.4275C319.45 20.8891 322.102 22.5187 323.253 24.0523C325.022 26.409 324.454 24.5024 324.534 31.5955C317.029 32.0114 320.233 30.0728 316.137 29.9872C314.104 29.9446 313.579 30.5677 312.291 31.2795C311.264 31.8473 309.357 31.604 307.952 31.6417L307.927 17.3288ZM270.727 12.4404H306.151L306.174 31.6443C303.685 31.6789 288.019 31.8872 286.862 31.5417C286.237 31.3549 283.483 28.5562 279.553 30.8282C277.123 32.2333 275.109 31.5165 270.756 31.6508L270.727 12.4404ZM269.168 10.7873C268.609 12.7539 268.95 28.1356 268.969 31.4133C268.725 32.5695 267.62 31.6854 267.254 33.878C266.5 38.393 272.363 37.3397 276.619 37.2827C277.391 38.5906 277.954 41.8227 282.496 41.9386C287.159 42.0574 288.062 38.0906 288.634 37.2935L310.215 37.2878C311.338 43.3843 320.458 43.5799 321.804 37.2827C324.107 37.3008 325.907 37.5783 326.761 35.8506C327.906 33.5359 326.271 34.0019 326.27 30.6122L326.268 25.8061C326.268 23.5658 326.202 24.194 323.442 21.6958C322.772 21.0895 322.152 20.6904 321.655 20.0052C320.834 18.8714 320.868 18.959 319.841 18.1006C318.222 16.7463 317.878 15.5237 315.078 15.5483C312.7 15.5693 310.321 15.5463 307.944 15.5724C308.025 10.9035 308.401 10.6509 306.257 10.6509L282.493 10.6589C278.454 10.6614 273.026 10.5018 269.168 10.7873Z" fill="#2F9EBF"/>
<path fill-rule="evenodd" clip-rule="evenodd" d="M281.421 26.1437C281.817 24.9574 281.275 25.9937 282.021 25.2238C283.229 23.9772 284.463 24.391 285.172 23.5661C285.176 23.5619 287.043 20.598 288.216 20.5047C288.815 20.6805 289.483 21.0243 290.092 21.2823C291.938 22.0638 290.586 21.7009 291.678 22.6225C292.335 23.1775 293.178 22.9921 294.047 23.1421C295.715 23.4292 295.768 23.8224 295.993 24.2076C294.86 24.9038 283.494 25.9861 281.421 26.1437ZM287.044 19.1344C285.927 20.2969 284.407 20.6289 283.894 22.5448C281.649 22.6775 279.821 24.6337 279.801 25.8123C279.756 28.5594 283.11 27.6327 285.232 27.404C287.249 27.1863 296.78 26.4784 297.53 25.056C298.39 23.4241 296.285 21.2145 292.82 21.4467C291.601 19.4417 290.818 20.177 289.289 19.1257C288.726 18.7379 289.106 19.0185 288.731 18.3674C288.161 17.3787 288.796 17.9822 287.916 17.5368C286.97 17.0578 286.294 17.2437 287.074 15.8658C288.436 15.2396 289.723 17.2219 289.795 15.4194C289.878 13.3668 284.926 13.3254 285.117 16.7247C285.209 18.3784 285.967 18.4541 287.044 19.1344ZM310.82 20.6813C315.743 20.4304 315.001 20.236 317.35 22.775C318.115 23.6027 321.166 26.6156 321.434 27.6426L310.841 27.6619L310.82 20.6813ZM309.274 19.1427C309.09 20.8131 309.022 27.7753 309.361 29.1623C312.839 29.4982 319.265 29.4483 322.95 29.192C323.658 26.4671 322.673 25.9146 321.571 24.6989L318.494 21.6491C317.658 20.7335 316.764 19.1313 315.269 19.0004C314.503 18.9332 309.603 18.9831 309.274 19.1427ZM296.104 34.0203C295.653 34.2678 295.225 34.2085 294.964 35.2338C294.392 37.4786 296.543 39.0986 298.466 37.9131C300.657 36.5618 299.061 32.3975 296.104 34.0203Z" fill="#2F9EBF"/>
<path fill-rule="evenodd" clip-rule="evenodd" d="M296.065 34.0753C293.174 35.8294 295.989 39.4991 298.505 37.9647C300.749 36.597 298.948 32.3249 296.065 34.0753Z" fill="#2F9EBF"/>
</svg>
