<svg width="190" height="21" viewBox="0 0 190 21" fill="none" xmlns="http://www.w3.org/2000/svg">
<path d="M8.30872 3.03645C10.0206 3.03645 11.3265 3.77285 12.2299 5.24635C13.0194 6.56355 13.4171 8.36183 13.4171 10.6284C13.4171 12.8817 13.0194 14.6671 12.2299 15.9843C11.3265 17.4751 10.0206 18.2202 8.30872 18.2202C6.57762 18.2202 5.27203 17.4751 4.38763 15.9843C3.59783 14.6671 3.20044 12.8817 3.20044 10.6284C3.20044 8.36183 3.59783 6.56355 4.38763 5.24635C5.27203 3.77285 6.57762 3.03645 8.30872 3.03645ZM8.30872 0.852367C5.72612 0.852367 3.75383 1.81862 2.38663 3.74702C1.15213 5.48892 0.532715 7.79445 0.532715 10.6542C0.532715 13.4971 1.15213 15.7849 2.38663 17.5095C3.75383 19.4379 5.72612 20.4044 8.30872 20.4044C10.8721 20.4044 12.8399 19.4379 14.202 17.5095C15.4555 15.7676 16.0845 13.4795 16.0845 10.6542C16.0845 7.79445 15.4555 5.48892 14.202 3.74702C12.8399 1.81862 10.8721 0.852367 8.30872 0.852367ZM21.5003 4.03736V14.2033C21.5003 16.422 22.1673 18.0512 23.4965 19.0825C24.6221 19.9624 26.1784 20.4044 28.1552 20.4044C30.2413 20.4044 31.8304 19.932 32.9234 18.983C34.1244 17.9472 34.7254 16.3612 34.7254 14.2293V4.03736C34.7254 3.75137 34.815 3.57367 34.9998 3.50447C35.1129 3.45227 35.3496 3.44374 35.7184 3.47834L35.8275 3.50447C36.0877 3.52177 36.2955 3.40464 36.461 3.14894C36.5889 2.92814 36.6549 2.65946 36.6549 2.33436C36.6549 2.01376 36.5889 1.74923 36.461 1.54573C36.2955 1.32913 36.0826 1.25092 35.8224 1.32032C34.957 1.38522 33.9872 1.41135 32.9138 1.39405C32.0104 1.37675 31.1872 1.33764 30.4493 1.26844C30.1894 1.21634 29.9955 1.31153 29.8676 1.54573C29.7398 1.74923 29.6735 2.01376 29.6735 2.33436C29.6735 2.65496 29.7398 2.92814 29.8676 3.14894C29.9955 3.38314 30.1939 3.49564 30.4493 3.47834C30.9885 3.37854 31.3955 3.36136 31.6696 3.42646C32.0055 3.51296 32.1711 3.71676 32.1711 4.03736V14.2554C32.1711 15.5596 31.8777 16.5259 31.2864 17.1544C30.6197 17.865 29.5743 18.2202 28.1552 18.2202C26.7694 18.2202 25.7432 17.8912 25.0811 17.2282C24.4141 16.5694 24.083 15.5769 24.083 14.2554V4.03736C24.083 3.76867 24.2295 3.59962 24.5275 3.53022C24.7307 3.46102 25.0147 3.44374 25.3838 3.47834C25.6817 3.49564 25.9275 3.37854 26.131 3.12294C26.2963 2.90204 26.3819 2.63334 26.3819 2.30824C26.3819 1.97034 26.2963 1.71042 26.131 1.52412C25.9275 1.28572 25.6817 1.20786 25.3838 1.29426C24.4237 1.34646 23.5722 1.37675 22.834 1.39405C22.0066 1.39405 21.1267 1.36376 20.2046 1.29426C19.9444 1.25966 19.7412 1.36374 19.5943 1.59755C19.4665 1.80135 19.4004 2.06553 19.4004 2.38643C19.4004 2.68973 19.4665 2.94544 19.5943 3.14894C19.7412 3.38314 19.9444 3.49564 20.1995 3.47834C20.6443 3.44374 20.9564 3.45227 21.1412 3.50447C21.3821 3.58667 21.5003 3.76436 21.5003 4.03736ZM44.7949 3.45222H49.1087C50.1776 3.45222 50.9911 3.74257 51.5445 4.31916C52.0788 4.87816 52.3438 5.72317 52.3438 6.85847C52.3438 7.99797 52.0788 8.86907 51.5445 9.47987C50.9911 10.1257 50.1776 10.4462 49.1087 10.4462H44.7949V3.45222ZM42.2406 3.95942V17.4965C42.2406 17.683 42.0563 17.7956 41.6875 17.8305C41.446 17.8478 41.0299 17.8304 40.4341 17.7783C40.1974 17.7088 40.0038 17.7955 39.8521 18.0339C39.7435 18.2332 39.6866 18.5062 39.6866 18.8444C39.6866 19.1823 39.7435 19.4553 39.8521 19.6591C39.9987 19.9103 40.1928 20.0143 40.4341 19.9625C41.4132 19.893 42.3971 19.8626 43.3949 19.8626C44.4119 19.8626 45.4522 19.893 46.5215 19.9625C46.8194 20.0143 47.0464 19.9103 47.212 19.6591C47.3775 19.4553 47.4626 19.1823 47.4626 18.8444C47.4626 18.5062 47.3821 18.2332 47.2165 18.0339C47.051 17.7955 46.8194 17.7088 46.526 17.7783C45.9398 17.8304 45.5282 17.8478 45.2918 17.8305C44.9604 17.7956 44.7949 17.6873 44.7949 17.501V12.6303H48.4465C49.5344 13.0679 50.4095 13.9088 51.0714 15.1438C51.644 16.1924 52.0224 17.4317 52.2066 18.8703V19.0219C52.2256 19.4293 52.2681 19.6848 52.3438 19.7846C52.4527 19.9709 52.6752 20.0316 53.0108 19.9625C53.4743 19.9103 53.9899 19.8845 54.5622 19.8845C55.1204 19.8845 55.7307 19.9103 56.3974 19.9625C56.6905 19.997 56.9224 19.893 57.0879 19.6591C57.2534 19.438 57.3388 19.165 57.3388 18.8444C57.3388 18.5062 57.2534 18.2332 57.0879 18.0339C56.9224 17.7955 56.6905 17.7088 56.3974 17.7783C55.7871 17.865 55.3899 17.8912 55.2054 17.8563C54.9452 17.8217 54.7796 17.6873 54.7042 17.4489C54.4675 16.3136 54.1603 15.3818 53.7912 14.6539C53.1809 13.3843 52.3864 12.5566 51.4075 12.1665C52.5519 11.7592 53.4128 11.1744 53.9851 10.4116C54.6518 9.53203 54.9832 8.34917 54.9832 6.85847C54.9832 5.18147 54.5858 3.87695 53.7912 2.94545C52.8498 1.82745 51.3551 1.26844 49.3025 1.26844C47.0654 1.33764 45.3108 1.36793 44.038 1.36793C42.761 1.36793 41.5597 1.33764 40.4341 1.26844C40.1928 1.23364 39.9987 1.33763 39.8521 1.57173C39.7435 1.77533 39.6866 2.03976 39.6866 2.36036C39.6866 2.66366 39.7435 2.91934 39.8521 3.12294C40.0038 3.36134 40.1974 3.46952 40.4341 3.45222C41.0299 3.41772 41.446 3.42644 41.6875 3.47834C42.0563 3.54784 42.2406 3.70792 42.2406 3.95942ZM71.4763 3.95942V17.2711C71.4763 17.5226 71.3294 17.6915 71.0315 17.7783C70.7761 17.8477 70.3693 17.8477 69.8112 17.7783C69.57 17.7437 69.3761 17.8477 69.2293 18.0816C69.1207 18.2854 69.0637 18.5497 69.0637 18.8703C69.0637 19.1911 69.1207 19.4553 69.2293 19.6591C69.3761 19.8757 69.5745 19.971 69.8112 19.9364C71.0128 19.8669 72.0676 19.8366 72.9755 19.8366C74.0303 19.8366 74.8676 19.8757 75.4967 19.9625C75.7569 19.997 75.9695 19.893 76.135 19.6591C76.2816 19.4553 76.3575 19.1911 76.3575 18.8703C76.3575 18.5497 76.2816 18.2854 76.135 18.0816C75.9695 17.8477 75.7569 17.7522 75.4967 17.8043C75 17.8735 74.631 17.865 74.39 17.7783C74.1485 17.6961 74.0303 17.5268 74.0303 17.2711V5.87025L76.3575 12.1926L77.7102 15.7459C77.9325 16.4089 78.3534 16.7382 78.9824 16.7382C79.6256 16.7382 80.0704 16.4089 80.307 15.7459L81.5509 12.2448L84.0199 5.87025V17.2711C84.0199 17.592 83.8733 17.7871 83.5751 17.8563C83.3909 17.8912 83.0501 17.8735 82.5535 17.8043C82.2746 17.7522 82.0617 17.839 81.9149 18.0601C81.7873 18.2594 81.721 18.5235 81.721 18.8444C81.721 19.1477 81.7873 19.412 81.9149 19.6331C82.0617 19.8715 82.2746 19.9797 82.5535 19.9625C83.367 19.9103 84.2611 19.8845 85.2447 19.8845C86.2051 19.8845 87.1935 19.9103 88.2103 19.9625C88.4705 19.9797 88.6741 19.8626 88.8206 19.6069C88.9672 19.3861 89.0431 19.1259 89.0431 18.8184C89.0431 18.4978 88.9672 18.2375 88.8206 18.0339C88.6741 17.8128 88.4705 17.7349 88.2103 17.8043H88.1253C87.5153 17.8735 87.1178 17.8912 86.9336 17.8563C86.6921 17.7871 86.5739 17.592 86.5739 17.2711V3.91175C86.5739 3.67336 86.7017 3.53024 86.9617 3.47834C87.1652 3.44374 87.5813 3.45227 88.2103 3.50447C88.4705 3.55637 88.6741 3.46953 88.8206 3.24873C88.9672 3.04943 89.0431 2.77627 89.0431 2.43837C89.0431 2.11777 88.9672 1.84477 88.8206 1.62367C88.6741 1.37227 88.4705 1.26842 88.2103 1.32032C87.3594 1.37222 86.6496 1.39833 86.0775 1.39833C85.5049 1.39833 84.9091 1.37222 84.2988 1.32032C83.8212 1.25092 83.4521 1.32032 83.1921 1.52412C83.0643 1.64092 82.9036 1.89663 82.719 2.28663L82.6672 2.43837L79.3373 11.2351C79.2285 11.5427 79.1199 11.6943 79.0108 11.6943C78.9019 11.6943 78.7933 11.5427 78.6845 11.2351L75.3028 2.18263L75.2174 2.00496C75.0899 1.63246 74.962 1.41555 74.8297 1.34645C74.6641 1.22935 74.333 1.22052 73.8316 1.32032C73.2406 1.37222 72.6493 1.39833 72.0579 1.39833C71.4476 1.39833 70.7004 1.36376 69.8112 1.29426C69.57 1.25966 69.3761 1.36374 69.2293 1.59755C69.1207 1.80135 69.0637 2.05706 69.0637 2.36036C69.0637 2.66796 69.1207 2.92814 69.2293 3.14894C69.3761 3.38734 69.57 3.49564 69.8112 3.47834L70.3127 3.45222C70.809 3.45222 71.1166 3.46957 71.2257 3.50447C71.4099 3.57367 71.495 3.72522 71.4763 3.95942ZM95.7547 3.90724V17.4232C95.7547 17.7089 95.4517 17.8735 94.8417 17.9038C94.4162 17.9214 93.9148 17.878 93.3422 17.7783C92.9547 17.7264 92.6519 17.8217 92.4294 18.0556C92.2452 18.2594 92.1505 18.5324 92.1505 18.8703C92.1505 19.1911 92.2452 19.4641 92.4294 19.6807C92.6519 19.9191 92.9547 20.0143 93.3422 19.9625C94.6007 19.893 95.8916 19.8626 97.2256 19.8626C98.5783 19.8626 99.7136 19.893 100.636 19.9625C101.043 20.0143 101.369 19.9191 101.605 19.6807C101.828 19.4641 101.941 19.1911 101.941 18.8703C101.941 18.5324 101.828 18.2594 101.605 18.0556C101.369 17.8217 101.043 17.7264 100.636 17.7783C100.012 17.878 99.5104 17.9214 99.1413 17.9038C98.6067 17.8735 98.3374 17.7089 98.3374 17.4232V3.90724C98.3374 3.67334 98.4836 3.53024 98.7818 3.47834C98.9664 3.42644 99.3635 3.40896 99.9738 3.42646L100.636 3.45222C101.043 3.50442 101.369 3.40895 101.605 3.17085C101.828 2.97125 101.941 2.69826 101.941 2.36036C101.941 2.03976 101.828 1.76683 101.605 1.54573C101.369 1.31153 101.043 1.21634 100.636 1.26844C99.5668 1.33764 98.3374 1.36793 96.9464 1.36793C95.5418 1.36793 94.3405 1.33764 93.3422 1.26844C92.9547 1.21634 92.6519 1.31153 92.4294 1.54573C92.2452 1.76683 92.1505 2.03976 92.1505 2.36036C92.1505 2.69826 92.2452 2.97125 92.4294 3.17085C92.6519 3.40895 92.9547 3.50442 93.3422 3.45222L93.8153 3.42646C94.4256 3.40896 94.8513 3.42644 95.0877 3.47834C95.5322 3.53024 95.7547 3.67334 95.7547 3.90724ZM112.759 3.06227C113.96 3.06227 114.892 3.32675 115.559 3.85115C116.315 4.45775 116.637 5.36343 116.528 6.56813C116.49 6.92333 116.609 7.20933 116.888 7.43043C117.148 7.61663 117.47 7.70765 117.857 7.70765C118.226 7.70765 118.534 7.61663 118.77 7.43043C119.03 7.20933 119.13 6.92333 119.078 6.56813C118.964 5.95693 118.945 5.21176 119.021 4.33216C119.116 3.36586 119.3 2.62916 119.574 2.12196C119.74 1.80136 119.716 1.52843 119.494 1.31153C119.31 1.12534 119.021 0.986748 118.633 0.904247C118.269 0.835047 117.928 0.843571 117.616 0.93037C117.285 1.01277 117.11 1.16877 117.091 1.38527L117.034 1.51533C116.997 1.68433 116.94 1.76686 116.864 1.76686C116.751 1.78416 116.509 1.69313 116.141 1.48933C115.824 1.32033 115.318 1.17296 114.613 1.05616C113.894 0.939064 113.227 0.878429 112.617 0.878429C110.455 0.878429 108.771 1.37672 107.57 2.37342C106.406 3.33553 105.825 4.64395 105.825 6.29945C105.825 8.12375 106.51 9.47566 107.877 10.351C108.691 10.8581 110.096 11.313 112.092 11.7203L112.702 11.846C114.182 12.1711 115.185 12.5089 115.725 12.8687C116.372 13.2933 116.694 13.9217 116.694 14.7537C116.694 15.9105 116.344 16.7859 115.639 17.3798C114.939 17.9561 113.917 18.2464 112.588 18.2464C111.051 18.2464 109.916 17.9994 109.173 17.5095C108.27 16.9333 107.882 16.0016 108.01 14.7147C108.029 14.3722 107.892 14.1038 107.594 13.9C107.314 13.7311 106.983 13.6531 106.596 13.6704C106.203 13.6704 105.9 13.7701 105.678 13.9736C105.418 14.212 105.347 14.5241 105.456 14.9138C105.664 15.6463 105.787 16.4135 105.825 17.2282C105.863 18.112 105.796 18.8399 105.631 19.4165C105.536 19.6676 105.593 19.8972 105.796 20.101C105.999 20.2872 106.269 20.4132 106.6 20.4823C106.95 20.5518 107.253 20.5344 107.513 20.4304C107.807 20.3306 107.972 20.1444 108.01 19.8715C108.048 19.5854 108.176 19.4552 108.398 19.4898C108.544 19.5074 108.89 19.6503 109.424 19.9232C109.798 20.0922 110.247 20.218 110.786 20.3045C111.269 20.387 111.86 20.4304 112.56 20.4304C114.726 20.4304 116.41 19.9364 117.612 18.9528C118.78 18.021 119.361 16.7426 119.361 15.1135C119.361 14.1123 119.196 13.2803 118.86 12.6173C118.567 12.0065 118.132 11.5165 117.559 11.1441C117.077 10.8189 116.467 10.5502 115.729 10.3294C115.303 10.2081 114.613 10.0564 113.648 9.86995L112.65 9.66646C111.264 9.36306 110.294 9.03374 109.741 8.67824C108.89 8.10624 108.464 7.26994 108.464 6.17354C108.464 5.22904 108.776 4.49652 109.405 3.97242C110.143 3.36582 111.264 3.06227 112.759 3.06227ZM130.33 3.06227C131.532 3.06227 132.463 3.32675 133.13 3.85115C133.887 4.45775 134.209 5.36343 134.1 6.56813C134.062 6.92333 134.18 7.20933 134.459 7.43043C134.72 7.61663 135.041 7.70765 135.429 7.70765C135.798 7.70765 136.105 7.61663 136.342 7.43043C136.602 7.20933 136.701 6.92333 136.649 6.56813C136.536 5.95693 136.517 5.21176 136.593 4.33216C136.687 3.36586 136.872 2.62916 137.146 2.12196C137.311 1.80136 137.288 1.52843 137.065 1.31153C136.881 1.12534 136.593 0.986748 136.205 0.904247C135.84 0.835047 135.5 0.843571 135.188 0.93037C134.856 1.01277 134.682 1.16877 134.663 1.38527L134.606 1.51533C134.568 1.68433 134.511 1.76686 134.436 1.76686C134.322 1.78416 134.081 1.69313 133.712 1.48933C133.395 1.32033 132.889 1.17296 132.184 1.05616C131.465 0.939064 130.798 0.878429 130.188 0.878429C128.027 0.878429 126.343 1.37672 125.142 2.37342C123.978 3.33553 123.396 4.64395 123.396 6.29945C123.396 8.12375 124.082 9.47566 125.449 10.351C126.262 10.8581 127.667 11.313 129.663 11.7203L130.273 11.846C131.754 12.1711 132.757 12.5089 133.296 12.8687C133.944 13.2933 134.265 13.9217 134.265 14.7537C134.265 15.9105 133.915 16.7859 133.211 17.3798C132.511 17.9561 131.489 18.2464 130.16 18.2464C128.623 18.2464 127.488 17.9994 126.745 17.5095C125.841 16.9333 125.454 16.0016 125.581 14.7147C125.6 14.3722 125.463 14.1038 125.165 13.9C124.886 13.7311 124.555 13.6531 124.167 13.6704C123.775 13.6704 123.472 13.7701 123.249 13.9736C122.989 14.212 122.918 14.5241 123.027 14.9138C123.235 15.6463 123.358 16.4135 123.396 17.2282C123.434 18.112 123.368 18.8399 123.202 19.4165C123.107 19.6676 123.164 19.8972 123.368 20.101C123.571 20.2872 123.841 20.4132 124.172 20.4823C124.522 20.5518 124.825 20.5344 125.085 20.4304C125.378 20.3306 125.544 20.1444 125.581 19.8715C125.619 19.5854 125.747 19.4552 125.969 19.4898C126.116 19.5074 126.461 19.6503 126.995 19.9232C127.369 20.0922 127.819 20.218 128.358 20.3045C128.84 20.387 129.432 20.4304 130.132 20.4304C132.298 20.4304 133.982 19.9364 135.183 18.9528C136.351 18.021 136.933 16.7426 136.933 15.1135C136.933 14.1123 136.768 13.2803 136.432 12.6173C136.139 12.0065 135.703 11.5165 135.131 11.1441C134.649 10.8189 134.038 10.5502 133.301 10.3294C132.875 10.2081 132.184 10.0564 131.22 9.86995L130.221 9.66646C128.836 9.36306 127.866 9.03374 127.313 8.67824C126.461 8.10624 126.035 7.26994 126.035 6.17354C126.035 5.22904 126.348 4.49652 126.977 3.97242C127.715 3.36582 128.836 3.06227 130.33 3.06227ZM144.033 3.90724V17.4232C144.033 17.7089 143.73 17.8735 143.119 17.9038C142.694 17.9214 142.193 17.878 141.62 17.7783C141.232 17.7264 140.93 17.8217 140.707 18.0556C140.523 18.2594 140.428 18.5324 140.428 18.8703C140.428 19.1911 140.523 19.4641 140.707 19.6807C140.93 19.9191 141.232 20.0143 141.62 19.9625C142.878 19.893 144.17 19.8626 145.504 19.8626C146.856 19.8626 147.991 19.893 148.914 19.9625C149.321 20.0143 149.647 19.9191 149.883 19.6807C150.106 19.4641 150.219 19.1911 150.219 18.8703C150.219 18.5324 150.106 18.2594 149.883 18.0556C149.647 17.8217 149.321 17.7264 148.914 17.7783C148.29 17.878 147.788 17.9214 147.419 17.9038C146.885 17.8735 146.615 17.7089 146.615 17.4232V3.90724C146.615 3.67334 146.762 3.53024 147.06 3.47834C147.244 3.42644 147.641 3.40896 148.251 3.42646L148.914 3.45222C149.321 3.50442 149.647 3.40895 149.883 3.17085C150.106 2.97125 150.219 2.69826 150.219 2.36036C150.219 2.03976 150.106 1.76683 149.883 1.54573C149.647 1.31153 149.321 1.21634 148.914 1.26844C147.845 1.33764 146.615 1.36793 145.224 1.36793C143.82 1.36793 142.618 1.33764 141.62 1.26844C141.232 1.21634 140.93 1.31153 140.707 1.54573C140.523 1.76683 140.428 2.03976 140.428 2.36036C140.428 2.69826 140.523 2.97125 140.707 3.17085C140.93 3.40895 141.232 3.50442 141.62 3.45222L142.093 3.42646C142.703 3.40896 143.129 3.42644 143.365 3.47834C143.81 3.53024 144.033 3.67334 144.033 3.90724ZM161.481 3.03645C163.193 3.03645 164.499 3.77285 165.402 5.24635C166.192 6.56355 166.589 8.36183 166.589 10.6284C166.589 12.8817 166.192 14.6671 165.402 15.9843C164.499 17.4751 163.193 18.2202 161.481 18.2202C159.75 18.2202 158.444 17.4751 157.56 15.9843C156.77 14.6671 156.373 12.8817 156.373 10.6284C156.373 8.36183 156.77 6.56355 157.56 5.24635C158.444 3.77285 159.75 3.03645 161.481 3.03645ZM161.481 0.852367C158.899 0.852367 156.926 1.81862 155.559 3.74702C154.325 5.48892 153.705 7.79445 153.705 10.6542C153.705 13.4971 154.325 15.7849 155.559 17.5095C156.926 19.4379 158.899 20.4044 161.481 20.4044C164.045 20.4044 166.013 19.4379 167.375 17.5095C168.628 15.7676 169.257 13.4795 169.257 10.6542C169.257 7.79445 168.628 5.48892 167.375 3.74702C166.013 1.81862 164.045 0.852367 161.481 0.852367ZM175.042 3.95942V17.319C175.042 17.5399 174.947 17.6743 174.763 17.7265C174.654 17.7611 174.365 17.7699 173.907 17.7523H173.353C173.131 17.6831 172.956 17.7698 172.823 18.0079C172.715 18.2117 172.658 18.4805 172.658 18.8184C172.658 19.1432 172.715 19.412 172.823 19.6331C172.951 19.8715 173.126 19.971 173.349 19.9364C174.639 19.8888 175.747 19.8714 176.664 19.8887C177.681 19.8887 178.518 19.9191 179.181 19.9882C179.46 20.0231 179.677 19.9103 179.842 19.6591C180.008 19.4553 180.093 19.1911 180.093 18.8703C180.093 18.5324 180.013 18.2594 179.847 18.0556C179.682 17.8044 179.464 17.7004 179.19 17.7523C178.783 17.8044 178.457 17.8128 178.202 17.7783C177.799 17.7264 177.596 17.5747 177.596 17.319V6.07405L182.506 15.7459L184.421 19.3815C184.606 19.7413 184.885 20.0143 185.254 20.2008C185.609 20.3698 185.958 20.4304 186.308 20.3782C186.696 20.309 187.004 20.1313 187.226 19.8453C187.505 19.5074 187.642 19.0653 187.642 18.5236V3.88575C187.642 3.68185 187.732 3.55637 187.917 3.50447C188.03 3.46957 188.257 3.45222 188.607 3.45222L188.915 3.47834C189.151 3.49564 189.345 3.38314 189.492 3.14894C189.638 2.94544 189.714 2.68096 189.714 2.36036C189.714 2.03976 189.638 1.77533 189.492 1.57173C189.345 1.33763 189.151 1.24246 188.91 1.29426C187.855 1.36376 186.824 1.39405 185.807 1.39405C184.771 1.39405 183.996 1.36376 183.475 1.29426C183.182 1.24246 182.95 1.32914 182.785 1.54994C182.638 1.74924 182.562 2.01376 182.562 2.33436C182.562 2.64216 182.638 2.90204 182.785 3.12294C182.95 3.36134 183.182 3.47834 183.48 3.47834C183.887 3.40894 184.227 3.40042 184.506 3.45222C184.894 3.50442 185.088 3.64735 185.088 3.88575V15.3604L179.98 5.38075L178.258 2.03102C178.111 1.72762 177.993 1.52412 177.899 1.42012C177.714 1.28572 177.464 1.24246 177.151 1.29426C176.65 1.34646 176.078 1.37226 175.43 1.37226C174.786 1.37226 174.091 1.34646 173.353 1.29426C173.131 1.25966 172.956 1.36374 172.823 1.59755C172.715 1.80135 172.658 2.06553 172.658 2.38643C172.658 2.68973 172.715 2.95396 172.823 3.17506C172.956 3.39166 173.131 3.49564 173.353 3.47834L173.571 3.45222C174.162 3.43502 174.536 3.45227 174.682 3.50447C174.924 3.55637 175.042 3.70792 175.042 3.95942Z" fill="#2F9EBF"/>
</svg>
