<svg width="561" height="69" viewBox="0 0 561 69" fill="none" xmlns="http://www.w3.org/2000/svg">
<path d="M10.1123 47.259C12.2151 47.259 13.818 48.1635 14.9275 49.9728C15.8975 51.5906 16.3857 53.799 16.3857 56.5821C16.3857 59.3493 15.8975 61.5416 14.9275 63.1593C13.818 64.9899 12.2151 65.9053 10.1123 65.9053C7.98633 65.9053 6.38333 64.9899 5.29713 63.1593C4.32713 61.5416 3.83923 59.3493 3.83923 56.5821C3.83923 53.799 4.32713 51.5906 5.29713 49.9728C6.38333 48.1635 7.98633 47.259 10.1123 47.259ZM10.1123 44.5768C6.94093 44.5768 4.51903 45.7637 2.84003 48.1317C1.32433 50.2708 0.563232 53.102 0.563232 56.6141C0.563232 60.105 1.32433 62.9147 2.84003 65.0325C4.51903 67.4005 6.94093 68.5871 10.1123 68.5871C13.2605 68.5871 15.6767 67.4005 17.3497 65.0325C18.8889 62.8934 19.6617 60.0835 19.6617 56.6141C19.6617 53.102 18.8889 50.2708 17.3497 48.1317C15.6767 45.7637 13.2605 44.5768 10.1123 44.5768ZM26.3123 48.4881V60.9724C26.3123 63.6968 27.1312 65.6978 28.7634 66.9643C30.1459 68.0446 32.0567 68.5871 34.4846 68.5871C37.0463 68.5871 38.9976 68.0071 40.3396 66.8418C41.8147 65.5699 42.5523 63.6222 42.5523 61.0041V48.4881C42.5523 48.1368 42.6628 47.9189 42.8893 47.8335C43.0288 47.7698 43.3191 47.7593 43.7723 47.8018L43.9055 47.8335C44.2253 47.8551 44.481 47.7114 44.6842 47.3973C44.841 47.126 44.9223 46.7961 44.9223 46.3969C44.9223 46.0032 44.841 45.6784 44.6842 45.4283C44.481 45.1622 44.2193 45.0666 43.9002 45.1517C42.8369 45.2313 41.6463 45.2634 40.3276 45.2421C39.2185 45.2208 38.2076 45.1729 37.3017 45.0879C36.9822 45.0238 36.7441 45.1409 36.5873 45.4283C36.4303 45.6784 36.3489 46.0032 36.3489 46.3969C36.3489 46.7907 36.4303 47.126 36.5873 47.3973C36.7441 47.6847 36.9879 47.823 37.3017 47.8018C37.9638 47.6793 38.4633 47.6581 38.8001 47.738C39.2125 47.8443 39.4157 48.0943 39.4157 48.4881V61.0362C39.4157 62.6378 39.0557 63.8246 38.3298 64.5962C37.5109 65.469 36.2271 65.9053 34.4846 65.9053C32.7824 65.9053 31.5224 65.5007 30.7091 64.6866C29.8902 63.8779 29.4837 62.6593 29.4837 61.0362V48.4881C29.4837 48.1584 29.6634 47.9506 30.0294 47.8656C30.2791 47.7805 30.6278 47.7593 31.0808 47.8018C31.4467 47.823 31.7489 47.6793 31.9986 47.3653C32.2019 47.094 32.3065 46.764 32.3065 46.3649C32.3065 45.9499 32.2019 45.6304 31.9986 45.4017C31.7489 45.1092 31.4467 45.0133 31.0808 45.1196C29.9015 45.1837 28.8561 45.2208 27.9499 45.2421C26.9334 45.2421 25.8531 45.205 24.7207 45.1196C24.4009 45.0771 24.1515 45.205 23.9712 45.4921C23.8144 45.7424 23.7331 46.067 23.7331 46.4607C23.7331 46.8332 23.8144 47.1473 23.9712 47.3973C24.1515 47.6847 24.4009 47.823 24.7147 47.8018C25.2609 47.7593 25.6442 47.7698 25.8707 47.8335C26.1669 47.9347 26.3123 48.153 26.3123 48.4881ZM54.9184 47.7698H60.2158C61.5285 47.7698 62.5275 48.1264 63.2069 48.8342C63.8634 49.5204 64.1888 50.5582 64.1888 51.9526C64.1888 53.352 63.8634 54.4215 63.2069 55.1719C62.5275 55.9647 61.5285 56.3584 60.2158 56.3584H54.9184V47.7698ZM51.7819 48.3925V65.0166C51.7819 65.2453 51.5554 65.3837 51.1024 65.4262C50.8059 65.4475 50.2948 65.4262 49.5632 65.3624C49.2727 65.2774 49.0343 65.3837 48.8489 65.6765C48.7151 65.9211 48.6454 66.2565 48.6454 66.6715C48.6454 67.0867 48.7151 67.4218 48.8489 67.6721C49.0289 67.9805 49.2667 68.1083 49.5632 68.0446C50.7654 67.9592 51.9738 67.9221 53.1992 67.9221C54.4482 67.9221 55.726 67.9592 57.0385 68.0446C57.4044 68.1083 57.6833 67.9805 57.8866 67.6721C58.0898 67.4218 58.1944 67.0867 58.1944 66.6715C58.1944 66.2565 58.0958 65.9211 57.8922 65.6765C57.689 65.3837 57.4044 65.2774 57.0444 65.3624C56.3241 65.4262 55.8187 65.4475 55.5282 65.4262C55.1217 65.3837 54.9184 65.2507 54.9184 65.022V59.0406H59.4025C60.7385 59.578 61.8131 60.6104 62.6264 62.127C63.3288 63.4147 63.7937 64.9367 64.0202 66.7035V66.8897C64.0434 67.39 64.0956 67.7038 64.1888 67.8263C64.3224 68.055 64.5953 68.1296 65.0078 68.0446C65.5767 67.9805 66.2102 67.9487 66.9129 67.9487C67.5981 67.9487 68.3476 67.9805 69.1665 68.0446C69.5268 68.0871 69.8114 67.9592 70.0146 67.6721C70.2179 67.4005 70.3225 67.0652 70.3225 66.6715C70.3225 66.2565 70.2179 65.9211 70.0146 65.6765C69.8114 65.3837 69.5268 65.2774 69.1665 65.3624C68.417 65.469 67.9292 65.5007 67.7027 65.4582C67.3835 65.4157 67.1802 65.2507 67.087 64.9579C66.7967 63.5638 66.4194 62.4198 65.9659 61.5257C65.217 59.9664 64.241 58.9502 63.0388 58.4711C64.4442 57.9711 65.5013 57.2525 66.2043 56.3159C67.0232 55.2356 67.4297 53.7829 67.4297 51.9526C67.4297 49.8932 66.9419 48.2913 65.9659 47.1473C64.8102 45.7742 62.9748 45.0879 60.4539 45.0879C57.7063 45.1729 55.5517 45.2101 53.9892 45.2101C52.4208 45.2101 50.9457 45.1729 49.5632 45.0879C49.2667 45.0451 49.0289 45.1729 48.8489 45.4604C48.7151 45.7104 48.6454 46.035 48.6454 46.4287C48.6454 46.8012 48.7151 47.1152 48.8489 47.3653C49.0343 47.6581 49.2727 47.791 49.5632 47.7698C50.2948 47.7272 50.8059 47.738 51.1024 47.8018C51.5554 47.8868 51.7819 48.0838 51.7819 48.3925ZM86.923 48.4563L92.5747 66.8364C92.7139 67.3793 92.9812 67.8155 93.3936 68.1509C93.7534 68.4437 94.1777 68.5871 94.6539 68.5871C95.1069 68.5871 95.5137 68.4437 95.8793 68.1509C96.2861 67.8155 96.5707 67.3793 96.7275 66.8364L102.35 48.4563C102.461 48.1422 102.652 47.9455 102.925 47.8602C103.152 47.7805 103.541 47.738 104.087 47.738C104.377 47.7593 104.604 47.6155 104.767 47.3015C104.923 47.0302 104.993 46.7002 104.97 46.3011C104.923 45.9074 104.801 45.5879 104.592 45.3379C104.365 45.0666 104.058 44.9708 103.674 45.0559C102.966 45.1783 101.967 45.2421 100.666 45.2421C99.3705 45.2421 98.3713 45.1783 97.6629 45.0559C97.3431 44.9921 97.0934 45.1092 96.9134 45.3963C96.7334 45.6466 96.6404 45.9817 96.6404 46.3969C96.6404 46.7907 96.7334 47.1152 96.9134 47.3653C97.0934 47.6527 97.3431 47.7805 97.6629 47.738C98.0694 47.6314 98.4237 47.6527 98.714 47.8018C99.0567 47.9242 99.1845 48.1422 99.0916 48.4563L94.9385 62.4036C94.8047 62.7602 94.6888 62.936 94.6015 62.936C94.5088 62.936 94.4158 62.7602 94.3288 62.4036L90.1755 48.4563C90.0655 48.1422 90.1409 47.9347 90.4139 47.8335C90.5939 47.7698 90.9133 47.738 91.3663 47.738C91.6858 47.7593 91.9358 47.6155 92.1155 47.3015C92.2955 47.0302 92.3888 46.7002 92.3888 46.3011C92.3888 45.8861 92.2955 45.5667 92.1155 45.3379C91.9358 45.0451 91.6858 44.9496 91.3722 45.0559C90.1701 45.1783 89.0141 45.2421 87.9043 45.2421C86.8184 45.2421 85.8773 45.1783 85.0819 45.0559C84.8086 44.9921 84.5821 45.1196 84.4019 45.4283C84.2683 45.6999 84.1986 46.0457 84.1986 46.4607C84.1986 46.8544 84.2683 47.179 84.4019 47.4239C84.5821 47.7165 84.8143 47.823 85.0819 47.738C85.5811 47.6527 85.9819 47.6635 86.2781 47.7698C86.5684 47.8922 86.7895 48.121 86.923 48.4563ZM112.974 48.3285V64.9262C112.974 65.2774 112.602 65.4795 111.853 65.5169C111.33 65.5382 110.715 65.4849 110.012 65.3624C109.535 65.2986 109.163 65.4157 108.891 65.7031C108.664 65.9532 108.548 66.2885 108.548 66.7035C108.548 67.0972 108.664 67.4326 108.891 67.6984C109.163 67.9913 109.535 68.1083 110.012 68.0446C111.557 67.9592 113.142 67.9221 114.781 67.9221C116.442 67.9221 117.835 67.9592 118.968 68.0446C119.468 68.1083 119.869 67.9913 120.159 67.6984C120.432 67.4326 120.571 67.0972 120.571 66.7035C120.571 66.2885 120.432 65.9532 120.159 65.7031C119.869 65.4157 119.468 65.2986 118.968 65.3624C118.202 65.4849 117.586 65.5382 117.133 65.5169C116.476 65.4795 116.145 65.2774 116.145 64.9262V48.3285C116.145 48.0413 116.325 47.8656 116.691 47.8018C116.918 47.738 117.406 47.7165 118.155 47.738L118.968 47.7698C119.468 47.8335 119.869 47.7165 120.159 47.4239C120.432 47.179 120.571 46.844 120.571 46.4287C120.571 46.035 120.432 45.6999 120.159 45.4283C119.869 45.1409 119.468 45.0238 118.968 45.0879C117.655 45.1729 116.145 45.2101 114.438 45.2101C112.712 45.2101 111.237 45.1729 110.012 45.0879C109.535 45.0238 109.163 45.1409 108.891 45.4283C108.664 45.6999 108.548 46.035 108.548 46.4287C108.548 46.844 108.664 47.179 108.891 47.4239C109.163 47.7165 109.535 47.8335 110.012 47.7698L110.592 47.738C111.342 47.7165 111.865 47.738 112.155 47.8018C112.701 47.8656 112.974 48.0413 112.974 48.3285ZM133.855 47.291C135.331 47.291 136.475 47.6155 137.294 48.2593C138.223 49.0042 138.618 50.1166 138.484 51.596C138.438 52.0322 138.583 52.3834 138.926 52.655C139.245 52.8837 139.64 52.9954 140.117 52.9954C140.57 52.9954 140.947 52.8837 141.238 52.655C141.557 52.3834 141.679 52.0322 141.615 51.596C141.476 50.8456 141.453 49.9303 141.546 48.85C141.662 47.6635 141.888 46.7586 142.225 46.1361C142.429 45.7424 142.399 45.4071 142.126 45.1409C141.9 44.9121 141.546 44.7418 141.069 44.6409C140.622 44.5555 140.204 44.5663 139.82 44.6726C139.414 44.7738 139.199 44.9654 139.175 45.2313L139.106 45.3912C139.06 45.5987 138.99 45.6999 138.897 45.6999C138.758 45.7212 138.461 45.6092 138.008 45.3592C137.619 45.1517 136.997 44.9708 136.132 44.8271C135.249 44.6834 134.43 44.6088 133.681 44.6088C131.026 44.6088 128.959 45.2208 127.483 46.4448C126.054 47.626 125.34 49.2333 125.34 51.266C125.34 53.5062 126.182 55.1665 127.861 56.2414C128.86 56.8641 130.585 57.4229 133.036 57.9232L133.785 58.0774C135.604 58.4765 136.835 58.8915 137.497 59.3334C138.293 59.8547 138.688 60.6263 138.688 61.6482C138.688 63.0689 138.258 64.1438 137.392 64.8729C136.533 65.5807 135.278 65.9373 133.646 65.9373C131.758 65.9373 130.364 65.634 129.453 65.0325C128.343 64.3247 127.867 63.1806 128.023 61.6003C128.047 61.1799 127.878 60.8499 127.512 60.5996C127.17 60.3921 126.763 60.2963 126.287 60.3176C125.805 60.3176 125.433 60.4401 125.16 60.6904C124.84 60.9829 124.753 61.3661 124.887 61.8449C125.143 62.7443 125.293 63.6863 125.34 64.6866C125.387 65.7723 125.305 66.6661 125.102 67.3739C124.986 67.6826 125.056 67.9646 125.305 68.2146C125.555 68.4437 125.886 68.5979 126.293 68.6829C126.722 68.7682 127.094 68.747 127.413 68.6191C127.774 68.4967 127.977 68.2679 128.023 67.9326C128.07 67.5814 128.227 67.4218 128.5 67.4643C128.68 67.4856 129.104 67.6613 129.76 67.9967C130.219 68.2041 130.771 68.3584 131.433 68.4649C132.026 68.5658 132.752 68.6191 133.611 68.6191C136.271 68.6191 138.339 68.0125 139.814 66.8047C141.249 65.6603 141.964 64.0905 141.964 62.0898C141.964 60.8604 141.76 59.8388 141.348 59.0247C140.988 58.2744 140.453 57.6729 139.751 57.2154C139.158 56.8162 138.409 56.4863 137.503 56.215C136.98 56.0659 136.132 55.8797 134.947 55.6509L133.722 55.4006C132.02 55.0281 130.829 54.6239 130.149 54.1874C129.104 53.485 128.581 52.458 128.581 51.1115C128.581 49.9516 128.965 49.0521 129.737 48.4084C130.643 47.6635 132.02 47.291 133.855 47.291ZM150.682 48.3285V64.9262C150.682 65.2774 150.311 65.4795 149.561 65.5169C149.038 65.5382 148.423 65.4849 147.72 65.3624C147.244 65.2986 146.872 65.4157 146.599 65.7031C146.372 65.9532 146.256 66.2885 146.256 66.7035C146.256 67.0972 146.372 67.4326 146.599 67.6984C146.872 67.9913 147.244 68.1083 147.72 68.0446C149.265 67.9592 150.851 67.9221 152.489 67.9221C154.15 67.9221 155.544 67.9592 156.677 68.0446C157.176 68.1083 157.577 67.9913 157.867 67.6984C158.14 67.4326 158.28 67.0972 158.28 66.7035C158.28 66.2885 158.14 65.9532 157.867 65.7031C157.577 65.4157 157.176 65.2986 156.677 65.3624C155.91 65.4849 155.294 65.5382 154.841 65.5169C154.185 65.4795 153.854 65.2774 153.854 64.9262V48.3285C153.854 48.0413 154.034 47.8656 154.4 47.8018C154.626 47.738 155.114 47.7165 155.863 47.738L156.677 47.7698C157.176 47.8335 157.577 47.7165 157.867 47.4239C158.14 47.179 158.28 46.844 158.28 46.4287C158.28 46.035 158.14 45.6999 157.867 45.4283C157.577 45.1409 157.176 45.0238 156.677 45.0879C155.364 45.1729 153.854 45.2101 152.146 45.2101C150.421 45.2101 148.945 45.1729 147.72 45.0879C147.244 45.0238 146.872 45.1409 146.599 45.4283C146.372 45.6999 146.256 46.035 146.256 46.4287C146.256 46.844 146.372 47.179 146.599 47.4239C146.872 47.7165 147.244 47.8335 147.72 47.7698L148.3 47.738C149.05 47.7165 149.573 47.738 149.863 47.8018C150.409 47.8656 150.682 48.0413 150.682 48.3285ZM172.11 47.259C174.212 47.259 175.815 48.1635 176.925 49.9728C177.895 51.5906 178.383 53.799 178.383 56.5821C178.383 59.3493 177.895 61.5416 176.925 63.1593C175.815 64.9899 174.212 65.9053 172.11 65.9053C169.984 65.9053 168.381 64.9899 167.294 63.1593C166.324 61.5416 165.836 59.3493 165.836 56.5821C165.836 53.799 166.324 51.5906 167.294 49.9728C168.381 48.1635 169.984 47.259 172.11 47.259ZM172.11 44.5768C168.938 44.5768 166.516 45.7637 164.837 48.1317C163.321 50.2708 162.56 53.102 162.56 56.6141C162.56 60.105 163.321 62.9147 164.837 65.0325C166.516 67.4005 168.938 68.5871 172.11 68.5871C175.258 68.5871 177.674 67.4005 179.347 65.0325C180.886 62.8934 181.659 60.0835 181.659 56.6141C181.659 53.102 180.886 50.2708 179.347 48.1317C177.674 45.7637 175.258 44.5768 172.11 44.5768ZM188.762 48.3925V64.7983C188.762 65.0699 188.646 65.2349 188.42 65.2986C188.286 65.3412 187.931 65.3519 187.368 65.3304H186.689C186.416 65.2453 186.201 65.3519 186.038 65.6445C185.905 65.8945 185.835 66.2244 185.835 66.6397C185.835 67.0388 185.905 67.3685 186.038 67.6401C186.195 67.9326 186.41 68.055 186.683 68.0125C188.268 67.9538 189.628 67.9326 190.754 67.9538C192.003 67.9538 193.031 67.9913 193.844 68.0763C194.187 68.1188 194.454 67.9805 194.658 67.6721C194.861 67.4218 194.966 67.0972 194.966 66.7035C194.966 66.2885 194.867 65.9532 194.664 65.7031C194.46 65.3944 194.193 65.2666 193.856 65.3304C193.357 65.3944 192.956 65.4049 192.642 65.3624C192.148 65.2986 191.899 65.1124 191.899 64.7983V50.9893L197.928 62.8668L200.28 67.3314C200.507 67.773 200.849 68.1083 201.302 68.3371C201.738 68.5446 202.168 68.6191 202.598 68.5554C203.074 68.47 203.452 68.2521 203.725 67.9008C204.067 67.4856 204.236 66.943 204.236 66.2777V48.3018C204.236 48.0518 204.346 47.8976 204.573 47.8335C204.712 47.791 204.991 47.7698 205.421 47.7698L205.798 47.8018C206.089 47.823 206.327 47.6847 206.507 47.3973C206.687 47.1473 206.78 46.8227 206.78 46.4287C206.78 46.035 206.687 45.7104 206.507 45.4604C206.327 45.1729 206.089 45.0559 205.792 45.1196C204.497 45.205 203.231 45.2421 201.982 45.2421C200.71 45.2421 199.758 45.205 199.119 45.1196C198.759 45.0559 198.474 45.1622 198.271 45.4337C198.09 45.6784 197.998 46.0032 197.998 46.3969C197.998 46.7748 198.09 47.094 198.271 47.3653C198.474 47.6581 198.759 47.8018 199.125 47.8018C199.624 47.7165 200.042 47.706 200.385 47.7698C200.861 47.8335 201.099 48.0093 201.099 48.3018V62.3931L194.826 50.1378L192.712 46.0245C192.532 45.652 192.387 45.4017 192.271 45.2741C192.044 45.1092 191.736 45.0559 191.353 45.1196C190.737 45.1837 190.034 45.2155 189.238 45.2155C188.448 45.2155 187.595 45.1837 186.689 45.1196C186.416 45.0771 186.201 45.205 186.038 45.4921C185.905 45.7424 185.835 46.067 185.835 46.4607C185.835 46.8332 185.905 47.1578 186.038 47.4293C186.201 47.6952 186.416 47.823 186.689 47.8018L186.956 47.7698C187.682 47.7485 188.141 47.7698 188.321 47.8335C188.617 47.8976 188.762 48.0838 188.762 48.3925ZM467.099 0.797401V21.7304H462.335L462.322 7.59861L460.43 21.7304H457.095L455.097 7.91629L455.084 21.7304H450.321V0.797401H457.356C457.554 2.0634 457.77 3.55412 458.004 5.25663L458.776 10.5715L460.015 0.797401H467.099ZM481.655 0.797401L484.769 21.7304H479.207L478.911 17.9725H476.948L476.653 21.7304H471.021L473.782 0.797401H481.655ZM478.766 14.2676C478.506 11.8948 478.232 8.95718 477.941 5.45078C477.403 9.47308 477.063 12.4107 476.918 14.2676H478.766ZM500.189 7.14872H495.134V5.60068C495.134 4.87728 495.068 4.41414 494.94 4.21574C494.812 4.01733 494.601 3.92008 494.301 3.92008C493.974 3.92008 493.727 4.05239 493.56 4.32139C493.392 4.58619 493.309 4.98763 493.309 5.53012C493.309 6.22692 493.405 6.75193 493.595 7.10483C493.78 7.45323 494.292 7.88092 495.134 8.38382C497.547 9.82602 499.069 11.0126 499.695 11.9344C500.326 12.8563 500.639 14.3425 500.639 16.3891C500.639 17.8798 500.463 18.9783 500.114 19.6883C499.766 20.3939 499.095 20.9849 498.094 21.4614C497.097 21.9422 495.937 22.1803 494.61 22.1803C493.154 22.1803 491.915 21.9025 490.883 21.3511C489.855 20.7998 489.184 20.0985 488.862 19.2473C488.545 18.3915 488.386 17.1785 488.386 15.613V14.241H493.441V16.7859C493.441 17.5711 493.511 18.074 493.652 18.2988C493.794 18.5239 494.045 18.6341 494.407 18.6341C494.768 18.6341 495.037 18.493 495.214 18.2064C495.39 17.9241 495.479 17.5006 495.479 16.945C495.479 15.7142 495.311 14.9071 494.976 14.5321C494.627 14.1528 493.78 13.5179 492.431 12.627C491.081 11.7315 490.19 11.0787 489.749 10.6727C489.312 10.2671 488.946 9.707 488.66 8.9924C488.373 8.278 488.228 7.36501 488.228 6.25351C488.228 4.65221 488.43 3.47901 488.84 2.73801C489.251 1.99702 489.908 1.4193 490.821 1.0004C491.734 0.581406 492.832 0.37394 494.124 0.37394C495.536 0.37394 496.736 0.603195 497.732 1.05759C498.725 1.5163 499.382 2.08968 499.704 2.78678C500.026 3.47898 500.189 4.65681 500.189 6.31961V7.14872ZM516.293 0.797401V4.97879H513.091V21.7304H507.639V4.97879H504.411V0.797401H516.293ZM520.511 0.797401H529.588V4.97879H525.962V8.97483H529.35V12.9444H525.962V17.549H529.958V21.7304H520.511V0.797401ZM534.48 0.797401H538.33C540.897 0.797401 542.635 0.894417 543.544 1.09312C544.453 1.29152 545.194 1.79862 545.767 2.61472C546.34 3.42632 546.627 4.72739 546.627 6.50919C546.627 8.13689 546.424 9.23053 546.018 9.79093C545.617 10.351 544.819 10.6861 543.628 10.7963C544.704 11.0653 545.432 11.4228 545.802 11.8727C546.173 12.318 546.402 12.7327 546.49 13.1077C546.583 13.4824 546.627 14.5145 546.627 16.204V21.7304H541.572V14.766C541.572 13.6457 541.484 12.9532 541.308 12.6842C541.136 12.4152 540.677 12.2828 539.932 12.2828V21.7304H534.48V0.797401ZM539.932 4.36991V9.02781C540.54 9.02781 540.964 8.9439 541.206 8.7764C541.449 8.6086 541.572 8.06183 541.572 7.13993V5.9888C541.572 5.32261 541.453 4.88613 541.22 4.67893C540.986 4.47144 540.554 4.36991 539.932 4.36991ZM438.784 32.2679V45.7294C438.784 46.1262 438.595 46.3777 438.216 46.4791C437.955 46.5497 437.594 46.5497 437.126 46.4791C436.884 46.4261 436.694 46.5321 436.557 46.7878C436.42 46.9953 436.35 47.2643 436.35 47.5906C436.35 47.9172 436.42 48.195 436.557 48.4155C436.694 48.6406 436.884 48.7375 437.126 48.7021C438.776 48.6493 440.646 48.6227 442.728 48.6227C444.827 48.6227 446.636 48.6493 448.148 48.7021C448.854 48.7727 449.331 48.7463 449.569 48.6227C449.793 48.4861 449.904 48.1774 449.904 47.6966C449.82 47.0571 449.811 46.0865 449.882 44.7812C449.93 43.8857 450.018 42.73 450.138 41.3187C450.173 41.01 450.058 40.7719 449.802 40.5998C449.577 40.4453 449.282 40.3659 448.92 40.3659C448.541 40.3659 448.228 40.4453 447.985 40.5998C447.712 40.7719 447.588 41.01 447.623 41.3187C447.659 42.6595 447.668 43.6079 447.65 44.1593C447.597 44.8606 447.478 45.3765 447.288 45.7073C447.085 46.0338 446.75 46.2456 446.287 46.3513C445.925 46.4352 445.299 46.4791 444.408 46.4791H443.535C442.591 46.4791 441.991 46.4528 441.731 46.3998C441.356 46.2983 441.166 46.0735 441.166 45.7294V32.2679C441.166 32.0961 441.338 31.9813 441.678 31.9329C441.903 31.8974 442.317 31.8799 442.935 31.8799L443.394 31.9065C443.702 31.9241 443.949 31.8093 444.139 31.5666C444.311 31.3594 444.395 31.095 444.395 30.7641C444.395 30.4376 444.311 30.1686 444.139 29.9614C443.949 29.7187 443.698 29.626 443.389 29.679C442.066 29.7451 440.862 29.7805 439.781 29.7805C438.679 29.7805 437.792 29.7451 437.122 29.679C436.884 29.626 436.694 29.7187 436.557 29.9614C436.42 30.1686 436.35 30.4376 436.35 30.7641C436.35 31.095 436.42 31.3594 436.557 31.5666C436.694 31.8093 436.884 31.9241 437.126 31.9065L437.461 31.8799C437.894 31.8799 438.198 31.8974 438.37 31.9329C438.648 31.9813 438.784 32.0961 438.784 32.2679ZM460.586 33.3576L462.677 40.1542H458.465L460.586 33.3576ZM455.81 29.6745C455.567 29.6394 455.377 29.7451 455.24 29.9877C455.104 30.1907 455.033 30.4597 455.033 30.786C455.033 31.095 455.104 31.364 455.24 31.5887C455.377 31.8093 455.567 31.9153 455.81 31.8974C456.224 31.8974 456.661 31.8887 457.128 31.8711C457.592 31.8535 457.869 31.8447 457.953 31.8447L458.187 31.8711C458.341 31.9065 458.421 31.9901 458.421 32.1313C458.421 32.2152 458.368 32.4488 458.262 32.8283L454.336 45.5485C454.2 45.9632 453.984 46.2365 453.692 46.3777C453.432 46.4967 453.057 46.5321 452.554 46.4791C452.369 46.444 452.211 46.5497 452.091 46.7878C451.99 46.9953 451.937 47.2643 451.937 47.5906C451.937 47.9172 451.99 48.1862 452.091 48.3934C452.211 48.6315 452.369 48.7463 452.559 48.7287C453.609 48.6406 454.539 48.6006 455.346 48.6006C456.14 48.6006 456.983 48.6406 457.878 48.7287C458.121 48.7463 458.319 48.6315 458.474 48.3934C458.593 48.1862 458.655 47.9172 458.655 47.5906C458.655 47.2643 458.593 46.9953 458.474 46.7878C458.319 46.5497 458.121 46.444 457.878 46.4791C457.499 46.5321 457.208 46.4879 457 46.3513C456.723 46.1968 456.647 45.9278 456.767 45.5485L457.75 42.3774H463.405L464.388 45.5485C464.507 45.9278 464.432 46.1968 464.155 46.3513C463.916 46.4879 463.502 46.5321 462.915 46.4791C462.642 46.444 462.425 46.5497 462.271 46.7878C462.13 46.9953 462.064 47.2643 462.064 47.5906C462.064 47.9172 462.13 48.1862 462.271 48.3934C462.425 48.6315 462.642 48.7463 462.915 48.7287C463.863 48.6272 464.785 48.5742 465.681 48.5742C466.593 48.5742 467.546 48.6272 468.547 48.7287C468.755 48.7463 468.927 48.6315 469.064 48.3934C469.183 48.1862 469.244 47.9172 469.244 47.5906C469.244 47.2643 469.183 46.9953 469.064 46.7878C468.927 46.5497 468.755 46.444 468.547 46.4791C467.926 46.5146 467.511 46.4791 467.308 46.3777C467.118 46.2719 466.955 45.9984 466.814 45.5485L462.448 31.4345C462.275 30.8126 462.002 30.3494 461.623 30.0362C461.314 29.7981 460.983 29.6745 460.639 29.6745L459.012 29.7012C458.341 29.7187 457.825 29.7275 457.464 29.7275C456.877 29.7275 456.326 29.7099 455.81 29.6745ZM473.068 32.493V42.8403C473.068 45.0987 473.69 46.7569 474.93 47.8069C475.979 48.7021 477.431 49.1519 479.274 49.1519C481.219 49.1519 482.701 48.6712 483.72 47.7054C484.84 46.6512 485.401 45.0369 485.401 42.867V32.493C485.401 32.2019 485.484 32.021 485.656 31.9504C485.762 31.8974 485.983 31.8887 486.327 31.9241L486.428 31.9504C486.671 31.968 486.865 31.849 487.019 31.5887C487.138 31.364 487.2 31.0904 487.2 30.7596C487.2 30.4333 487.138 30.1641 487.019 29.9568C486.865 29.7363 486.666 29.6569 486.424 29.7275C485.617 29.7936 484.712 29.8202 483.711 29.8024C482.869 29.7848 482.101 29.7451 481.413 29.6745C481.171 29.6218 480.99 29.7187 480.871 29.9568C480.752 30.1641 480.69 30.4333 480.69 30.7596C480.69 31.0859 480.752 31.364 480.871 31.5887C480.99 31.8269 481.175 31.9417 481.413 31.9241C481.916 31.8226 482.295 31.805 482.551 31.8711C482.864 31.9592 483.019 32.1667 483.019 32.493V42.8933C483.019 44.2211 482.745 45.2044 482.194 45.8442C481.572 46.5673 480.597 46.929 479.274 46.929C477.982 46.929 477.025 46.5939 476.407 45.919C475.785 45.2486 475.477 44.2386 475.477 42.8933V32.493C475.477 32.2195 475.613 32.0474 475.891 31.9768C476.081 31.9065 476.346 31.8887 476.69 31.9241C476.967 31.9417 477.197 31.8226 477.386 31.5624C477.541 31.3373 477.62 31.0641 477.62 30.7333C477.62 30.3891 477.541 30.1244 477.386 29.9347C477.197 29.6921 476.967 29.6127 476.69 29.7012C475.794 29.7539 475 29.7848 474.312 29.8024C473.54 29.8024 472.72 29.7717 471.86 29.7012C471.617 29.6657 471.428 29.7717 471.291 30.0098C471.172 30.2171 471.11 30.4861 471.11 30.8126C471.11 31.1213 471.172 31.3815 471.291 31.5887C471.428 31.8269 471.617 31.9417 471.855 31.9241C472.27 31.8887 472.561 31.8974 472.733 31.9504C472.958 32.0344 473.068 32.2152 473.068 32.493ZM492.277 32.4136V46.0117C492.277 46.2365 492.188 46.3734 492.017 46.4261C491.915 46.4616 491.646 46.4704 491.218 46.4528H490.702C490.495 46.3822 490.332 46.4704 490.208 46.713C490.107 46.9202 490.054 47.1938 490.054 47.5379C490.054 47.8687 490.107 48.1419 490.208 48.367C490.327 48.6097 490.49 48.7109 490.698 48.6757C491.902 48.6272 492.934 48.6097 493.79 48.6272C494.738 48.6272 495.518 48.6581 496.136 48.7287C496.396 48.7639 496.599 48.6493 496.754 48.3934C496.908 48.1862 496.987 47.9172 496.987 47.5906C496.987 47.2468 496.912 46.9687 496.758 46.7615C496.604 46.5058 496.401 46.3998 496.145 46.4528C495.765 46.5058 495.461 46.5146 495.223 46.4791C494.848 46.4261 494.658 46.2719 494.658 46.0117V34.566L499.237 44.4107L501.023 48.111C501.195 48.4773 501.455 48.7551 501.799 48.9447C502.13 49.1168 502.457 49.1786 502.783 49.1256C503.145 49.055 503.431 48.8741 503.639 48.583C503.899 48.2392 504.027 47.789 504.027 47.2377V32.3385C504.027 32.1313 504.11 32.0035 504.282 31.9504C504.388 31.9153 504.6 31.8974 504.926 31.8974L505.213 31.9241C505.434 31.9417 505.615 31.8269 505.751 31.5887C505.888 31.3815 505.958 31.1125 505.958 30.786C505.958 30.4597 505.888 30.1907 505.751 29.9832C505.615 29.7451 505.434 29.6481 505.209 29.7012C504.225 29.7717 503.264 29.8024 502.315 29.8024C501.349 29.8024 500.626 29.7717 500.141 29.7012C499.867 29.6481 499.651 29.7363 499.497 29.9614C499.36 30.1641 499.29 30.4333 499.29 30.7596C499.29 31.0728 499.36 31.3373 499.497 31.5624C499.651 31.805 499.867 31.9241 500.145 31.9241C500.525 31.8535 500.842 31.8447 501.102 31.8974C501.464 31.9504 501.645 32.0961 501.645 32.3385V44.0181L496.881 33.8604L495.276 30.4509C495.139 30.1422 495.029 29.9347 494.941 29.829C494.769 29.6921 494.535 29.6481 494.244 29.7012C493.776 29.7539 493.242 29.7805 492.638 29.7805C492.038 29.7805 491.39 29.7539 490.702 29.7012C490.495 29.6657 490.332 29.7717 490.208 30.0098C490.107 30.2171 490.054 30.4861 490.054 30.8126C490.054 31.1213 490.107 31.3903 490.208 31.6154C490.332 31.8359 490.495 31.9417 490.702 31.9241L490.905 31.8974C491.456 31.8799 491.805 31.8974 491.941 31.9504C492.167 32.0035 492.277 32.1577 492.277 32.4136ZM509.509 31.8974C510.03 31.8269 510.426 31.8359 510.7 31.9241C511.031 32.0077 511.194 32.2064 511.194 32.5194V45.9632C511.194 46.2365 511.031 46.4086 510.7 46.4791C510.479 46.5146 510.083 46.5058 509.509 46.4528C509.271 46.3998 509.09 46.4967 508.967 46.7394C508.848 46.9599 508.786 47.2377 508.786 47.5642C508.786 47.8905 508.848 48.1686 508.967 48.3934C509.086 48.6315 509.266 48.7375 509.509 48.7021C510.66 48.6315 511.798 48.5918 512.919 48.5742C514.158 48.5742 515.534 48.6139 517.047 48.7021C519.287 48.7021 520.964 47.8596 522.084 46.1704C523.134 44.5649 523.659 42.2405 523.659 39.1884C523.659 36.1185 523.134 33.7853 522.084 32.1843C520.964 30.5127 519.287 29.6745 517.047 29.6745C515.569 29.7627 514.189 29.8024 512.919 29.8024C511.834 29.7848 510.695 29.7451 509.509 29.6745C509.266 29.6218 509.086 29.7099 508.967 29.9347C508.848 30.1553 508.786 30.4333 508.786 30.7596C508.786 31.0859 508.848 31.3552 508.967 31.5624C509.09 31.8181 509.271 31.9329 509.509 31.8974ZM513.576 31.8974H516.844C518.132 31.8974 519.146 32.4224 519.883 33.4766C520.761 34.6984 521.197 36.6038 521.197 39.1884C521.197 41.7555 520.761 43.6519 519.883 44.8781C519.146 45.9454 518.132 46.4791 516.844 46.4791H513.576V31.8974ZM531.589 31.8974H535.611C536.608 31.8974 537.367 32.1931 537.883 32.7796C538.381 33.3488 538.628 34.2088 538.628 35.3642C538.628 36.5244 538.381 37.4108 537.883 38.0327C537.367 38.6901 536.608 39.0164 535.611 39.0164H531.589V31.8974ZM529.207 32.4136V46.1926C529.207 46.3822 529.035 46.4967 528.691 46.5321C528.466 46.5497 528.078 46.5321 527.523 46.4791C527.302 46.4086 527.121 46.4967 526.98 46.7394C526.878 46.9423 526.825 47.2201 526.825 47.5642C526.825 47.9084 526.878 48.1862 526.98 48.3934C527.117 48.6493 527.297 48.7551 527.523 48.7021C528.435 48.6315 529.353 48.6006 530.283 48.6006C531.232 48.6006 532.202 48.6315 533.199 48.7021C533.477 48.7551 533.688 48.6493 533.843 48.3934C533.997 48.1862 534.076 47.9084 534.076 47.5642C534.076 47.2201 534.002 46.9423 533.847 46.7394C533.693 46.4967 533.477 46.4086 533.203 46.4791C532.656 46.5321 532.273 46.5497 532.052 46.5321C531.743 46.4967 531.589 46.3864 531.589 46.1968V41.2393H534.994C536.009 41.6849 536.824 42.5404 537.442 43.7976C537.976 44.8648 538.328 46.1262 538.5 47.5906V47.7451C538.518 48.1595 538.558 48.42 538.628 48.5212C538.73 48.7109 538.937 48.7727 539.25 48.7021C539.683 48.6493 540.163 48.6227 540.697 48.6227C541.218 48.6227 541.786 48.6493 542.408 48.7021C542.682 48.7375 542.898 48.6315 543.052 48.3934C543.206 48.1686 543.286 47.8905 543.286 47.5642C543.286 47.2201 543.206 46.9423 543.052 46.7394C542.898 46.4967 542.682 46.4086 542.408 46.4791C541.839 46.5673 541.469 46.5939 541.297 46.5585C541.054 46.5234 540.9 46.3864 540.829 46.1441C540.609 44.9884 540.322 44.0402 539.978 43.2992C539.409 42.0069 538.668 41.1645 537.755 40.7673C538.823 40.3529 539.625 39.7573 540.159 38.9809C540.781 38.0858 541.09 36.8816 541.09 35.3642C541.09 33.6575 540.719 32.3297 539.978 31.3815C539.1 30.2434 537.707 29.6745 535.792 29.6745C533.706 29.7451 532.07 29.776 530.883 29.776C529.692 29.776 528.572 29.7451 527.523 29.6745C527.297 29.6394 527.117 29.7451 526.98 29.9832C526.878 30.1907 526.825 30.4597 526.825 30.786C526.825 31.095 526.878 31.3552 526.98 31.5624C527.121 31.805 527.302 31.9153 527.523 31.8974C528.078 31.8623 528.466 31.8711 528.691 31.9241C529.035 31.9947 529.207 32.1577 529.207 32.4136ZM546.89 32.4666L551.468 41.2305V46.2719C551.468 46.4967 551.159 46.6161 550.537 46.6336C550.057 46.6336 549.615 46.5894 549.223 46.5058C548.91 46.4528 548.663 46.5409 548.473 46.766C548.319 46.9865 548.24 47.2643 548.24 47.5906C548.24 47.9172 548.319 48.1862 548.473 48.3934C548.663 48.6493 548.91 48.7639 549.223 48.7287C550.326 48.6272 551.538 48.583 552.866 48.6006C553.933 48.6006 554.983 48.6406 556.02 48.7287C556.346 48.7639 556.607 48.6493 556.796 48.3934C556.986 48.1862 557.078 47.9172 557.078 47.5906C557.078 47.2643 556.986 46.9865 556.796 46.766C556.607 46.5409 556.346 46.4528 556.02 46.5058H555.812C555.16 46.5894 554.71 46.6336 554.472 46.6336C554.075 46.6161 553.876 46.4967 553.876 46.2719V41.2305L558.428 32.4666C558.547 32.224 558.688 32.0695 558.843 31.9989C559.015 31.8974 559.279 31.8623 559.641 31.8974C559.936 31.9504 560.175 31.8535 560.364 31.6109C560.519 31.4079 560.598 31.1301 560.598 30.786C560.598 30.4421 560.519 30.1641 560.364 29.9568C560.175 29.7012 559.932 29.6039 559.641 29.6745C558.812 29.7627 557.991 29.8024 557.18 29.8024C556.47 29.7848 555.693 29.7451 554.851 29.6745C554.626 29.6218 554.445 29.7187 554.308 29.9568C554.202 30.1641 554.154 30.4421 554.154 30.786C554.154 31.1125 554.202 31.3815 554.308 31.5887C554.445 31.8269 554.626 31.9329 554.851 31.8974C555.23 31.8799 555.491 31.8974 555.627 31.9504C555.817 32.0344 555.861 32.2064 555.755 32.4666L552.941 37.9137C552.822 38.1563 552.721 38.2754 552.632 38.2754C552.566 38.2754 552.478 38.1563 552.377 37.9137L549.562 32.4666C549.443 32.224 549.426 32.0695 549.51 31.9989C549.562 31.9504 549.699 31.9153 549.924 31.8974H550.105C550.396 31.9504 550.63 31.8623 550.802 31.6372C550.956 31.4167 551.036 31.1389 551.036 30.8126C551.036 30.4685 550.956 30.1819 550.802 29.9568C550.63 29.7187 550.396 29.6218 550.105 29.6745C548.967 29.7451 548.103 29.7848 547.516 29.8024C546.793 29.8024 546.091 29.7627 545.421 29.6745C545.196 29.6218 545.024 29.7187 544.901 29.9568C544.781 30.1641 544.72 30.4333 544.72 30.7596C544.72 31.0859 544.781 31.364 544.901 31.5887C545.02 31.8269 545.192 31.9329 545.416 31.8974C545.725 31.8269 545.985 31.8181 546.193 31.8711C546.466 31.9592 546.7 32.1577 546.89 32.4666Z" fill="#2F9EBF"/>
</svg>
