<svg width="133" height="228" viewBox="0 0 133 228" fill="none" xmlns="http://www.w3.org/2000/svg">
<path d="M39.5889 225.601L40.4549 225.523C40.4954 225.873 40.5912 226.16 40.742 226.386C40.8928 226.609 41.1264 226.791 41.4428 226.931C41.7591 227.068 42.1157 227.138 42.5114 227.138C42.8635 227.138 43.1733 227.086 43.4423 226.981C43.7116 226.875 43.9112 226.731 44.0424 226.548C44.1739 226.364 44.2403 226.165 44.2403 225.951C44.2403 225.733 44.1771 225.544 44.0506 225.38C43.9242 225.218 43.715 225.081 43.423 224.97C43.2365 224.898 42.8229 224.785 42.1823 224.631C41.5417 224.477 41.0941 224.332 40.8378 224.196C40.5053 224.021 40.2587 223.804 40.0966 223.546C39.9327 223.288 39.8517 222.997 39.8517 222.678C39.8517 222.325 39.9523 221.995 40.1516 221.69C40.3511 221.384 40.6414 221.152 41.0258 220.993C41.4087 220.834 41.8351 220.754 42.3039 220.754C42.8195 220.754 43.2754 220.837 43.6694 221.004C44.0637 221.17 44.367 221.415 44.5793 221.739C44.7919 222.062 44.9053 222.428 44.9214 222.837L44.0359 222.905C43.9891 222.466 43.8284 222.133 43.5543 221.909C43.2802 221.684 42.8748 221.572 42.3396 221.572C41.7818 221.572 41.3747 221.674 41.1199 221.878C40.8653 222.083 40.7372 222.329 40.7372 222.618C40.7372 222.868 40.8279 223.074 41.0079 223.236C41.1865 223.397 41.6485 223.564 42.398 223.732C43.1472 223.903 43.6614 224.05 43.9404 224.177C44.3443 224.363 44.6442 224.598 44.8372 224.885C45.0303 225.171 45.1258 225.5 45.1258 225.873C45.1258 226.245 45.0204 226.591 44.808 226.919C44.5954 227.247 44.2921 227.501 43.895 227.683C43.4976 227.865 43.0517 227.956 42.5537 227.956C41.9244 227.956 41.3974 227.863 40.9725 227.68C40.5459 227.497 40.2134 227.221 39.9716 226.851C39.7284 226.483 39.6019 226.066 39.5889 225.601ZM47.1631 227.839V220.871H52.194V221.689H48.0874V223.829H51.9312V224.647H48.0874V227.021H52.3595V227.839H47.1631ZM54.4161 227.839V220.871H57.5041C58.1252 220.871 58.5972 220.935 58.92 221.059C59.2426 221.184 59.5006 221.405 59.6936 221.721C59.8867 222.037 59.9822 222.388 59.9822 222.77C59.9822 223.265 59.8217 223.682 59.5023 224.021C59.1825 224.36 58.6896 224.574 58.0215 224.667C58.2664 224.783 58.4512 224.9 58.5776 225.013C58.8469 225.26 59.1015 225.57 59.3399 225.941L60.5451 227.839H59.3934L58.4722 226.389C58.2046 225.969 57.9826 225.649 57.8089 225.427C57.6337 225.205 57.4781 225.051 57.3403 224.962C57.204 224.874 57.0628 224.812 56.9202 224.777C56.8165 224.755 56.6461 224.744 56.4077 224.744H55.3405V227.839H54.4161ZM55.3405 223.946H57.319C57.7408 223.946 58.0685 223.903 58.3052 223.815C58.5419 223.729 58.7222 223.59 58.8438 223.397C58.9671 223.205 59.0286 222.997 59.0286 222.772C59.0286 222.443 58.9101 222.17 58.6717 221.958C58.4333 221.745 58.0572 221.64 57.543 221.64H55.3405V223.946ZM63.9963 227.839L61.3043 220.871H62.3032L64.1131 225.935C64.2577 226.34 64.3807 226.72 64.4782 227.075C64.5851 226.694 64.7101 226.314 64.8527 225.935L66.7309 220.871H67.6714L64.955 227.839H63.9963ZM69.4201 227.839V220.871H70.3445V227.839H69.4201ZM77.6933 225.395L78.6177 225.628C78.425 226.386 78.0777 226.961 77.5765 227.359C77.0754 227.756 76.4625 227.956 75.7374 227.956C74.9882 227.956 74.3782 227.803 73.908 227.497C73.4377 227.192 73.0808 226.749 72.8359 226.17C72.591 225.589 72.4677 224.968 72.4677 224.303C72.4677 223.578 72.6057 222.946 72.8829 222.406C73.1605 221.866 73.5545 221.455 74.0653 221.174C74.5761 220.894 75.139 220.754 75.7519 220.754C76.4495 220.754 77.0348 220.931 77.5085 221.286C77.9836 221.642 78.3144 222.14 78.5009 222.782L77.5961 222.996C77.4354 222.49 77.2004 222.12 76.8937 221.89C76.5873 221.658 76.2012 221.543 75.7357 221.543C75.2022 221.543 74.7547 221.671 74.3961 221.927C74.0378 222.183 73.7846 222.529 73.6404 222.96C73.4944 223.393 73.4215 223.839 73.4215 224.298C73.4215 224.89 73.5074 225.407 73.6792 225.849C73.8513 226.292 74.1188 226.621 74.4822 226.84C74.8454 227.059 75.238 227.167 75.6612 227.167C76.1771 227.167 76.6116 227.018 76.9685 226.721C77.3251 226.423 77.5669 225.982 77.6933 225.395ZM80.5399 227.839V220.871H85.5708V221.689H81.4643V223.829H85.308V224.647H81.4643V227.021H85.7364V227.839H80.5399ZM87.4717 225.601L88.3377 225.523C88.3782 225.873 88.4741 226.16 88.6249 226.386C88.7757 226.609 89.0092 226.791 89.3256 226.931C89.6419 227.068 89.9985 227.138 90.3942 227.138C90.7463 227.138 91.0561 227.086 91.3251 226.981C91.5944 226.875 91.794 226.731 91.9252 226.548C92.0568 226.364 92.1231 226.165 92.1231 225.951C92.1231 225.733 92.0599 225.544 91.9335 225.38C91.807 225.218 91.5978 225.081 91.3059 224.97C91.1194 224.898 90.7058 224.785 90.0651 224.631C89.4245 224.477 88.9769 224.332 88.7207 224.196C88.3882 224.021 88.1416 223.804 87.9794 223.546C87.8156 223.288 87.7345 222.997 87.7345 222.678C87.7345 222.325 87.8351 221.995 88.0344 221.69C88.234 221.384 88.5242 221.152 88.9086 220.993C89.2916 220.834 89.7179 220.754 90.1868 220.754C90.7024 220.754 91.1582 220.837 91.5522 221.004C91.9465 221.17 92.2498 221.415 92.4621 221.739C92.6747 222.062 92.7881 222.428 92.8043 222.837L91.9187 222.905C91.872 222.466 91.7112 222.133 91.4371 221.909C91.163 221.684 90.7577 221.572 90.2225 221.572C89.6646 221.572 89.2576 221.674 89.0027 221.878C88.7482 222.083 88.62 222.329 88.62 222.618C88.62 222.868 88.7108 223.074 88.8908 223.236C89.0693 223.397 89.5314 223.564 90.2809 223.732C91.0301 223.903 91.5443 224.05 91.8232 224.177C92.2271 224.363 92.527 224.598 92.7201 224.885C92.9131 225.171 93.0086 225.5 93.0086 225.873C93.0086 226.245 92.9032 226.591 92.6909 226.919C92.4783 227.247 92.175 227.501 91.7778 227.683C91.3804 227.865 90.9345 227.956 90.4365 227.956C89.8072 227.956 89.2802 227.863 88.8553 227.68C88.4287 227.497 88.0962 227.221 87.8544 226.851C87.6112 226.483 87.4848 226.066 87.4717 225.601Z" fill="#2C2E35"/>
<path fill-rule="evenodd" clip-rule="evenodd" d="M65.6192 49.5036C82.3405 49.5036 97.179 57.5616 106.465 70.006L106.635 71.0738L106.381 72.4327L105.626 73.6661L104.306 74.9629L102.735 76.0619L101.523 77.009L98.9832 78.4853C91.8411 67.6515 79.5662 60.5003 65.6192 60.5003C43.5631 60.5003 25.6833 78.3804 25.6833 100.436C25.6833 122.492 43.5631 140.372 65.6192 140.372C79.548 140.372 91.8093 133.24 98.9557 122.429L100.091 123.135L102.178 124.603L104.109 125.715L105.577 126.96L106.489 127.784L107.316 128.815L107.643 129.216C98.4648 142.593 83.0678 151.369 65.6192 151.369C37.4898 151.369 14.6862 128.565 14.6862 100.436C14.6862 72.3069 37.4898 49.5036 65.6192 49.5036ZM93.9186 36.7213C95.2078 36.7213 96.2526 37.7633 96.2526 39.0486C96.2526 40.3341 95.2078 41.3758 93.9186 41.3758C92.6294 41.3758 91.5845 40.3341 91.5845 39.0486C91.5845 37.7633 92.6294 36.7213 93.9186 36.7213Z" fill="#2F9EBF"/>
<path fill-rule="evenodd" clip-rule="evenodd" d="M94.6421 37.3157C94.9791 37.3157 95.2523 37.5881 95.2523 37.9243C95.2523 38.2602 94.9791 38.5329 94.6421 38.5329C94.305 38.5329 94.0317 38.2602 94.0317 37.9243C94.0317 37.5881 94.305 37.3157 94.6421 37.3157Z" fill="white"/>
<path fill-rule="evenodd" clip-rule="evenodd" d="M67.0059 27.2567C68.7903 27.2567 70.2368 28.699 70.2368 30.478C70.2368 32.2573 68.7903 33.6996 67.0059 33.6996C65.2217 33.6996 63.7749 32.2573 63.7749 30.478C63.7749 28.699 65.2217 27.2567 67.0059 27.2567Z" fill="#2F9EBF"/>
<path fill-rule="evenodd" clip-rule="evenodd" d="M68.0074 28.0793C68.4739 28.0793 68.8524 28.4563 68.8524 28.9218C68.8524 29.3869 68.4739 29.7642 68.0074 29.7642C67.5408 29.7642 67.1624 29.3869 67.1624 28.9218C67.1624 28.4563 67.5408 28.0793 68.0074 28.0793Z" fill="white"/>
<path fill-rule="evenodd" clip-rule="evenodd" d="M39.8365 37.0124C41.1347 37.0124 42.1871 38.0615 42.1871 39.3561C42.1871 40.6504 41.1347 41.6998 39.8365 41.6998C38.5385 41.6998 37.486 40.6504 37.486 39.3561C37.486 38.0615 38.5385 37.0124 39.8365 37.0124Z" fill="#2F9EBF"/>
<path fill-rule="evenodd" clip-rule="evenodd" d="M41.3648 55.445L44.2646 60.4762C44.4007 60.7118 42.6135 51.6177 43.6552 52.0465C44.6969 52.4754 44.5419 55.1125 44.5419 55.1125L43.9421 53.882C43.9421 53.882 41.6432 55.0745 41.3648 55.445Z" fill="white"/>
<path fill-rule="evenodd" clip-rule="evenodd" d="M108.053 124.075L108.388 124.474L108.689 125.002L108.901 125.769L108.966 126.502L108.996 127.382L110.841 124.093L112.716 120.271L114.807 114.85L115.943 110.598L116.797 105.927L117.14 102.768L116.977 98.1566L116.806 95.6644L116.225 92.0587L115.966 90.4849L115.729 89.2408L115.286 87.6692L114.71 85.7142L113.834 83.3963L112.964 81.4455L112.213 80.135L110.99 77.877L110.031 76.0738L108.943 74.2724L108.53 73.5811L108.463 74.1046L108.347 74.9958L108.236 75.6027L107.886 76.1759L107.345 76.8528L106.658 77.5867L105.696 78.3883L104.498 79.3674L103.245 80.3289L101.646 81.4143L100.429 82.3112L99.1936 83.1899L98.467 83.7314L97.9049 84.2161L97.5446 84.6977L97.1887 85.5095L96.9991 86.4107L96.9908 87.1814L97.0772 88.1526L97.4937 89.1007L98.0262 90.5427L98.5209 91.9119L98.9796 93.2997L99.3305 94.8358L99.5711 96.3733L99.7025 97.9491L99.7239 99.5629L99.7423 100.957L99.6909 102.571L99.5605 103.784L99.3605 105.291L99.1194 106.486L98.8083 107.921L98.6025 108.988L98.3228 110.019L97.7885 111.2L97.3628 112.269L97.1166 113.08L97.2043 114.142L97.3628 115.021L97.7419 115.933L98.4109 116.584L99.5236 117.487L101.043 118.64L102.301 119.467L103.895 120.656L105.374 121.553L106.598 122.564L107.359 123.233L108.053 124.075Z" fill="#2F9EBF"/>
<path d="M108.463 82.0093C108.463 82.0093 112.899 89.249 111.714 106.095M110.68 111.562C110.68 111.562 110.089 115.256 108.315 117.916" stroke="white" stroke-width="2.8346" stroke-miterlimit="22.9256"/>
<path fill-rule="evenodd" clip-rule="evenodd" d="M84.9653 0.985779C85.4872 2.15618 85.2908 4.07717 86.5312 4.49677L89.6771 5.56061C88.4718 6.06741 86.4932 5.87665 86.0612 7.08105L84.9653 10.1352C84.4432 8.96499 84.6399 7.04395 83.3995 6.62445L80.2536 5.56061C81.4589 5.05381 83.4375 5.24461 83.8695 4.04041L84.9653 0.985779ZM20.861 18.3409C21.5651 19.9189 21.3 22.5095 22.9728 23.0753L27.2148 24.5099C25.5897 25.1934 22.9215 24.9363 22.3387 26.5602L20.861 30.679C20.1571 29.1009 20.4222 26.5106 18.7494 25.9448L14.5074 24.5099C16.1325 23.8265 18.8007 24.0839 19.3833 22.4596L20.861 18.3409ZM17.7647 52.9443C18.1405 53.7867 17.9991 55.1697 18.892 55.4719L21.1569 56.2378C20.2892 56.6027 18.8645 56.4655 18.5536 57.3326L17.7647 59.5314C17.3888 58.689 17.5302 57.3059 16.6373 57.0038L14.3722 56.2378C15.2401 55.873 16.6645 56.0102 16.9758 55.1431L17.7647 52.9443ZM55.1026 8.18207C55.6248 9.35217 55.4283 11.2733 56.6685 11.6928L59.8144 12.7569C58.6091 13.2638 56.6305 13.073 56.1985 14.2772L55.1026 17.3315C54.5808 16.1613 54.7772 14.2403 53.5368 13.8208L50.3909 12.7569C51.5962 12.2501 53.5748 12.4406 54.007 11.2364L55.1026 8.18207ZM98.0424 20.2775C98.378 21.0298 98.2519 22.2649 99.0493 22.5345L101.072 23.2185C100.297 23.5442 99.0249 23.4217 98.7471 24.1959L98.0424 26.1594C97.7071 25.4071 97.8332 24.172 97.0358 23.9025L95.0136 23.2185C95.7883 22.8925 97.0602 23.0152 97.338 22.2411L98.0424 20.2775ZM109.273 40.6606C109.795 41.8308 109.598 43.7518 110.839 44.1713L113.984 45.2354C112.779 45.7423 110.801 45.5515 110.368 46.7557L109.273 49.81C108.751 48.6399 108.947 46.7188 107.707 46.2993L104.561 45.2354C105.766 44.7286 107.745 44.9194 108.177 43.7149L109.273 40.6606Z" fill="#2F9EBF"/>
<path fill-rule="evenodd" clip-rule="evenodd" d="M40.5649 37.6108C40.9045 37.6108 41.1797 37.8852 41.1797 38.2237C41.1797 38.5621 40.9045 38.8365 40.5649 38.8365C40.2256 38.8365 39.9503 38.5621 39.9503 38.2237C39.9503 37.8852 40.2256 37.6108 40.5649 37.6108Z" fill="white"/>
<path fill-rule="evenodd" clip-rule="evenodd" d="M44.2646 60.76C56.2728 44.8919 90.2174 54.352 90.2174 54.352L93.2745 41.136C93.2745 41.136 93.2565 39.9885 91.9557 41.3103C83.5748 49.8262 74.0634 45.5388 68.5117 35.7479C67.8813 34.6359 67.6287 34.1886 67.3246 33.6724C66.9153 32.9776 66.9727 33.625 66.8449 33.5944C66.5226 33.5182 66.4585 33.5332 66.2845 33.5618C66.0877 33.5941 66.5566 33.5995 66.4846 33.5936C66.302 33.5783 66.0747 33.4734 65.6367 33.4161C65.5491 33.4048 65.4254 33.199 65.2567 33.5584L63.557 37.1785C58.6632 47.6035 46.0252 46.5774 42.0465 42.174C37.5757 37.2262 43.7876 53.5789 44.2646 60.76Z" fill="#2F9EBF"/>
<path d="M32.7801 163.253V185.503H27.7171L27.7029 170.482L25.6915 185.503H22.1473L20.0236 170.819L20.0094 185.503H14.9462V163.253H22.424C22.6349 164.598 22.8648 166.183 23.1131 167.992L23.9337 173.641L25.251 163.253H32.7801ZM48.2519 163.253L51.5619 185.503H45.6502L45.3359 181.508H43.2498L42.9355 185.503H36.9487L39.8837 163.253H48.2519ZM45.1814 177.57C44.9047 175.048 44.6139 171.926 44.3046 168.198C43.7326 172.474 43.3717 175.597 43.217 177.57H45.1814ZM67.9526 170.003H62.5799V168.358C62.5799 167.589 62.5096 167.097 62.3735 166.886C62.2377 166.675 62.0126 166.572 61.6937 166.572C61.3471 166.572 61.0843 166.712 60.9063 166.998C60.7283 167.28 60.639 167.706 60.639 168.283C60.639 169.024 60.7422 169.581 60.9437 169.956C61.1407 170.327 61.6844 170.782 62.5799 171.316C65.1444 172.849 66.7618 174.11 67.4274 175.09C68.0981 176.07 68.4308 177.65 68.4308 179.825C68.4308 181.41 68.2432 182.577 67.873 183.332C67.5025 184.082 66.7899 184.71 65.7257 185.216C64.6662 185.728 63.4331 185.981 62.022 185.981C60.4748 185.981 59.1576 185.685 58.0606 185.099C56.9681 184.513 56.2555 183.768 55.9133 182.863C55.5757 181.953 55.4071 180.664 55.4071 179V177.542H60.7796V180.247C60.7796 181.082 60.8547 181.616 61.0046 181.855C61.1546 182.094 61.4219 182.211 61.8063 182.211C62.1909 182.211 62.477 182.061 62.6643 181.757C62.852 181.457 62.9455 181.007 62.9455 180.416C62.9455 179.108 62.7675 178.25 62.4112 177.852C62.0407 177.448 61.1407 176.773 59.7061 175.826C58.2715 174.875 57.3244 174.181 56.8556 173.749C56.3915 173.318 56.0023 172.722 55.6976 171.963C55.3929 171.204 55.2381 170.233 55.2381 169.052C55.2381 167.35 55.4538 166.103 55.8898 165.315C56.3261 164.528 57.0245 163.914 57.9948 163.468C58.9654 163.023 60.1327 162.802 61.5064 162.802C63.0065 162.802 64.2818 163.046 65.3414 163.529C66.3961 164.017 67.0946 164.626 67.437 165.367C67.7792 166.103 67.9526 167.354 67.9526 169.122V170.003ZM85.0699 163.253V167.697H81.6664V185.503H75.8718V167.697H72.4399V163.253H85.0699ZM89.5526 163.253H99.2009V167.697H95.3472V171.944H98.9478V176.164H95.3472V181.058H99.5949V185.503H89.5526V163.253ZM104.401 163.253H108.494C111.222 163.253 113.069 163.356 114.035 163.567C115.001 163.777 115.789 164.317 116.398 165.184C117.008 166.047 117.312 167.43 117.312 169.324C117.312 171.054 117.097 172.216 116.666 172.811C116.239 173.407 115.39 173.763 114.125 173.881C115.268 174.166 116.042 174.546 116.436 175.024C116.83 175.498 117.073 175.939 117.167 176.337C117.266 176.736 117.312 177.833 117.312 179.628V185.503H111.94V178.1C111.94 176.909 111.846 176.173 111.658 175.887C111.476 175.601 110.988 175.461 110.196 175.461V185.503H104.401V163.253ZM110.196 167.05V172C110.843 172 111.293 171.911 111.551 171.733C111.808 171.555 111.94 170.974 111.94 169.994V168.77C111.94 168.063 111.813 167.598 111.565 167.378C111.316 167.158 110.857 167.05 110.196 167.05Z" fill="#2F9EBF"/>
<path d="M2.68411 196.703V211.012C2.68411 211.434 2.48252 211.701 2.07942 211.809C1.80282 211.884 1.41842 211.884 0.921524 211.809C0.663524 211.752 0.46202 211.865 0.31662 212.137C0.17122 212.357 0.0963135 212.643 0.0963135 212.99C0.0963135 213.337 0.17122 213.632 0.31662 213.867C0.46202 214.106 0.663524 214.209 0.921524 214.172C2.67472 214.115 4.66271 214.087 6.87541 214.087C9.10681 214.087 11.029 214.115 12.6371 214.172C13.3871 214.246 13.8934 214.218 14.1468 214.087C14.3858 213.942 14.5031 213.613 14.5031 213.103C14.4141 212.423 14.4045 211.391 14.4796 210.003C14.5312 209.052 14.625 207.824 14.7514 206.323C14.7891 205.995 14.667 205.742 14.3951 205.559C14.1562 205.395 13.8421 205.311 13.4577 205.311C13.0543 205.311 12.7216 205.395 12.4636 205.559C12.1731 205.742 12.0418 205.995 12.0792 206.323C12.1166 207.748 12.126 208.757 12.1073 209.342C12.0512 210.088 11.9245 210.636 11.7229 210.988C11.5072 211.335 11.1509 211.56 10.6588 211.672C10.2744 211.762 9.60851 211.809 8.66151 211.809H7.73341C6.73001 211.809 6.09251 211.78 5.81581 211.724C5.41721 211.616 5.21571 211.377 5.21571 211.012V196.703C5.21571 196.521 5.39852 196.399 5.75972 196.347C5.99862 196.309 6.43941 196.291 7.09561 196.291L7.58322 196.319C7.91142 196.338 8.17392 196.216 8.37552 195.958C8.55832 195.738 8.64761 195.456 8.64761 195.105C8.64761 194.758 8.55832 194.472 8.37552 194.251C8.17392 193.993 7.90692 193.895 7.57872 193.951C6.17212 194.022 4.89231 194.059 3.74371 194.059C2.57151 194.059 1.62932 194.022 0.916718 193.951C0.663518 193.895 0.46202 193.993 0.31662 194.251C0.17122 194.472 0.0963135 194.758 0.0963135 195.105C0.0963135 195.456 0.17122 195.738 0.31662 195.958C0.46202 196.216 0.663524 196.338 0.921524 196.319L1.27782 196.291C1.73702 196.291 2.06052 196.309 2.24362 196.347C2.53872 196.399 2.68411 196.521 2.68411 196.703ZM25.8579 197.861L28.08 205.086H23.6029L25.8579 197.861ZM20.7805 193.947C20.5228 193.909 20.3212 194.022 20.1758 194.279C20.0304 194.495 19.9553 194.781 19.9553 195.128C19.9553 195.456 20.0304 195.742 20.1758 195.981C20.3212 196.216 20.5228 196.328 20.7805 196.309C21.2212 196.309 21.6853 196.3 22.1822 196.281C22.6746 196.262 22.9699 196.253 23.0589 196.253L23.3075 196.281C23.4717 196.319 23.5559 196.408 23.5559 196.558C23.5559 196.647 23.4997 196.895 23.3872 197.299L19.2146 210.819C19.0692 211.26 18.8396 211.551 18.5303 211.701C18.2537 211.827 17.8551 211.865 17.3208 211.809C17.1238 211.771 16.9551 211.884 16.8284 212.137C16.7207 212.357 16.6643 212.643 16.6643 212.99C16.6643 213.337 16.7207 213.623 16.8284 213.843C16.9551 214.096 17.1238 214.218 17.3253 214.2C18.441 214.106 19.4303 214.063 20.2884 214.063C21.1322 214.063 22.0277 214.106 22.9793 214.2C23.2372 214.218 23.4481 214.096 23.6123 213.843C23.7387 213.623 23.8045 213.337 23.8045 212.99C23.8045 212.643 23.7387 212.357 23.6123 212.137C23.4481 211.884 23.2372 211.771 22.9793 211.809C22.5762 211.865 22.2667 211.818 22.0464 211.672C21.751 211.508 21.6714 211.223 21.7978 210.819L22.8432 207.449H28.8535L29.8989 210.819C30.0257 211.223 29.946 211.508 29.6506 211.672C29.3975 211.818 28.9567 211.865 28.3331 211.809C28.0425 211.771 27.8126 211.884 27.6488 212.137C27.4986 212.357 27.4283 212.643 27.4283 212.99C27.4283 213.337 27.4986 213.623 27.6488 213.843C27.8126 214.096 28.0425 214.218 28.3331 214.2C29.3411 214.092 30.321 214.035 31.2726 214.035C32.2432 214.035 33.2557 214.092 34.3201 214.2C34.5404 214.218 34.7232 214.096 34.8684 213.843C34.9951 213.623 35.0608 213.337 35.0608 212.99C35.0608 212.643 34.9951 212.357 34.8684 212.137C34.7232 211.884 34.5404 211.771 34.3201 211.809C33.6591 211.846 33.2183 211.809 33.0026 211.701C32.8011 211.588 32.6276 211.297 32.4776 210.819L27.8362 195.817C27.6533 195.156 27.3628 194.664 26.9597 194.331C26.6314 194.078 26.2797 193.947 25.914 193.947L24.184 193.975C23.4717 193.993 22.9229 194.003 22.5385 194.003C21.9152 194.003 21.329 193.984 20.7805 193.947ZM39.1254 196.942V207.941C39.1254 210.341 39.7865 212.104 41.1037 213.22C42.2197 214.171 43.7621 214.65 45.7217 214.65C47.7892 214.65 49.3645 214.139 50.4473 213.112C51.6381 211.991 52.2337 210.276 52.2337 207.969V196.942C52.2337 196.633 52.3227 196.441 52.5055 196.366C52.6181 196.309 52.8525 196.3 53.2182 196.338L53.3259 196.366C53.5838 196.384 53.7902 196.258 53.9543 195.981C54.0807 195.742 54.1465 195.451 54.1465 195.1C54.1465 194.753 54.0807 194.467 53.9543 194.246C53.7902 194.012 53.579 193.928 53.3213 194.003C52.4633 194.073 51.5023 194.101 50.4379 194.083C49.5425 194.064 48.7269 194.022 47.9956 193.947C47.7377 193.89 47.5455 193.993 47.4188 194.246C47.2923 194.467 47.2266 194.753 47.2266 195.1C47.2266 195.447 47.2923 195.742 47.4188 195.981C47.5455 196.234 47.7422 196.356 47.9956 196.338C48.5299 196.23 48.933 196.211 49.2049 196.281C49.5379 196.375 49.7021 196.595 49.7021 196.942V207.997C49.7021 209.408 49.4112 210.454 48.8253 211.133C48.1643 211.902 47.1282 212.287 45.7217 212.287C44.348 212.287 43.3306 211.93 42.6744 211.213C42.0134 210.501 41.6851 209.427 41.6851 207.997V196.942C41.6851 196.652 41.8305 196.469 42.1259 196.394C42.3274 196.319 42.6086 196.3 42.9743 196.338C43.2697 196.356 43.5135 196.23 43.7153 195.953C43.8791 195.714 43.9636 195.423 43.9636 195.072C43.9636 194.706 43.8791 194.425 43.7153 194.223C43.5135 193.965 43.2697 193.881 42.9743 193.975C42.0227 194.031 41.1788 194.064 40.4475 194.083C39.6272 194.083 38.7552 194.05 37.8408 193.975C37.5831 193.937 37.3816 194.05 37.2361 194.303C37.1094 194.523 37.044 194.809 37.044 195.156C37.044 195.484 37.1094 195.761 37.2361 195.981C37.3816 196.234 37.5831 196.356 37.8362 196.338C38.2767 196.3 38.5863 196.309 38.7691 196.366C39.0081 196.455 39.1254 196.647 39.1254 196.942ZM59.5425 196.858V211.312C59.5425 211.551 59.4487 211.696 59.2659 211.752C59.1579 211.79 58.8721 211.799 58.4175 211.78H57.8687C57.6484 211.705 57.4749 211.799 57.3437 212.057C57.236 212.277 57.1796 212.568 57.1796 212.934C57.1796 213.285 57.236 213.576 57.3437 213.815C57.4704 214.073 57.6439 214.181 57.8641 214.143C59.144 214.092 60.241 214.073 61.1503 214.092C62.1586 214.092 62.9883 214.124 63.6445 214.2C63.9212 214.237 64.1369 214.115 64.3011 213.843C64.4652 213.623 64.5494 213.337 64.5494 212.99C64.5494 212.624 64.4697 212.329 64.3056 212.108C64.1415 211.837 63.926 211.724 63.6539 211.78C63.2508 211.837 62.9274 211.846 62.6742 211.809C62.2757 211.752 62.0742 211.588 62.0742 211.312V199.146L66.9404 209.61L68.839 213.543C69.0219 213.932 69.2985 214.228 69.6642 214.429C70.016 214.612 70.3629 214.678 70.7096 214.621C71.0943 214.547 71.399 214.354 71.6193 214.045C71.8959 213.679 72.0317 213.201 72.0317 212.615V196.778C72.0317 196.558 72.121 196.422 72.3035 196.366C72.4161 196.328 72.6411 196.309 72.9881 196.309L73.2928 196.338C73.5273 196.356 73.7194 196.234 73.8649 195.981C74.0103 195.761 74.0851 195.475 74.0851 195.128C74.0851 194.781 74.0103 194.495 73.8649 194.275C73.7194 194.022 73.5273 193.919 73.2883 193.975C72.2429 194.05 71.2207 194.083 70.2127 194.083C69.186 194.083 68.4172 194.05 67.9013 193.975C67.6108 193.919 67.3812 194.012 67.2171 194.251C67.0716 194.467 66.9968 194.753 66.9968 195.1C66.9968 195.433 67.0716 195.714 67.2171 195.953C67.3812 196.211 67.6108 196.338 67.9062 196.338C68.3095 196.263 68.6468 196.253 68.9235 196.309C69.3079 196.366 69.5001 196.52 69.5001 196.778V209.193L64.4368 198.396L62.7304 194.772C62.585 194.443 62.4679 194.223 62.3741 194.111C62.1912 193.965 61.9429 193.919 61.6334 193.975C61.1365 194.031 60.5692 194.059 59.9269 194.059C59.2894 194.059 58.6 194.031 57.8687 193.975C57.6484 193.937 57.4749 194.05 57.3437 194.303C57.236 194.523 57.1796 194.809 57.1796 195.156C57.1796 195.484 57.236 195.77 57.3437 196.009C57.4749 196.244 57.6484 196.356 57.8687 196.338L58.0844 196.309C58.6703 196.291 59.0408 196.309 59.1862 196.366C59.4252 196.422 59.5425 196.586 59.5425 196.858ZM77.8592 196.309C78.4125 196.234 78.8343 196.244 79.1251 196.338C79.4766 196.427 79.6501 196.638 79.6501 196.97V211.26C79.6501 211.551 79.4766 211.733 79.1251 211.809C78.8907 211.846 78.4686 211.837 77.8592 211.78C77.606 211.724 77.4138 211.827 77.2826 212.085C77.1559 212.32 77.0904 212.615 77.0904 212.962C77.0904 213.309 77.1559 213.604 77.2826 213.843C77.409 214.096 77.6015 214.209 77.8592 214.172C79.0829 214.096 80.2924 214.054 81.4833 214.035C82.8005 214.035 84.2632 214.078 85.8713 214.172C88.253 214.172 90.0345 213.276 91.2254 211.48C92.3411 209.774 92.8989 207.303 92.8989 204.059C92.8989 200.796 92.3411 198.316 91.2254 196.614C90.0345 194.837 88.253 193.947 85.8713 193.947C84.3009 194.04 82.8334 194.083 81.4833 194.083C80.3298 194.064 79.1203 194.022 77.8592 193.947C77.6015 193.89 77.409 193.984 77.2826 194.223C77.1559 194.458 77.0904 194.753 77.0904 195.1C77.0904 195.447 77.1559 195.733 77.2826 195.953C77.4138 196.225 77.606 196.347 77.8592 196.309ZM82.1817 196.309H85.6556C87.0247 196.309 88.103 196.867 88.8859 197.988C89.8188 199.286 90.2828 201.312 90.2828 204.059C90.2828 206.788 89.8188 208.804 88.8859 210.107C88.103 211.241 87.0247 211.809 85.6556 211.809H82.1817V196.309ZM101.328 196.309H105.604C106.663 196.309 107.47 196.624 108.018 197.247C108.548 197.852 108.811 198.766 108.811 199.994C108.811 201.227 108.548 202.17 108.018 202.831C107.47 203.529 106.663 203.876 105.604 203.876H101.328V196.309ZM98.7967 196.858V211.504C98.7967 211.705 98.6139 211.827 98.2482 211.865C98.009 211.884 97.5965 211.865 97.0058 211.809C96.7714 211.733 96.5792 211.827 96.4292 212.085C96.3212 212.301 96.2651 212.596 96.2651 212.962C96.2651 213.328 96.3212 213.623 96.4292 213.843C96.5743 214.115 96.7668 214.228 97.0058 214.172C97.9764 214.096 98.9515 214.063 99.9405 214.063C100.949 214.063 101.98 214.096 103.04 214.172C103.335 214.228 103.56 214.115 103.724 213.843C103.888 213.623 103.973 213.328 103.973 212.962C103.973 212.596 103.893 212.301 103.729 212.085C103.565 211.827 103.335 211.733 103.044 211.809C102.463 211.865 102.055 211.884 101.82 211.865C101.493 211.827 101.328 211.71 101.328 211.508V206.239H104.948C106.026 206.712 106.893 207.622 107.55 208.958C108.117 210.093 108.492 211.434 108.675 212.99V213.154C108.693 213.595 108.736 213.871 108.811 213.979C108.918 214.181 109.139 214.246 109.472 214.172C109.931 214.115 110.442 214.087 111.01 214.087C111.563 214.087 112.167 214.115 112.829 214.172C113.119 214.209 113.349 214.096 113.513 213.843C113.677 213.604 113.761 213.309 113.761 212.962C113.761 212.596 113.677 212.301 113.513 212.085C113.349 211.827 113.119 211.733 112.829 211.809C112.224 211.902 111.83 211.93 111.647 211.893C111.389 211.855 111.225 211.71 111.15 211.452C110.916 210.224 110.611 209.216 110.245 208.429C109.64 207.055 108.853 206.159 107.882 205.737C109.017 205.297 109.87 204.664 110.438 203.839C111.099 202.887 111.427 201.607 111.427 199.994C111.427 198.18 111.033 196.769 110.245 195.761C109.312 194.552 107.831 193.947 105.796 193.947C103.579 194.022 101.839 194.054 100.578 194.054C99.3123 194.054 98.1215 194.022 97.0058 193.947C96.7668 193.909 96.5743 194.022 96.4292 194.275C96.3212 194.495 96.2651 194.781 96.2651 195.128C96.2651 195.456 96.3212 195.733 96.4292 195.953C96.5792 196.211 96.7714 196.328 97.0058 196.309C97.5965 196.272 98.009 196.281 98.2482 196.338C98.6139 196.413 98.7967 196.586 98.7967 196.858ZM117.592 196.914L122.458 206.23V211.588C122.458 211.827 122.13 211.954 121.469 211.973C120.958 211.973 120.489 211.926 120.072 211.837C119.739 211.781 119.476 211.874 119.275 212.113C119.111 212.348 119.026 212.643 119.026 212.99C119.026 213.337 119.111 213.623 119.275 213.843C119.476 214.115 119.739 214.237 120.072 214.2C121.244 214.092 122.533 214.045 123.944 214.063C125.079 214.063 126.194 214.106 127.296 214.2C127.643 214.237 127.92 214.115 128.121 213.843C128.323 213.623 128.421 213.337 128.421 212.99C128.421 212.643 128.323 212.348 128.121 212.113C127.92 211.874 127.643 211.781 127.296 211.837H127.076C126.382 211.926 125.904 211.973 125.651 211.973C125.229 211.954 125.018 211.827 125.018 211.588V206.23L129.856 196.914C129.982 196.656 130.133 196.492 130.297 196.417C130.48 196.309 130.761 196.272 131.145 196.309C131.459 196.366 131.712 196.262 131.914 196.005C132.078 195.789 132.163 195.494 132.163 195.128C132.163 194.762 132.078 194.467 131.914 194.246C131.712 193.975 131.455 193.871 131.145 193.947C130.264 194.04 129.392 194.083 128.529 194.083C127.774 194.064 126.949 194.022 126.054 193.947C125.815 193.89 125.622 193.993 125.477 194.246C125.365 194.467 125.313 194.762 125.313 195.128C125.313 195.475 125.365 195.761 125.477 195.981C125.622 196.234 125.815 196.347 126.054 196.309C126.457 196.291 126.734 196.309 126.879 196.366C127.081 196.455 127.127 196.638 127.015 196.914L124.024 202.704C123.897 202.962 123.79 203.089 123.696 203.089C123.625 203.089 123.532 202.962 123.424 202.704L120.433 196.914C120.306 196.656 120.287 196.492 120.376 196.417C120.433 196.366 120.578 196.328 120.817 196.309H121.009C121.319 196.366 121.567 196.272 121.75 196.033C121.914 195.798 121.999 195.503 121.999 195.156C121.999 194.79 121.914 194.486 121.75 194.246C121.567 193.993 121.319 193.89 121.009 193.947C119.8 194.022 118.881 194.064 118.257 194.083C117.488 194.083 116.743 194.04 116.031 193.947C115.791 193.89 115.608 193.993 115.477 194.246C115.351 194.467 115.285 194.753 115.285 195.1C115.285 195.447 115.351 195.742 115.477 195.981C115.604 196.234 115.787 196.347 116.026 196.309C116.354 196.234 116.631 196.225 116.851 196.281C117.142 196.375 117.39 196.586 117.592 196.914Z" fill="#85878B"/>
<path fill-rule="evenodd" clip-rule="evenodd" d="M57.8959 102.853L57.4613 103.691L57.2541 102.763L54.7259 88.2602L46.8649 88.2862L46.8034 120.111C47.1597 121.136 46.6857 120.299 47.5528 121.147L50.6653 123.522C52.4318 124.597 53.6068 125.188 55.7058 126.03C59.4731 127.54 64.0678 128.15 68.5967 127.69C90.0589 125.506 100.878 100.096 87.2498 82.8794C85.6204 80.8209 81.7548 77.1448 78.9618 76.0206L78.9706 79.5344C81.4246 80.639 83.7992 83.2787 85.3625 85.3514C99.0342 103.478 82.6999 128.669 61.0494 124.468C58.562 123.985 53.5322 122.402 52.2504 120.691L52.2626 99.236L54.8515 112.572L60.296 112.528L62.0455 102.827C62.4061 100.72 62.3517 100.516 62.8647 99.6499L62.9007 112.457L68.335 112.585L68.3302 88.2727L60.4848 88.288L57.8959 102.853Z" fill="#85878B"/>
<path fill-rule="evenodd" clip-rule="evenodd" d="M44.3194 117.606C44.3194 108.013 41.6945 111.576 40.9308 101.85C40.1456 91.8512 46.1588 81.8389 54.9966 77.8274C59.017 76.0024 66.0886 74.3464 71.0518 76.1742L71.0645 112.572L83.6234 112.566L83.6404 107.062L76.4875 107.046L76.4878 75.1617C76.3423 74.5338 75.4568 74.2829 74.8785 74.0825C56.3697 67.6748 37.5783 81.4821 37.9224 100.689C38.0293 106.655 39.7598 111.328 42.8465 115.973C43.1033 116.36 43.0976 116.429 43.4437 116.825C43.5024 116.892 43.685 117.084 43.7499 117.145C44.1439 117.52 43.8434 117.29 44.3194 117.606Z" fill="#2F9EBF"/>
<path fill-rule="evenodd" clip-rule="evenodd" d="M57.8959 102.853L57.2542 102.763L57.4613 103.691L57.8959 102.853Z" fill="#A5A5A5"/>
</svg>
