<svg width="44" height="35" viewBox="0 0 44 35" fill="none" xmlns="http://www.w3.org/2000/svg">
<path fill-rule="evenodd" clip-rule="evenodd" d="M7.36023 14.1255C6.86473 13.7006 6.62213 13.596 6.16943 13.2958C4.19223 14.0263 1.91123 14.9674 0.615833 15.9306C0.120033 18.2632 0.00663266 24.07 0.678433 26.3063L22.2685 33.849C25.9337 35.0106 30.0139 32.2678 33.0458 30.8916C36.34 29.396 40.0012 27.8925 43.0073 26.4092C44.4176 19.081 38.8262 23.0629 34.9291 24.7554C32.2674 25.9114 26.5562 29.2186 23.8445 29.0043C24.3922 27.4189 24.8027 27.8829 28.0016 26.3536C29.6289 25.5755 31.9366 24.6826 33.3035 24.0777C44.1344 19.2846 42.9776 21.0253 43.1547 16.3904C38.3764 12.4786 34.8452 14.3205 34.8345 14.3217C32.6852 14.5385 33.2995 13.7496 31.0559 13.806C30.8183 15.7452 32.6637 18.505 30.0028 19.0941C27.6138 19.6227 29.6057 18.3962 22.6293 18.8647C18.1863 19.1629 12.4986 18.4282 11.3228 18.6629C11.3137 18.6646 6.53993 20.5514 6.71713 16.8672C6.77523 15.6571 7.21853 15.8674 7.36023 14.1255Z" fill="#2F9EBF"/>
<path fill-rule="evenodd" clip-rule="evenodd" d="M9.04204 15.0839L8.01364 17.6521C11.2774 17.9483 9.59514 16.8689 13.5783 17.3354L24.1994 17.3868C28.1643 16.9465 27.3788 17.9588 29.9728 17.696C30.0008 15.1148 29.373 16.8397 29.2698 15.1239C29.2358 14.5615 29.848 12.8292 29.8475 11.5939C29.8472 10.2332 29.3642 9.30598 29.2944 8.35358C29.1663 6.60488 30.015 7.95896 29.9691 5.50336C27.2277 5.23916 28.418 6.25028 24.7117 5.91608C20.2128 5.51038 17.8895 5.34149 13.082 5.91889C9.41284 6.35999 11.6326 5.24677 8.26514 5.47077C8.23304 8.49647 9.22264 5.99148 8.53014 10.0328L8.80684 14.1879C8.83084 14.2783 8.87654 14.4163 8.89804 14.4957L9.04204 15.0839Z" fill="#2F9EBF"/>
<path fill-rule="evenodd" clip-rule="evenodd" d="M14.1812 2.58417L14.2742 4.23596L16.9952 4.15625C18.8695 4.27275 25.8158 4.76627 27.353 4.40607C29.5161 3.89947 31.9267 3.6929 31.4624 6.716C31.2699 7.9692 30.9297 7.4156 30.9229 9.4483C31.7901 10.6148 31.5298 10.5915 31.6084 12.2291C33.9631 11.9105 32.2087 12.1254 32.8927 12.5803L35.2775 13.0704C35.3439 10.3787 34.5091 11.8161 34.6108 9.99939C34.6652 9.02169 35.1531 8.25858 35.1624 6.80078C35.1715 5.33808 34.7032 4.61948 34.6287 3.56958C34.4971 1.72218 35.3617 3.20278 35.29 0.690979C32.4735 0.429579 33.8656 1.48637 30.0068 1.06567C28.1665 0.864974 26.5766 0.75217 24.7063 0.74707C22.9054 0.74197 21.1199 0.816772 19.3822 1.00897C15.3194 1.45827 16.2897 0.459354 13.6067 0.675354L14.1812 2.58417ZM7.36023 14.1255L7.16633 13.0007L6.16943 13.2958C6.62213 13.596 6.86473 13.7006 7.36023 14.1255Z" fill="#2F9EBF"/>
</svg>
