<svg width="61" height="56" viewBox="0 0 61 56" fill="none" xmlns="http://www.w3.org/2000/svg">
<path fill-rule="evenodd" clip-rule="evenodd" d="M54.9082 41.513C57.7363 41.7196 57.7074 42.1544 59.9181 43.476C59.974 37.2275 59.9365 30.9689 59.9365 24.7194C59.9365 18.9463 61.518 11.3325 55.1588 9.99365L53.1844 9.63788C53.1328 11.8731 53.4957 11.8991 52.2898 13.5259C51.9817 17.1055 54.6049 20.5777 51.074 22.1515C46.3478 22.838 48.145 20.9558 43.5829 21.4408C37.0604 22.1345 32.1188 22.3136 25.5302 21.5349C21.6337 21.074 17.3786 23.9104 15.6577 20.4144C15.0899 16.5933 16.3899 17.5628 16.4488 15.6244C16.476 14.7222 15.792 11.3212 15.7337 9.69916L9.12921 9.5163L8.83612 40.7958C16.62 40.7102 24.4542 40.7879 32.2404 40.7879C36.4232 40.7879 52.8105 39.758 54.9082 41.513Z" fill="#2F9EBF"/>
<path fill-rule="evenodd" clip-rule="evenodd" d="M1.16812 17.0103C-0.461777 25.1707 0.444722 39.8949 0.499422 48.8465C11.1906 47.2075 39.2459 48.1962 51.707 48.2316H51.0358C54.1992 48.2316 52.8562 47.9434 53.9637 49.3187L52.9585 49.8823C50.4209 50.4812 11.7099 50.0949 6.03693 50.0909C0.806428 50.0872 0.739509 50.706 0.717409 54.257C4.08471 56.4331 38.0644 55.4149 47.0083 55.4177C52.1518 55.4197 57.1725 55.8781 59.2268 51.9246C61.5826 47.3906 58.1436 43.8087 54.5669 43.0354C51.5191 42.3767 15.2265 43.3042 6.60272 42.7063L6.49784 16.8938L1.16812 17.0103ZM18.8041 16.1094C18.1559 17.5681 17.3196 18.0503 17.8024 20.1097C21.6306 21.0831 19.1372 18.8721 25.0302 19.6065C30.9656 20.3464 37.5403 20.375 43.4701 19.6003C45.6083 19.3208 45.4824 19.0549 47.2342 19.6213C49.5725 20.3773 47.565 20.4498 49.6303 20.3679C49.7772 20.362 50.036 20.2477 50.1567 20.2307C50.2817 20.2134 50.5026 20.0896 50.6786 20.0266C51.3722 17.6075 50.8546 18.0894 49.6669 16.1094C51.6313 10.0663 49.8137 10.049 49.8288 5.55286C49.8361 3.37816 51.8774 3.48418 50.7585 1.61188C49.7001 -0.158619 47.4746 1.55489 46.3368 2.17829L34.2683 1.0943C31.0529 0.985703 25.4429 1.7607 22.1711 2.1825C21.0832 1.6037 19.394 0.0648081 18.0229 1.26441C16.2011 2.85771 18.6295 3.52361 18.623 5.56061C18.608 10.4104 16.9786 9.93588 18.8041 16.1094Z" fill="#2F9EBF"/>
</svg>
