<svg width="48" height="49" viewBox="0 0 48 49" fill="none" xmlns="http://www.w3.org/2000/svg">
<path fill-rule="evenodd" clip-rule="evenodd" d="M6.80505 19.6491C11.1217 19.7336 41.7221 18.8985 45.0228 20.4074L47.2863 21.4899C47.383 2.86857 49.3469 0.525973 38.3099 0.552673C27.8926 0.577573 17.3321 0.379994 6.93628 0.580994L6.80505 19.6491Z" fill="white"/>
<path fill-rule="evenodd" clip-rule="evenodd" d="M0.833853 6.56781C-0.0301469 12.952 0.341728 19.5284 0.545828 25.8527L5.67681 25.3978C17.137 25.3978 28.5972 25.3978 40.0574 25.3978C42.025 25.3978 41.3809 25.0976 42.7294 26.0702C41.8019 27.4949 41.6139 27.0274 38.9086 27.0098C31.416 26.9619 4.14953 26.5537 0.824728 27.4554L0.695731 30.3437C3.48453 31.7692 7.68284 31.1221 10.9214 31.1223L40.6401 31.1252C45.3471 31.1252 48.9437 28.3345 46.6363 23.7693C43.8756 18.3066 18.1209 23.4473 5.31853 21.0786L5.00475 6.3172L0.833853 6.56781ZM0.450034 42.6265C4.68723 41.7364 30.1936 42.2818 38.316 42.2183C41.0384 42.1967 41.7432 41.6871 42.7316 43.154C40.8149 44.5404 11.1411 43.7578 4.47942 43.8165C-0.126878 43.857 0.561941 45.1961 0.895041 47.5128C4.35214 48.3652 30.0347 47.9117 37.1437 47.9185C41.7225 47.9227 45.4984 48.4409 46.8251 45.0745C50.3672 36.0878 35.7682 38.1089 29.5683 38.1075C24.0025 38.1066 9.32897 38.6877 5.13317 37.8572L4.91656 32.7662L0.424246 32.4149L0.450034 42.6265Z" fill="white"/>
<path fill-rule="evenodd" clip-rule="evenodd" d="M7.09863 32.7409L6.89777 36.4787C13.9926 36.5609 20.9264 36.498 27.8203 36.494C35.3531 36.49 41.5997 35.5294 47.2256 38.3195L47.2186 30.9438C41.6219 33.6874 35.247 32.727 27.8203 32.731C20.9205 32.735 13.9948 32.6763 7.09863 32.7409Z" fill="white"/>
</svg>
