<svg width="51" height="48" viewBox="0 0 51 48" fill="none" xmlns="http://www.w3.org/2000/svg">
<path fill-rule="evenodd" clip-rule="evenodd" d="M19.2373 34.9805L19.313 40.3907C23.7299 40.379 42.7357 39.5797 44.8724 41.0798C44.386 41.7941 46.2481 42.0401 41.4737 42.0078L25.7136 41.9942C20.5101 41.9942 9.26762 43.5351 7.19012 39.8872C5.71832 37.3026 7.28873 34.693 9.12503 33.8761C12.8219 32.2311 38.118 34.2704 39.5498 32.9166C40.2179 31.781 40.0192 29.8254 39.8897 28.0923C35.6998 27.4069 25.8571 27.897 21.0518 27.897C14.7424 27.897 8.14701 27.1736 4.04501 30.316C0.969109 32.6719 -0.715185 39.1627 2.43982 43.1879C5.76002 47.4243 10.7847 47.4512 17.5555 47.4506C20.9041 47.4503 44.1365 47.7888 46.3204 47.1246C48.3375 46.5109 50.5389 44.3467 50.8172 42.1402C51.8216 34.1811 42.9332 34.9442 39.1161 34.9442C32.5111 34.9442 25.8332 34.8563 19.2373 34.9805ZM7.64932 22.2906C10.4873 22.5349 9.4924 21.3793 14.0559 21.915L26.8812 21.9176C31.841 21.3365 29.8066 22.2444 33.5296 22.529C33.9069 19.8089 33.0063 20.6998 32.807 19.1407C32.7022 18.3184 33.3998 16.331 33.4037 14.9217C33.408 13.5137 32.7209 11.4645 32.8019 10.6751C32.9678 9.06052 34.2068 9.61802 33.2889 7.45582C30.259 7.23072 31.7265 8.41416 27.1077 7.85346C22.6993 7.31826 18.3447 7.3449 13.9751 7.8484C9.41302 8.3739 10.595 7.17999 7.64932 7.47669C6.79352 9.60839 8.01132 9.05541 8.17312 10.6756C8.25222 11.4671 7.56992 13.5009 7.57592 14.9217C7.58152 16.3089 8.25671 18.3269 8.15191 19.1351C7.96221 20.5955 6.75212 20.1572 7.64932 22.2906Z" fill="white"/>
<path fill-rule="evenodd" clip-rule="evenodd" d="M17.7982 5.69971C20.5645 6.04691 23.4555 5.84935 26.2684 6.13165C30.5844 6.56475 30.7321 5.35216 33.8717 5.81726C36.6568 8.19956 35.1207 8.1792 34.7499 10.755C34.5311 12.2752 35.2128 15.2919 34.8148 18.2243C39.6788 18.438 37.1404 19.5175 40.9881 19.8281C41.4796 16.856 39.9804 18.5044 41.7047 14.6181C42.743 12.2775 42.7065 10.5977 42.7099 7.98016C44.1439 6.48486 44.5167 6.9535 43.8741 5.2793C42.9987 4.3462 41.7804 5.64049 39.0948 4.81189C37.2554 4.24469 35.7324 3.76556 33.7779 3.26416C29.5707 2.18446 25.8712 1.83778 21.4305 1.61578C20.4358 0.0762837 21.6496 0.68745 19.3036 0.13385C17.5992 1.83995 18.6653 0.861511 18.7217 2.68341C18.7738 4.37481 18.4459 4.20921 17.7982 5.69971ZM12.6833 40.3365L12.8602 35.053C6.76513 34.7823 6.55992 40.451 12.6833 40.3365ZM48.8693 32.9565C51.5786 32.353 51.5667 29.4478 49.2729 28.2054L46.7158 27.9931L46.6886 33.1155L48.8693 32.9565ZM14.6599 40.387L17.3182 40.3595C17.532 38.3803 17.7641 36.6302 16.9727 35.0199L14.5749 34.9799L14.6599 40.387ZM42.0066 33.0932L44.3469 33.0846C44.3375 32.2558 44.4121 31.1667 44.3713 30.3676L43.778 28.0268C41.1806 28.374 42.2716 26.9389 41.9261 29.7874C41.8634 30.3041 42.0063 32.3802 42.0066 33.0932Z" fill="white"/>
</svg>
