<svg width="59" height="74" viewBox="0 0 59 74" fill="none" xmlns="http://www.w3.org/2000/svg">
<path fill-rule="evenodd" clip-rule="evenodd" d="M31.3532 68.4851L33.4426 65.9827C38.4602 61.0954 41.1647 60.997 46.4967 51.0658C48.3446 47.6231 49.9468 43.6669 50.866 39.6511C52.9912 30.3656 52.8188 29.3065 49.2285 27.6009C47.5985 30.3366 47.1657 34.7491 45.3028 37.8522C39.9759 46.7261 24.7657 55.6212 18.1205 51.1186C20.2986 47.5816 28.491 51.2054 36.6466 43.7931C39.4007 41.2901 40.5218 40.6367 42.6852 37.1336C44.4762 34.2329 45.3671 31.2429 45.8498 27.5588C44.0002 28.2807 45.2951 27.0531 43.5467 28.7377C39.7982 29.0109 38.3766 27.7623 35.7789 26.7815C32.4987 27.4989 32.3178 28.8125 29.4837 28.8295C25.8296 28.8516 27.0519 27.5469 23.226 26.8308C14.1205 30.5944 19.1004 28.482 11.5699 26.8232C7.22272 28.6753 6.22553 29.2766 1.30143 27.5922C1.18463 36.8643 0.0122199 64.7657 1.83402 72.0845C4.63272 73.0262 20.2193 74.1853 25.7497 71.2027C29.5818 69.1359 28.1724 69.0781 31.3532 68.4851Z" fill="white"/>
<path fill-rule="evenodd" clip-rule="evenodd" d="M32.8317 69.2969C32.7597 69.4177 32.6648 69.4908 32.6259 69.664C32.5845 69.8463 32.4156 69.9687 32.3535 70.0209L28.6696 72.7694C61.9104 73.4777 57.8954 74.7854 57.8843 62.4439L57.8914 27.5029L54.9666 28.7944C53.6811 39.3339 53.5808 43.8699 48.4906 52.8557C44.6885 59.5676 39.0186 65.9552 32.8317 69.2969ZM1.53642 1.7768L1.23853 17.176L5.43493 17.1295L5.36543 9.88081C5.66423 8.51791 5.72153 8.80277 6.23283 8.14027L6.59422 6.35249C10.0704 5.74699 19.2796 5.4352 23.2855 5.8119C29.0543 6.3545 27.5445 9.96037 27.7081 13.9561C27.7214 14.2821 27.7353 15.2468 27.7869 15.528C28.0579 17.0054 28.2257 16.7372 28.6061 17.3838L30.399 17.3827C31.0255 16.5175 31.0819 17.3044 31.4093 15.5302C32.9533 7.16516 27.521 5.79179 42.0554 5.80939C54.7039 5.82469 54.0717 5.53302 53.4824 17.411L57.3012 17.3022C58.7787 13.6389 57.9277 7.34969 57.8149 3.05579C57.0971 1.89159 57.0977 1.84767 56.4684 1.13557C47.4783 0.749767 7.16232 0.137202 1.53642 1.7768ZM1.98573 24.5827L6.06792 26.6383C14.0088 23.184 10.3465 24.0016 17.8461 26.434C26.9223 23.5313 20.7493 23.853 29.5027 26.4371C32.722 25.5941 36.6894 22.5281 39.3701 26.2078C43.888 26.534 43.2947 24.7933 46.6416 24.4554C49.4541 24.1711 50.6724 25.6882 53.7114 26.4048L57.3724 24.7105L57.4005 20.3406L1.97923 20.2612L1.98573 24.5827Z" fill="white"/>
<path fill-rule="evenodd" clip-rule="evenodd" d="M8.78682 9.17267L8.34662 16.6794C14.3164 17.9249 18.4666 17.6491 24.7918 17.0896C25.2587 6.1824 26.9266 8.10708 13.3189 8.26868L8.78682 9.17267ZM34.3726 16.8291L50.6789 17.032C51.6966 6.81338 52.5297 8.31461 36.6758 8.30951C32.7977 8.30751 34.0396 13.2495 34.3726 16.8291ZM1.98572 24.5827L1.97921 20.2612L57.4005 20.3406L57.3724 24.7105C58.1814 23.2237 57.8514 26.106 58.1766 22.7872C58.324 21.2871 58.0964 21.17 57.8625 19.859L1.48652 20.0061C1.26402 20.6825 0.870517 20.6482 0.974317 22.0476C1.28952 26.3064 0.617115 22.8807 1.98572 24.5827ZM1.23852 17.176C3.38172 18.042 -1.07518 17.6463 3.44042 17.839C5.02072 17.9065 4.47931 17.7704 5.74981 17.5542L6.23282 8.14026C5.72152 8.80276 5.66421 8.5179 5.36541 9.8808L5.43492 17.1295L1.23852 17.176Z" fill="white"/>
</svg>
