<svg width="57" height="61" viewBox="0 0 57 61" fill="none" xmlns="http://www.w3.org/2000/svg">
<path fill-rule="evenodd" clip-rule="evenodd" d="M7.7092 52.139C7.5436 48.7641 6.72071 45.472 14.9954 45.4235L45.0769 45.4195C48.3968 45.3906 48.2401 44.7865 49.8632 46.6064C49.0437 47.1056 49.6194 47.181 48.0663 47.4568C45.6007 47.8944 13.4 46.9718 11.6839 47.6858C9.4168 48.6295 9.2257 51.9454 12.0244 52.969C21.8937 53.443 32.8134 53.0569 42.8021 53.0648C48.4861 53.0694 52.3642 53.7656 54.9049 50.0346C57.2474 46.5942 56.0974 42.5058 52.3163 40.7234C49.7711 39.5237 12.0904 38.6765 7.33561 41.023C0.726305 44.2845 -1.83249 53.5272 6.54241 59.0057C10.0495 61.2998 15.5662 60.7044 20.2817 60.7035C30.4847 60.7018 41.8077 61.1311 51.8628 60.7385C57.0609 60.5355 58.66 55.2359 51.0869 55.1049L19.5308 55.1338C13 55.1384 11.1136 56.0605 7.7092 52.139Z" fill="white"/>
<path fill-rule="evenodd" clip-rule="evenodd" d="M50.101 23.3337C45.817 26.981 45.1753 23.2874 40.6086 22.9663C40.2665 27.3421 42.9129 26.4682 39.6454 30.1473C35.2347 30.742 36.2407 29.3502 31.544 29.6977C21.1009 30.4707 19.0903 29.3924 15.0557 29.5784C12.3353 29.7037 10.0696 31.7979 8.04051 29.0803C6.30211 26.7514 8.46402 27.7214 7.63832 20.2439C-0.829282 23.8272 1.16481 33.3144 1.24621 42.7504C1.43381 42.6342 1.71901 42.2606 1.80911 42.4017C2.11731 42.8851 4.76311 38.3732 11.9957 37.8575L43.5521 37.804C52.6635 37.7886 49.9607 37.8323 56.1215 40.4524C56.1737 27.7744 58.2362 21.5237 50.5001 19.1319L50.101 23.3337Z" fill="white"/>
<path fill-rule="evenodd" clip-rule="evenodd" d="M9.84002 28.2617C13.578 28.1387 11.7077 27.1667 16.5105 27.5848C22.8867 28.1401 25.0436 28.29 31.5528 27.6554C36.6243 27.1607 35.3634 28.4139 38.7882 28.1021C38.8378 25.4588 38.1025 26.157 37.9472 24.8771C37.8018 23.682 38.6227 21.8072 38.6491 20.2002C38.6785 18.4223 37.9203 16.2833 37.9679 15.334C38.045 13.8016 38.4401 14.455 38.5878 13.6845C39.1499 10.7492 38.8279 12.9648 38.2474 11.9704C36.3346 11.486 36.7688 12.863 32.5069 12.4897C25.9467 11.9149 23.5554 11.6603 16.7285 12.4064C11.4787 12.9798 13.1877 11.8692 10.2003 11.7805C9.11832 15.3014 10.4106 12.4004 10.588 15.497C10.668 16.8914 10.0432 16.6079 10.5152 23.6656C10.7437 27.0819 9.75892 24.4944 9.84002 28.2617Z" fill="white"/>
<path fill-rule="evenodd" clip-rule="evenodd" d="M21.7092 9.95438C25.9215 9.85658 28.7428 10.2146 32.7949 10.4598C36.713 10.6971 37.7272 7.80767 40.8153 11.3224L40.9658 20.5296C48.4836 22.7299 44.2021 22.8005 47.7315 22.6202C48.125 19.9896 47.2618 21.0212 47.7372 19.1537C47.9694 18.2404 49.0664 16.846 49.5344 15.3913C50.1489 13.4818 49.8102 12.1979 50.1869 10.7508C51.0588 7.40313 51.7142 10.7365 51.7681 6.72257C42.1569 6.67437 49.0788 6.51318 38.2015 3.97868C35.6069 3.37428 33.3653 3.05427 30.7489 2.75327C24.6198 2.04827 27.9996 1.44363 23.8754 0.605934C22.9241 3.40293 24.4123 2.44398 23.5733 4.87638C22.8326 7.02448 22.1415 6.84028 21.7092 9.95438Z" fill="white"/>
</svg>
